<svg width="50" height="50" viewBox="0 0 50 50" fill="none" xmlns="http://www.w3.org/2000/svg">
<circle cx="25" cy="25" r="25" fill="#2BB885"/>
<path d="M29 27.5C28.7239 27.5 28.5 27.7239 28.5 28C28.5 28.2761 28.7239 28.5 29 28.5V27.5ZM35 28.5C35.2761 28.5 35.5 28.2761 35.5 28C35.5 27.7239 35.2761 27.5 35 27.5V28.5ZM29 28.5H35V27.5H29V28.5Z" fill="white"/>
<path d="M29 24.5C28.7239 24.5 28.5 24.7239 28.5 25C28.5 25.2761 28.7239 25.5 29 25.5V24.5ZM35 25.5C35.2761 25.5 35.5 25.2761 35.5 25C35.5 24.7239 35.2761 24.5 35 24.5V25.5ZM29 25.5H35V24.5H29V25.5Z" fill="white"/>
<path d="M29 22.5C28.7239 22.5 28.5 22.7239 28.5 23C28.5 23.2761 28.7239 23.5 29 23.5V22.5ZM35 23.5C35.2761 23.5 35.5 23.2761 35.5 23C35.5 22.7239 35.2761 22.5 35 22.5V23.5ZM29 23.5H35V22.5H29V23.5Z" fill="white"/>
<path d="M4.5 33.5V33.25L4.32322 33.6768L4.5 33.5ZM21 33.5L21.1387 33.292L21.0757 33.25H21V33.5ZM22.5 34.5L22.3613 34.708L22.4243 34.75H22.5V34.5ZM26 34.5V34.75H26.1036L26.1768 34.6768L26 34.5ZM27 33.5V33.25H26.8964L26.8232 33.3232L27 33.5ZM45 33.5L45.1952 33.6562L45 33.25V33.5ZM42.8048 35.8438C42.7185 35.9516 42.736 36.109 42.8438 36.1952C42.9516 36.2815 43.109 36.264 43.1952 36.1562L42.8048 35.8438ZM6.82322 36.1768C6.92085 36.2744 7.07915 36.2744 7.17678 36.1768C7.27441 36.0791 7.27441 35.9209 7.17678 35.8232L6.82322 36.1768ZM4.5 33.75H21V33.25H4.5V33.75ZM20.8613 33.708L22.3613 34.708L22.6387 34.292L21.1387 33.292L20.8613 33.708ZM22.5 34.75H26V34.25H22.5V34.75ZM26.1768 34.6768L27.1768 33.6768L26.8232 33.3232L25.8232 34.3232L26.1768 34.6768ZM27 33.75H45V33.25H27V33.75ZM44.8048 33.3438L42.8048 35.8438L43.1952 36.1562L45.1952 33.6562L44.8048 33.3438ZM4.32322 33.6768L6.82322 36.1768L7.17678 35.8232L4.67678 33.3232L4.32322 33.6768Z" fill="white"/>
<path d="M7 36H43" stroke="white" stroke-width="0.5" stroke-linecap="round"/>
<path d="M43 31V13C43 12.4477 42.5523 12 42 12H41.1053M7 31V13C7 12.4477 7.44772 12 8 12H9.36842" stroke="white" stroke-width="0.5"/>
<path d="M15.5 25.7619C13.0147 25.7619 11 28.6331 11 31H20C20 28.6331 17.9853 25.7619 15.5 25.7619Z" fill="#FFFBFB"/>
<path d="M19 24.3333C19 26.1743 17.433 27.6667 15.5 27.6667C13.567 27.6667 12 26.1743 12 24.3333C12 22.4924 13.567 21 15.5 21C17.433 21 19 22.4924 19 24.3333Z" fill="#FFFBFB"/>
<path d="M21.5 24H21.25V24.5651L21.6682 24.185L21.5 24ZM27.1682 19.185C27.2703 19.0921 27.2779 18.934 27.185 18.8318C27.0921 18.7297 26.934 18.7221 26.8318 18.815L27.1682 19.185ZM21.25 19V24H21.75V19H21.25ZM21.6682 24.185L27.1682 19.185L26.8318 18.815L21.3318 23.815L21.6682 24.185Z" fill="white"/>
<path d="M26.8824 18H40C40.5523 18 41 17.5523 41 17V8C41 7.44772 40.5523 7 40 7H10C9.44772 7 9 7.44771 9 8V17C9 17.5523 9.44772 18 10 18H21.7059" stroke="white" stroke-width="0.5"/>
<path d="M26 12.5L23 14.6651V10.3349L26 12.5Z" fill="white"/>
<path d="M39 20.5C39 20.2239 38.7761 20 38.5 20C38.2239 20 38 20.2239 38 20.5H39ZM38.5 30.5V31H39V30.5H38.5ZM27.5 30C27.2239 30 27 30.2239 27 30.5C27 30.7761 27.2239 31 27.5 31V30ZM38 20.5V30.5H39V20.5H38ZM38.5 30H27.5V31H38.5V30Z" fill="white"/>
</svg>
