<svg width="50" height="50" viewBox="0 0 50 50" fill="none" xmlns="http://www.w3.org/2000/svg">
<circle cx="25" cy="25" r="25" fill="#67902F"/>
<mask id="path-2-inside-1" fill="white">
<path fill-rule="evenodd" clip-rule="evenodd" d="M6 13C6 12.4477 6.44772 12 7 12H43C43.5523 12 44 12.4477 44 13V29C44 29.5523 43.5523 30 43 30H31C30.4477 30 30 30.4477 30 31V38C30 38.5523 30.4477 39 31 39H38C38.5523 39 39 39.4477 39 40V42C39 42.5523 38.5523 43 38 43H12C11.4477 43 11 42.5523 11 42V40C11 39.4477 11.4477 39 12 39H19C19.5523 39 20 38.5523 20 38V31C20 30.4477 19.5523 30 19 30H7C6.44772 30 6 29.5523 6 29V13Z"/>
</mask>
<path d="M43 11H7V13H43V11ZM45 29V13H43V29H45ZM31 31H43V29H31V31ZM31 38V31H29V38H31ZM31 40H38V38H31V40ZM38 40V42H40V40H38ZM38 42H12V44H38V42ZM12 42V40H10V42H12ZM12 40H19V38H12V40ZM19 31V38H21V31H19ZM7 31H19V29H7V31ZM5 13V29H7V13H5ZM7 29H5C5 30.1046 5.89543 31 7 31V29ZM21 31C21 29.8954 20.1046 29 19 29V31H21ZM19 40C20.1046 40 21 39.1046 21 38H19V40ZM12 40V38C10.8954 38 10 38.8954 10 40H12ZM12 42H12H10C10 43.1046 10.8954 44 12 44V42ZM38 42V44C39.1046 44 40 43.1046 40 42H38ZM38 40H40C40 38.8954 39.1046 38 38 38V40ZM29 38C29 39.1046 29.8954 40 31 40V38H29ZM31 29C29.8954 29 29 29.8954 29 31H31V29ZM43 29V31C44.1046 31 45 30.1046 45 29H43ZM7 11C5.89543 11 5 11.8954 5 13H7H7V11ZM43 13V13H45C45 11.8954 44.1046 11 43 11V13Z" fill="white" mask="url(#path-2-inside-1)"/>
<rect x="10.5" y="6.5" width="29" height="21" rx="0.5" fill="#67902F" stroke="white"/>
<circle cx="17.5" cy="22.5" r="3.25" stroke="white" stroke-width="0.5"/>
<path d="M10.5 10.5H39.5" stroke="white"/>
<path d="M19 19.5L15.5 25" stroke="white" stroke-width="0.5"/>
<path d="M17.5 22L20.5 23.5" stroke="white" stroke-width="0.5"/>
<path d="M12.5 14.125C12.2929 14.125 12.125 14.2929 12.125 14.5C12.125 14.7071 12.2929 14.875 12.5 14.875V14.125ZM14.5 14.5V14.875H14.7318L14.8354 14.6677L14.5 14.5ZM15.5 12.5L15.8558 12.3814L15.5695 11.5225L15.1646 12.3323L15.5 12.5ZM16.5 15.5L16.1442 15.6186L16.4305 16.4775L16.8354 15.6677L16.5 15.5ZM17.5 13.5L17.7652 13.2348L17.3973 12.8669L17.1646 13.3323L17.5 13.5ZM18.5 14.5L18.2348 14.7652L18.6027 15.1331L18.8354 14.6677L18.5 14.5ZM19.5 12.5L19.8354 12.3323L19.5 11.6615L19.1646 12.3323L19.5 12.5ZM20.5 14.5L20.1646 14.6677L20.2682 14.875H20.5V14.5ZM22.5 14.5L22.7652 14.2348L22.6553 14.125H22.5V14.5ZM23.5 15.5L23.2348 15.7652L23.5583 16.0886L23.812 15.708L23.5 15.5ZM25.5 12.5L25.6677 12.1646L25.3716 12.0165L25.188 12.292L25.5 12.5ZM27.5 13.5L27.3323 13.8354L27.574 13.9563L27.7652 13.7652L27.5 13.5ZM28.5 12.5L28.8558 12.3814L28.6639 11.8058L28.2348 12.2348L28.5 12.5ZM29.5 15.5L29.1442 15.6186L29.4305 16.4775L29.8354 15.6677L29.5 15.5ZM30.5 13.5L30.7652 13.2348L30.3973 12.8669L30.1646 13.3323L30.5 13.5ZM31.5 14.5L31.2348 14.7652L31.3447 14.875H31.5V14.5ZM33.5 14.5V14.875H33.7318L33.8354 14.6677L33.5 14.5ZM34.5 12.5L34.8558 12.3814L34.5695 11.5225L34.1646 12.3323L34.5 12.5ZM35.5 15.5L35.1442 15.6186L35.3361 16.1942L35.7652 15.7652L35.5 15.5ZM36.5 14.5V14.125H36.3447L36.2348 14.2348L36.5 14.5ZM37.5 14.875C37.7071 14.875 37.875 14.7071 37.875 14.5C37.875 14.2929 37.7071 14.125 37.5 14.125V14.875ZM12.5 14.875H14.5V14.125H12.5V14.875ZM14.8354 14.6677L15.8354 12.6677L15.1646 12.3323L14.1646 14.3323L14.8354 14.6677ZM15.1442 12.6186L16.1442 15.6186L16.8558 15.3814L15.8558 12.3814L15.1442 12.6186ZM16.8354 15.6677L17.8354 13.6677L17.1646 13.3323L16.1646 15.3323L16.8354 15.6677ZM17.2348 13.7652L18.2348 14.7652L18.7652 14.2348L17.7652 13.2348L17.2348 13.7652ZM18.8354 14.6677L19.8354 12.6677L19.1646 12.3323L18.1646 14.3323L18.8354 14.6677ZM19.1646 12.6677L20.1646 14.6677L20.8354 14.3323L19.8354 12.3323L19.1646 12.6677ZM20.5 14.875H22.5V14.125H20.5V14.875ZM22.2348 14.7652L23.2348 15.7652L23.7652 15.2348L22.7652 14.2348L22.2348 14.7652ZM23.812 15.708L25.812 12.708L25.188 12.292L23.188 15.292L23.812 15.708ZM25.3323 12.8354L27.3323 13.8354L27.6677 13.1646L25.6677 12.1646L25.3323 12.8354ZM27.7652 13.7652L28.7652 12.7652L28.2348 12.2348L27.2348 13.2348L27.7652 13.7652ZM28.1442 12.6186L29.1442 15.6186L29.8558 15.3814L28.8558 12.3814L28.1442 12.6186ZM29.8354 15.6677L30.8354 13.6677L30.1646 13.3323L29.1646 15.3323L29.8354 15.6677ZM30.2348 13.7652L31.2348 14.7652L31.7652 14.2348L30.7652 13.2348L30.2348 13.7652ZM31.5 14.875H33.5V14.125H31.5V14.875ZM33.8354 14.6677L34.8354 12.6677L34.1646 12.3323L33.1646 14.3323L33.8354 14.6677ZM34.1442 12.6186L35.1442 15.6186L35.8558 15.3814L34.8558 12.3814L34.1442 12.6186ZM35.7652 15.7652L36.7652 14.7652L36.2348 14.2348L35.2348 15.2348L35.7652 15.7652ZM36.5 14.875H37.5V14.125H36.5V14.875Z" fill="white"/>
<circle cx="14.5" cy="8.5" r="0.5" fill="white"/>
<circle cx="16.5" cy="8.5" r="0.5" fill="white"/>
<circle cx="18.5" cy="8.5" r="0.5" fill="white"/>
<path d="M20.5 8C20.2239 8 20 8.22386 20 8.5C20 8.77614 20.2239 9 20.5 9V8ZM36.5 9C36.7761 9 37 8.77614 37 8.5C37 8.22386 36.7761 8 36.5 8V9ZM20.5 9H36.5V8H20.5V9Z" fill="white"/>
<line x1="29.375" y1="19" x2="29.375" y2="25" stroke="white" stroke-width="0.75"/>
<line x1="31.375" y1="17" x2="31.375" y2="25" stroke="white" stroke-width="0.75"/>
<line x1="33.625" y1="25" x2="33.625" y2="18" stroke="white" stroke-width="0.75"/>
<line x1="35.625" y1="25" x2="35.625" y2="22" stroke="white" stroke-width="0.75"/>
<line x1="37.625" y1="25" x2="37.625" y2="20" stroke="white" stroke-width="0.75"/>
</svg>
