<svg width="50" height="50" viewBox="0 0 50 50" fill="none" xmlns="http://www.w3.org/2000/svg">
<circle cx="25" cy="25" r="25" fill="#8DC63F"/>
<circle cx="10" cy="23" r="3.5" stroke="white"/>
<circle cx="10" cy="38" r="3.5" stroke="white"/>
<circle cx="25" cy="38" r="3.5" stroke="white"/>
<circle cx="39" cy="38" r="3.5" stroke="white"/>
<circle cx="25" cy="23" r="3.5" stroke="white"/>
<path d="M9.64645 17.8536C9.84171 18.0488 10.1583 18.0488 10.3536 17.8536L13.5355 14.6716C13.7308 14.4763 13.7308 14.1597 13.5355 13.9645C13.3403 13.7692 13.0237 13.7692 12.8284 13.9645L10 16.7929L7.17159 13.9645C6.97633 13.7692 6.65974 13.7692 6.46448 13.9645C6.26922 14.1597 6.26922 14.4763 6.46448 14.6716L9.64645 17.8536ZM14.5553 9.50309C13.3954 9.37418 12.4573 9.4291 11.7148 9.72242C10.9471 10.0257 10.4349 10.5652 10.1066 11.2947C9.78835 12.0018 9.64304 12.8857 9.57156 13.9024C9.49974 14.9237 9.50001 16.1307 9.5 17.5L10.5 17.5C10.5 16.1192 10.5003 14.9512 10.5691 13.9725C10.6382 12.9891 10.7742 12.248 11.0185 11.7051C11.2527 11.1847 11.5842 10.8492 12.0822 10.6525C12.6053 10.4458 13.3547 10.3758 14.4448 10.497L14.5553 9.50309Z" fill="white"/>
<path d="M39.3536 17.8536C39.1583 18.0488 38.8417 18.0488 38.6464 17.8536L35.4645 14.6716C35.2692 14.4763 35.2692 14.1597 35.4645 13.9645C35.6597 13.7692 35.9763 13.7692 36.1716 13.9645L39 16.7929L41.8284 13.9645C42.0237 13.7692 42.3403 13.7692 42.5355 13.9645C42.7308 14.1597 42.7308 14.4763 42.5355 14.6716L39.3536 17.8536ZM34.9636 9.79319C35.9889 9.71837 36.8275 9.77184 37.4937 10.0308C38.1897 10.3013 38.6583 10.7806 38.9572 11.4555C39.2442 12.1036 39.3731 12.9274 39.4364 13.9058C39.5002 14.8902 39.5 16.0868 39.5 17.5L38.5 17.5C38.5 16.0752 38.4998 14.9153 38.4385 13.9704C38.3769 13.0196 38.2558 12.3414 38.0428 11.8604C37.8417 11.4064 37.5604 11.1296 37.1314 10.9628C36.6725 10.7845 36.0112 10.7194 35.0364 10.7905L34.9636 9.79319Z" fill="white"/>
<path d="M14.5 8C14.5 7.72386 14.7239 7.5 15 7.5H35C35.2761 7.5 35.5 7.72386 35.5 8V12C35.5 12.2761 35.2761 12.5 35 12.5H15C14.7239 12.5 14.5 12.2761 14.5 12V8Z" stroke="#FFFDFD" stroke-linecap="round"/>
<path d="M24.6464 17.8536C24.8417 18.0488 25.1583 18.0488 25.3536 17.8536L28.5355 14.6716C28.7308 14.4763 28.7308 14.1597 28.5355 13.9645C28.3403 13.7692 28.0237 13.7692 27.8284 13.9645L25 16.7929L22.1716 13.9645C21.9763 13.7692 21.6597 13.7692 21.4645 13.9645C21.2692 14.1597 21.2692 14.4763 21.4645 14.6716L24.6464 17.8536ZM24.5 13V17.5H25.5V13H24.5Z" fill="white"/>
<circle cx="39" cy="23" r="3.5" stroke="white"/>
<path d="M9.64645 33.3536C9.84171 33.5488 10.1583 33.5488 10.3536 33.3536L13.5355 30.1716C13.7308 29.9763 13.7308 29.6597 13.5355 29.4645C13.3403 29.2692 13.0237 29.2692 12.8284 29.4645L10 32.2929L7.17157 29.4645C6.97631 29.2692 6.65973 29.2692 6.46447 29.4645C6.2692 29.6597 6.2692 29.9763 6.46447 30.1716L9.64645 33.3536ZM9.5 28V33H10.5V28H9.5Z" fill="white"/>
<path d="M24.6464 33.3536C24.8417 33.5488 25.1583 33.5488 25.3536 33.3536L28.5355 30.1716C28.7308 29.9763 28.7308 29.6597 28.5355 29.4645C28.3403 29.2692 28.0237 29.2692 27.8284 29.4645L25 32.2929L22.1716 29.4645C21.9763 29.2692 21.6597 29.2692 21.4645 29.4645C21.2692 29.6597 21.2692 29.9763 21.4645 30.1716L24.6464 33.3536ZM24.5 28V33H25.5V28H24.5Z" fill="white"/>
<path d="M38.6464 33.3536C38.8417 33.5488 39.1583 33.5488 39.3536 33.3536L42.5355 30.1716C42.7308 29.9763 42.7308 29.6597 42.5355 29.4645C42.3403 29.2692 42.0237 29.2692 41.8284 29.4645L39 32.2929L36.1716 29.4645C35.9763 29.2692 35.6597 29.2692 35.4645 29.4645C35.2692 29.6597 35.2692 29.9763 35.4645 30.1716L38.6464 33.3536ZM38.5 28V33H39.5V28H38.5Z" fill="white"/>
<circle cx="19" cy="10" r="1" fill="white"/>
<circle cx="25" cy="10" r="1" fill="white"/>
<circle cx="31" cy="10" r="1" fill="white"/>
</svg>
