<svg width="124" height="122" viewBox="0 0 124 122" fill="none" xmlns="http://www.w3.org/2000/svg">
<path d="M123.434 61C123.434 94.5487 95.9309 121.75 61.9985 121.75C28.0661 121.75 0.563232 94.5487 0.563232 61C0.563232 27.4513 28.0661 0.25 61.9985 0.25C95.9309 0.25 123.434 27.4513 123.434 61Z" fill="#D249E9"/>
<path d="M123.434 61C123.434 94.5487 95.9309 121.75 61.9985 121.75C28.0661 121.75 0.563232 94.5487 0.563232 61C0.563232 27.4513 28.0661 0.25 61.9985 0.25C95.9309 0.25 123.434 27.4513 123.434 61Z" fill="url(#paint0_radial)"/>
<path d="M123.434 61C123.434 94.5487 95.9309 121.75 61.9985 121.75C28.0661 121.75 0.563232 94.5487 0.563232 61C0.563232 27.4513 28.0661 0.25 61.9985 0.25C95.9309 0.25 123.434 27.4513 123.434 61Z" stroke="black" stroke-width="0.5"/>
<path d="M28.2016 45.4414H25.0981V54H23.3823V45.4414H20.3061V44.0469H28.2016V45.4414ZM30.9907 47.4102C31.533 46.7812 32.2189 46.4668 33.0483 46.4668C34.6251 46.4668 35.4249 47.3669 35.4477 49.167V54H33.7866V49.2285C33.7866 48.7181 33.6749 48.3581 33.4516 48.1484C33.2329 47.9342 32.9093 47.8271 32.4809 47.8271C31.8156 47.8271 31.3188 48.1234 30.9907 48.7158V54H29.3296V43.5H30.9907V47.4102ZM40.3901 54.1367C39.3374 54.1367 38.4829 53.8063 37.8266 53.1455C37.1749 52.4801 36.8491 51.596 36.8491 50.4932V50.2881C36.8491 49.5498 36.9904 48.8913 37.2729 48.3125C37.56 47.7292 37.9611 47.2757 38.476 46.9521C38.991 46.6286 39.5652 46.4668 40.1987 46.4668C41.2059 46.4668 41.9829 46.7881 42.5298 47.4307C43.0812 48.0732 43.3569 48.9824 43.3569 50.1582V50.8281H38.5239C38.574 51.4388 38.7768 51.9219 39.1323 52.2773C39.4923 52.6328 39.9435 52.8105 40.4858 52.8105C41.2469 52.8105 41.8667 52.5029 42.3452 51.8877L43.2407 52.7422C42.9445 53.1842 42.548 53.5283 42.0512 53.7744C41.559 54.016 41.0053 54.1367 40.3901 54.1367ZM40.1919 47.7998C39.7361 47.7998 39.367 47.9593 39.0844 48.2783C38.8064 48.5973 38.6287 49.0417 38.5512 49.6113H41.7163V49.4883C41.6798 48.9323 41.5317 48.513 41.2719 48.2305C41.0122 47.9434 40.6521 47.7998 40.1919 47.7998ZM48.2993 54V44.0469H51.7104C52.8361 44.0469 53.6928 44.2725 54.2807 44.7236C54.8686 45.1748 55.1626 45.847 55.1626 46.7402C55.1626 47.196 55.0395 47.6061 54.7934 47.9707C54.5473 48.3353 54.1873 48.6178 53.7133 48.8184C54.2511 48.9642 54.6658 49.2399 54.9575 49.6455C55.2537 50.0465 55.4018 50.5296 55.4018 51.0947C55.4018 52.029 55.101 52.7467 54.4995 53.248C53.9025 53.7493 53.0457 54 51.9292 54H48.2993ZM50.0288 49.5088V52.6191H51.9497C52.492 52.6191 52.9158 52.4847 53.2212 52.2158C53.5265 51.9469 53.6792 51.5732 53.6792 51.0947C53.6792 50.0602 53.1505 49.5316 52.0932 49.5088H50.0288ZM50.0288 48.2373H51.7241C52.2618 48.2373 52.6811 48.1165 52.9819 47.875C53.2872 47.6289 53.4399 47.2826 53.4399 46.8359C53.4399 46.3438 53.2986 45.9883 53.0161 45.7695C52.7381 45.5508 52.3029 45.4414 51.7104 45.4414H50.0288V48.2373ZM60.228 54.1367C59.1753 54.1367 58.3208 53.8063 57.6645 53.1455C57.0128 52.4801 56.687 51.596 56.687 50.4932V50.2881C56.687 49.5498 56.8283 48.8913 57.1108 48.3125C57.3979 47.7292 57.799 47.2757 58.3139 46.9521C58.8289 46.6286 59.4031 46.4668 60.0366 46.4668C61.0437 46.4668 61.8208 46.7881 62.3676 47.4307C62.9191 48.0732 63.1948 48.9824 63.1948 50.1582V50.8281H58.3618C58.4119 51.4388 58.6147 51.9219 58.9702 52.2773C59.3302 52.6328 59.7814 52.8105 60.3237 52.8105C61.0848 52.8105 61.7046 52.5029 62.1831 51.8877L63.0786 52.7422C62.7824 53.1842 62.3859 53.5283 61.8891 53.7744C61.3969 54.016 60.8432 54.1367 60.228 54.1367ZM60.0298 47.7998C59.574 47.7998 59.2049 47.9593 58.9223 48.2783C58.6443 48.5973 58.4666 49.0417 58.3891 49.6113H61.5542V49.4883C61.5177 48.9323 61.3696 48.513 61.1098 48.2305C60.8501 47.9434 60.49 47.7998 60.0298 47.7998ZM68.3628 48.1211C68.144 48.0846 67.9184 48.0664 67.686 48.0664C66.9249 48.0664 66.4122 48.3581 66.1479 48.9414V54H64.4868V46.6035H66.0727L66.1137 47.4307C66.5148 46.7881 67.0708 46.4668 67.7817 46.4668C68.0187 46.4668 68.2146 46.4987 68.3696 46.5625L68.3628 48.1211ZM70.9741 46.6035L71.0219 47.376C71.5415 46.7699 72.2524 46.4668 73.1548 46.4668C74.1437 46.4668 74.8204 46.8451 75.185 47.6016C75.7228 46.8451 76.4793 46.4668 77.4546 46.4668C78.2703 46.4668 78.8764 46.6924 79.2729 47.1436C79.674 47.5947 79.879 48.2601 79.8881 49.1396V54H78.227V49.1875C78.227 48.7181 78.1245 48.374 77.9194 48.1553C77.7143 47.9365 77.3748 47.8271 76.9008 47.8271C76.5226 47.8271 76.2127 47.9297 75.9712 48.1348C75.7342 48.3353 75.5678 48.5996 75.4721 48.9277L75.479 54H73.8178V49.1328C73.7951 48.2624 73.3507 47.8271 72.4848 47.8271C71.8195 47.8271 71.3478 48.0983 71.0698 48.6406V54H69.4087V46.6035H70.9741ZM86.0747 53.2754C85.587 53.8496 84.8943 54.1367 83.9966 54.1367C83.1945 54.1367 82.5861 53.902 82.1714 53.4326C81.7612 52.9632 81.5561 52.2842 81.5561 51.3955V46.6035H83.2173V51.375C83.2173 52.3138 83.6069 52.7832 84.3862 52.7832C85.1928 52.7832 85.7374 52.4938 86.02 51.915V46.6035H87.6811V54H86.1157L86.0747 53.2754ZM89.062 50.2471C89.062 49.1077 89.3263 48.194 89.8549 47.5059C90.3836 46.8132 91.0923 46.4668 91.9809 46.4668C92.7648 46.4668 93.3982 46.7402 93.8813 47.2871V43.5H95.5424V54H94.0385L93.9565 53.2344C93.4598 53.8359 92.7967 54.1367 91.9673 54.1367C91.1014 54.1367 90.3995 53.7881 89.8618 53.0908C89.3286 52.3936 89.062 51.4456 89.062 50.2471ZM90.7231 50.3906C90.7231 51.1426 90.8667 51.7305 91.1538 52.1543C91.4454 52.5736 91.8579 52.7832 92.3911 52.7832C93.0701 52.7832 93.5669 52.4801 93.8813 51.874V48.7158C93.576 48.1234 93.0838 47.8271 92.4048 47.8271C91.867 47.8271 91.4523 48.0413 91.1606 48.4697C90.8689 48.8936 90.7231 49.5339 90.7231 50.3906ZM101.695 54C101.622 53.8587 101.558 53.6286 101.503 53.3096C100.975 53.861 100.328 54.1367 99.562 54.1367C98.8191 54.1367 98.213 53.9248 97.7436 53.501C97.2742 53.0771 97.0395 52.5531 97.0395 51.9287C97.0395 51.1403 97.3312 50.5365 97.9145 50.1172C98.5024 49.6934 99.341 49.4814 100.43 49.4814H101.449V48.9961C101.449 48.6133 101.342 48.3079 101.127 48.0801C100.913 47.8477 100.587 47.7314 100.15 47.7314C99.7716 47.7314 99.4617 47.8271 99.2202 48.0186C98.9786 48.2054 98.8579 48.4447 98.8579 48.7363H97.1967C97.1967 48.3307 97.3312 47.9525 97.6001 47.6016C97.8689 47.2461 98.2335 46.9681 98.6938 46.7676C99.1587 46.5671 99.6759 46.4668 100.246 46.4668C101.111 46.4668 101.802 46.6855 102.317 47.123C102.832 47.556 103.096 48.1667 103.11 48.9551V52.291C103.11 52.9564 103.203 53.4873 103.39 53.8838V54H101.695ZM99.8696 52.8037C100.198 52.8037 100.505 52.724 100.792 52.5645C101.084 52.4049 101.303 52.1908 101.449 51.9219V50.5273H100.553C99.938 50.5273 99.4754 50.6344 99.1655 50.8486C98.8556 51.0628 98.7007 51.3659 98.7007 51.7578C98.7007 52.0768 98.8055 52.332 99.0151 52.5234C99.2293 52.7103 99.5141 52.8037 99.8696 52.8037ZM17.5854 61.4414H14.4819V70H12.7661V61.4414H9.68991V60.0469H17.5854V61.4414ZM22.1587 64.1211C21.9399 64.0846 21.7143 64.0664 21.4819 64.0664C20.7208 64.0664 20.2081 64.3581 19.9438 64.9414V70H18.2827V62.6035H19.8686L19.9096 63.4307C20.3107 62.7881 20.8667 62.4668 21.5776 62.4668C21.8146 62.4668 22.0105 62.4987 22.1655 62.5625L22.1587 64.1211ZM24.9751 70H23.3139V62.6035H24.9751V70ZM23.2114 60.6826C23.2114 60.4274 23.2911 60.2155 23.4506 60.0469C23.6147 59.8783 23.8471 59.7939 24.1479 59.7939C24.4487 59.7939 24.6811 59.8783 24.8452 60.0469C25.0092 60.2155 25.0913 60.4274 25.0913 60.6826C25.0913 60.9333 25.0092 61.1429 24.8452 61.3115C24.6811 61.4756 24.4487 61.5576 24.1479 61.5576C23.8471 61.5576 23.6147 61.4756 23.4506 61.3115C23.2911 61.1429 23.2114 60.9333 23.2114 60.6826ZM31.2094 70C31.1365 69.8587 31.0727 69.6286 31.018 69.3096C30.4894 69.861 29.8423 70.1367 29.0766 70.1367C28.3338 70.1367 27.7277 69.9248 27.2583 69.501C26.7889 69.0771 26.5542 68.5531 26.5542 67.9287C26.5542 67.1403 26.8458 66.5365 27.4292 66.1172C28.0171 65.6934 28.8556 65.4814 29.9448 65.4814H30.9633V64.9961C30.9633 64.6133 30.8562 64.3079 30.6421 64.0801C30.4279 63.8477 30.102 63.7314 29.6645 63.7314C29.2863 63.7314 28.9764 63.8271 28.7348 64.0186C28.4933 64.2054 28.3725 64.4447 28.3725 64.7363H26.7114C26.7114 64.3307 26.8458 63.9525 27.1147 63.6016C27.3836 63.2461 27.7482 62.9681 28.2085 62.7676C28.6733 62.5671 29.1906 62.4668 29.7602 62.4668C30.6261 62.4668 31.3165 62.6855 31.8315 63.123C32.3465 63.556 32.6108 64.1667 32.6245 64.9551V68.291C32.6245 68.9564 32.7179 69.4873 32.9048 69.8838V70H31.2094ZM29.3842 68.8037C29.7124 68.8037 30.02 68.724 30.3071 68.5645C30.5988 68.4049 30.8175 68.1908 30.9633 67.9219V66.5273H30.0678C29.4526 66.5273 28.99 66.6344 28.6801 66.8486C28.3702 67.0628 28.2153 67.3659 28.2153 67.7578C28.2153 68.0768 28.3201 68.332 28.5298 68.5234C28.7439 68.7103 29.0288 68.8037 29.3842 68.8037ZM35.9057 62.6035L35.9536 63.458C36.5005 62.7972 37.2182 62.4668 38.1069 62.4668C39.6473 62.4668 40.4311 63.3486 40.4585 65.1123V70H38.7973V65.208C38.7973 64.7386 38.6948 64.3923 38.4897 64.1689C38.2892 63.9411 37.9588 63.8271 37.4985 63.8271C36.8286 63.8271 36.3296 64.1302 36.0014 64.7363V70H34.3403V62.6035H35.9057ZM41.8667 66.2471C41.8667 65.0986 42.1355 64.1826 42.6733 63.499C43.2156 62.8109 43.9334 62.4668 44.8266 62.4668C45.6697 62.4668 46.3328 62.7607 46.8159 63.3486L46.8911 62.6035H48.3881V69.7744C48.3881 70.7451 48.0851 71.5107 47.479 72.0713C46.8774 72.6318 46.0639 72.9121 45.0385 72.9121C44.4962 72.9121 43.9653 72.7982 43.4458 72.5703C42.9308 72.347 42.5389 72.0531 42.27 71.6885L43.0561 70.6904C43.5665 71.2965 44.1954 71.5996 44.9428 71.5996C45.4943 71.5996 45.9295 71.4492 46.2485 71.1484C46.5675 70.8522 46.727 70.4147 46.727 69.8359V69.3369C46.2485 69.8701 45.6105 70.1367 44.813 70.1367C43.9471 70.1367 43.2384 69.7926 42.687 69.1045C42.1401 68.4163 41.8667 67.4639 41.8667 66.2471ZM43.521 66.3906C43.521 67.1335 43.6714 67.7191 43.9721 68.1475C44.2775 68.5713 44.699 68.7832 45.2368 68.7832C45.9067 68.7832 46.4034 68.4961 46.727 67.9219V64.668C46.4126 64.1074 45.9204 63.8271 45.2505 63.8271C44.7036 63.8271 44.2775 64.0436 43.9721 64.4766C43.6714 64.9095 43.521 65.5475 43.521 66.3906ZM51.8676 70H50.2065V59.5H51.8676V70ZM56.9399 70.1367C55.8872 70.1367 55.0327 69.8063 54.3764 69.1455C53.7247 68.4801 53.3989 67.596 53.3989 66.4932V66.2881C53.3989 65.5498 53.5402 64.8913 53.8227 64.3125C54.1098 63.7292 54.5109 63.2757 55.0258 62.9521C55.5408 62.6286 56.115 62.4668 56.7485 62.4668C57.7557 62.4668 58.5327 62.7881 59.0796 63.4307C59.631 64.0732 59.9067 64.9824 59.9067 66.1582V66.8281H55.0737C55.1238 67.4388 55.3266 67.9219 55.6821 68.2773C56.0421 68.6328 56.4933 68.8105 57.0356 68.8105C57.7967 68.8105 58.4165 68.5029 58.895 67.8877L59.7905 68.7422C59.4943 69.1842 59.0978 69.5283 58.601 69.7744C58.1089 70.016 57.5551 70.1367 56.9399 70.1367ZM56.7417 63.7998C56.2859 63.7998 55.9168 63.9593 55.6342 64.2783C55.3562 64.5973 55.1785 65.0417 55.101 65.6113H58.2661V65.4883C58.2296 64.9323 58.0815 64.513 57.8217 64.2305C57.562 63.9434 57.202 63.7998 56.7417 63.7998ZM64.3774 66.2334C64.3774 65.5088 64.521 64.8571 64.8081 64.2783C65.0952 63.695 65.4985 63.2484 66.018 62.9385C66.5376 62.624 67.1346 62.4668 67.809 62.4668C68.8071 62.4668 69.616 62.7881 70.2358 63.4307C70.8602 64.0732 71.1974 64.9255 71.2475 65.9873L71.2544 66.377C71.2544 67.1061 71.1131 67.7578 70.8305 68.332C70.5525 68.9062 70.1515 69.3506 69.6274 69.665C69.1079 69.9795 68.5063 70.1367 67.8227 70.1367C66.7791 70.1367 65.9428 69.7904 65.3139 69.0977C64.6896 68.4004 64.3774 67.473 64.3774 66.3154V66.2334ZM66.0385 66.377C66.0385 67.138 66.1958 67.735 66.5102 68.168C66.8247 68.5964 67.2622 68.8105 67.8227 68.8105C68.3833 68.8105 68.8185 68.5918 69.1284 68.1543C69.4428 67.7168 69.6001 67.0765 69.6001 66.2334C69.6001 65.486 69.4383 64.8936 69.1147 64.4561C68.7957 64.0186 68.3605 63.7998 67.809 63.7998C67.2667 63.7998 66.8361 64.0163 66.5171 64.4492C66.198 64.8776 66.0385 65.5202 66.0385 66.377ZM73.2436 70V63.834H72.1157V62.6035H73.2436V61.9268C73.2436 61.1064 73.4715 60.473 73.9272 60.0264C74.3829 59.5798 75.021 59.3564 75.8413 59.3564C76.1329 59.3564 76.4428 59.3975 76.771 59.4795L76.7299 60.7783C76.5477 60.7419 76.3357 60.7236 76.0942 60.7236C75.3012 60.7236 74.9048 61.1315 74.9048 61.9473V62.6035H76.4087V63.834H74.9048V70H73.2436ZM86.4712 67.4365C86.4712 66.999 86.3162 66.6618 86.0063 66.4248C85.701 66.1878 85.1473 65.9486 84.3452 65.707C83.5431 65.4655 82.9051 65.1966 82.4311 64.9004C81.5242 64.3307 81.0708 63.5879 81.0708 62.6719C81.0708 61.8698 81.3966 61.209 82.0483 60.6895C82.7046 60.1699 83.5545 59.9102 84.5981 59.9102C85.2908 59.9102 85.9083 60.0378 86.4507 60.293C86.993 60.5482 87.4191 60.9128 87.729 61.3867C88.0389 61.8561 88.1938 62.3779 88.1938 62.9521H86.4712C86.4712 62.4326 86.3071 62.027 85.979 61.7354C85.6554 61.4391 85.1906 61.291 84.5844 61.291C84.0193 61.291 83.5796 61.4118 83.2651 61.6533C82.9552 61.8949 82.8003 62.2321 82.8003 62.665C82.8003 63.0296 82.9689 63.335 83.3061 63.5811C83.6434 63.8226 84.1994 64.0596 84.9741 64.292C85.7488 64.5199 86.3709 64.7819 86.8403 65.0781C87.3097 65.3698 87.6538 65.707 87.8725 66.0898C88.0913 66.4681 88.2007 66.9124 88.2007 67.4229C88.2007 68.2523 87.8816 68.9131 87.2436 69.4053C86.6102 69.8929 85.7488 70.1367 84.6596 70.1367C83.9396 70.1367 83.2765 70.0046 82.6704 69.7402C82.0688 69.4714 81.5994 69.1022 81.2622 68.6328C80.9295 68.1634 80.7632 67.6165 80.7632 66.9922H82.4926C82.4926 67.5573 82.6795 67.9948 83.0532 68.3047C83.4269 68.6146 83.9624 68.7695 84.6596 68.7695C85.2612 68.7695 85.7124 68.6488 86.0132 68.4072C86.3185 68.1611 86.4712 67.8376 86.4712 67.4365ZM93.977 70C93.9041 69.8587 93.8403 69.6286 93.7856 69.3096C93.257 69.861 92.6098 70.1367 91.8442 70.1367C91.1014 70.1367 90.4952 69.9248 90.0258 69.501C89.5564 69.0771 89.3217 68.5531 89.3217 67.9287C89.3217 67.1403 89.6134 66.5365 90.1967 66.1172C90.7846 65.6934 91.6232 65.4814 92.7124 65.4814H93.7309V64.9961C93.7309 64.6133 93.6238 64.3079 93.4096 64.0801C93.1954 63.8477 92.8696 63.7314 92.4321 63.7314C92.0538 63.7314 91.7439 63.8271 91.5024 64.0186C91.2609 64.2054 91.1401 64.4447 91.1401 64.7363H89.479C89.479 64.3307 89.6134 63.9525 89.8823 63.6016C90.1512 63.2461 90.5158 62.9681 90.976 62.7676C91.4409 62.5671 91.9581 62.4668 92.5278 62.4668C93.3937 62.4668 94.0841 62.6855 94.5991 63.123C95.1141 63.556 95.3784 64.1667 95.3921 64.9551V68.291C95.3921 68.9564 95.4855 69.4873 95.6723 69.8838V70H93.977ZM92.1518 68.8037C92.4799 68.8037 92.7876 68.724 93.0747 68.5645C93.3663 68.4049 93.5851 68.1908 93.7309 67.9219V66.5273H92.8354C92.2202 66.5273 91.7576 66.6344 91.4477 66.8486C91.1378 67.0628 90.9829 67.3659 90.9829 67.7578C90.9829 68.0768 91.0877 68.332 91.2973 68.5234C91.5115 68.7103 91.7964 68.8037 92.1518 68.8037ZM98.8989 70H97.2378V59.5H98.8989V70ZM103.971 70.1367C102.918 70.1367 102.064 69.8063 101.408 69.1455C100.756 68.4801 100.43 67.596 100.43 66.4932V66.2881C100.43 65.5498 100.571 64.8913 100.854 64.3125C101.141 63.7292 101.542 63.2757 102.057 62.9521C102.572 62.6286 103.146 62.4668 103.78 62.4668C104.787 62.4668 105.564 62.7881 106.111 63.4307C106.662 64.0732 106.938 64.9824 106.938 66.1582V66.8281H102.105C102.155 67.4388 102.358 67.9219 102.713 68.2773C103.073 68.6328 103.525 68.8105 104.067 68.8105C104.828 68.8105 105.448 68.5029 105.926 67.8877L106.822 68.7422C106.526 69.1842 106.129 69.5283 105.632 69.7744C105.14 70.016 104.586 70.1367 103.971 70.1367ZM103.773 63.7998C103.317 63.7998 102.948 63.9593 102.665 64.2783C102.388 64.5973 102.21 65.0417 102.132 65.6113H105.297V65.4883C105.261 64.9323 105.113 64.513 104.853 64.2305C104.593 63.9434 104.233 63.7998 103.773 63.7998ZM112.379 67.9902C112.379 67.694 112.256 67.4684 112.01 67.3135C111.769 67.1585 111.365 67.0218 110.8 66.9033C110.235 66.7848 109.763 66.6344 109.385 66.4521C108.556 66.0511 108.141 65.4701 108.141 64.709C108.141 64.071 108.41 63.5378 108.948 63.1094C109.485 62.681 110.169 62.4668 110.999 62.4668C111.883 62.4668 112.596 62.6855 113.138 63.123C113.685 63.5605 113.958 64.1279 113.958 64.8252H112.297C112.297 64.5062 112.179 64.2419 111.942 64.0322C111.705 63.818 111.39 63.7109 110.999 63.7109C110.634 63.7109 110.335 63.7952 110.103 63.9639C109.875 64.1325 109.761 64.3581 109.761 64.6406C109.761 64.8958 109.868 65.0941 110.082 65.2354C110.297 65.3766 110.73 65.5202 111.381 65.666C112.033 65.8073 112.543 65.9782 112.913 66.1787C113.286 66.3747 113.562 66.6117 113.74 66.8896C113.922 67.1676 114.013 67.5049 114.013 67.9014C114.013 68.5667 113.737 69.1068 113.186 69.5215C112.635 69.9316 111.912 70.1367 111.019 70.1367C110.413 70.1367 109.873 70.0273 109.399 69.8086C108.925 69.5898 108.556 69.2891 108.291 68.9062C108.027 68.5234 107.895 68.111 107.895 67.6689H109.508C109.531 68.0609 109.679 68.3639 109.953 68.5781C110.226 68.7878 110.588 68.8926 111.04 68.8926C111.477 68.8926 111.81 68.8105 112.038 68.6465C112.265 68.4779 112.379 68.2591 112.379 67.9902Z" fill="black"/>
<defs>
<radialGradient id="paint0_radial" cx="0" cy="0" r="1" gradientUnits="userSpaceOnUse" gradientTransform="translate(63.0097 58) rotate(90) scale(159 87.032)">
<stop stop-color="#DEDCDC"/>
<stop offset="1" stop-color="#DEDCDC" stop-opacity="0"/>
</radialGradient>
</defs>
</svg>
