<svg width="169" height="151" viewBox="0 0 169 151" fill="none" xmlns="http://www.w3.org/2000/svg">
<g filter="url(#filter0_d)">
<path d="M84.253 0L157.218 113.25H11.2878L84.253 0Z" fill="#2BB885"/>
<path d="M11.9755 112.875L84.253 0.692388L156.531 112.875H11.9755Z" stroke="black" stroke-width="0.75"/>
</g>
<path d="M57.0993 57.4943H60.2096V58.671H55.6344V51.5616H57.0993V57.4943ZM63.3932 58.7687C62.6185 58.7687 61.987 58.531 61.4987 58.0558C61.0137 57.5805 60.7712 56.9474 60.7712 56.1564V56.0197C60.7712 55.4891 60.8737 55.0154 61.0788 54.5988C61.2839 54.1788 61.5736 53.8566 61.9479 53.632C62.3255 53.4041 62.7552 53.2902 63.237 53.2902C63.9596 53.2902 64.5277 53.518 64.9411 53.9738C65.3577 54.4295 65.5661 55.0756 65.5661 55.9122V56.4884H62.2018C62.2474 56.8335 62.3841 57.1101 62.612 57.3185C62.8431 57.5268 63.1344 57.631 63.486 57.631C64.0296 57.631 64.4544 57.434 64.7604 57.0402L65.4538 57.8165C65.2422 58.116 64.9557 58.3504 64.5944 58.5197C64.2331 58.6857 63.8327 58.7687 63.3932 58.7687ZM63.2321 54.4327C62.9521 54.4327 62.7243 54.5271 62.5485 54.7159C62.376 54.9047 62.2653 55.1749 62.2165 55.5265H64.1794V55.4142C64.1728 55.1017 64.0882 54.8608 63.9255 54.6915C63.7627 54.519 63.5316 54.4327 63.2321 54.4327ZM69.4333 58.671C69.3682 58.5441 69.321 58.3862 69.2917 58.1974C68.9499 58.5782 68.5055 58.7687 67.9587 58.7687C67.4411 58.7687 67.0114 58.6189 66.6696 58.3195C66.3311 58.02 66.1618 57.6424 66.1618 57.1866C66.1618 56.6267 66.3685 56.1971 66.7819 55.8976C67.1986 55.5981 67.7992 55.4467 68.5837 55.4435H69.2331V55.1407C69.2331 54.8966 69.1696 54.7013 69.0426 54.5548C68.9189 54.4083 68.722 54.3351 68.4518 54.3351C68.2142 54.3351 68.027 54.392 67.8903 54.506C67.7568 54.6199 67.6901 54.7762 67.6901 54.9747H66.279C66.279 54.6687 66.3734 54.3855 66.5622 54.1251C66.751 53.8647 67.0179 53.6613 67.363 53.5148C67.708 53.365 68.0954 53.2902 68.5251 53.2902C69.1761 53.2902 69.6921 53.4545 70.0729 53.7833C70.457 54.1088 70.6491 54.5678 70.6491 55.1603V57.4503C70.6523 57.9516 70.7223 58.3309 70.859 58.588V58.671H69.4333ZM68.2663 57.6896C68.4746 57.6896 68.6667 57.644 68.8424 57.5529C69.0182 57.4585 69.1484 57.3331 69.2331 57.1769V56.2687H68.7057C67.9993 56.2687 67.6234 56.5128 67.5778 57.0011L67.5729 57.0841C67.5729 57.2599 67.6348 57.4047 67.7585 57.5187C67.8822 57.6326 68.0514 57.6896 68.2663 57.6896ZM74.7018 54.7111C74.5098 54.685 74.3405 54.672 74.194 54.672C73.6602 54.672 73.3102 54.8527 73.1442 55.214V58.671H71.7331V53.3878H73.0661L73.1051 54.0177C73.3883 53.5327 73.7806 53.2902 74.2819 53.2902C74.4381 53.2902 74.5846 53.3113 74.7214 53.3536L74.7018 54.7111ZM76.6842 53.3878L76.7282 53.9982C77.1058 53.5262 77.612 53.2902 78.2467 53.2902C78.8066 53.2902 79.2233 53.4545 79.4967 53.7833C79.7702 54.1121 79.9102 54.6036 79.9167 55.2579V58.671H78.5055V55.2921C78.5055 54.9926 78.4404 54.7762 78.3102 54.6427C78.18 54.506 77.9635 54.4376 77.6608 54.4376C77.2637 54.4376 76.9658 54.6069 76.7673 54.9454V58.671H75.3561V53.3878H76.6842ZM82.4801 58.671H81.0641V53.3878H82.4801V58.671ZM80.9811 52.0206C80.9811 51.809 81.0511 51.6349 81.1911 51.4982C81.3343 51.3615 81.528 51.2931 81.7721 51.2931C82.013 51.2931 82.2051 51.3615 82.3483 51.4982C82.4915 51.6349 82.5631 51.809 82.5631 52.0206C82.5631 52.2355 82.4899 52.4113 82.3434 52.548C82.2002 52.6847 82.0098 52.7531 81.7721 52.7531C81.5345 52.7531 81.3424 52.6847 81.196 52.548C81.0527 52.4113 80.9811 52.2355 80.9811 52.0206ZM84.946 53.3878L84.9899 53.9982C85.3675 53.5262 85.8737 53.2902 86.5085 53.2902C87.0684 53.2902 87.485 53.4545 87.7585 53.7833C88.0319 54.1121 88.1719 54.6036 88.1784 55.2579V58.671H86.7673V55.2921C86.7673 54.9926 86.7021 54.7762 86.5719 54.6427C86.4417 54.506 86.2253 54.4376 85.9225 54.4376C85.5254 54.4376 85.2275 54.6069 85.029 54.9454V58.671H83.6178V53.3878H84.946ZM89.0475 55.9904C89.0475 55.1798 89.2396 54.5271 89.6237 54.0323C90.0111 53.5376 90.5319 53.2902 91.1862 53.2902C91.7656 53.2902 92.2165 53.4887 92.5387 53.8859L92.5973 53.3878H93.8766V58.4952C93.8766 58.9575 93.7708 59.3595 93.5592 59.7013C93.3509 60.0431 93.0563 60.3035 92.6755 60.4825C92.2946 60.6616 91.8486 60.7511 91.3376 60.7511C90.9502 60.7511 90.5726 60.673 90.2048 60.5167C89.8369 60.3637 89.5586 60.1652 89.3698 59.921L89.9948 59.0616C90.3464 59.4555 90.7728 59.6525 91.2741 59.6525C91.6484 59.6525 91.9398 59.5516 92.1481 59.3497C92.3564 59.1512 92.4606 58.868 92.4606 58.5001V58.2169C92.1351 58.5848 91.707 58.7687 91.1764 58.7687C90.5417 58.7687 90.0273 58.5213 89.6335 58.0265C89.2428 57.5284 89.0475 56.8693 89.0475 56.049V55.9904ZM90.4587 56.0929C90.4587 56.5714 90.5547 56.9474 90.7467 57.2208C90.9388 57.491 91.2025 57.6261 91.5378 57.6261C91.9674 57.6261 92.2751 57.465 92.4606 57.1427V54.921C92.2718 54.5988 91.9674 54.4376 91.5475 54.4376C91.209 54.4376 90.9421 54.576 90.7467 54.8527C90.5547 55.1294 90.4587 55.5428 90.4587 56.0929ZM97.2604 56.757C97.2604 56.4282 97.3516 56.1238 97.5339 55.8439C97.7194 55.5639 98.0579 55.2531 98.5495 54.9113C98.3379 54.6281 98.1719 54.3628 98.0514 54.1154C97.931 53.8647 97.8708 53.6043 97.8708 53.3341C97.8708 52.7807 98.0449 52.3315 98.3932 51.9865C98.7448 51.6381 99.2168 51.464 99.8092 51.464C100.34 51.464 100.774 51.6219 101.113 51.9376C101.455 52.2534 101.626 52.6473 101.626 53.1193C101.626 53.6857 101.339 54.1853 100.766 54.6183L100.219 55.0138L101.445 56.4396C101.637 56.062 101.733 55.6453 101.733 55.1896H102.934C102.934 56.1141 102.721 56.8628 102.295 57.4357L103.359 58.671H101.757L101.391 58.2511C100.867 58.5962 100.265 58.7687 99.5846 58.7687C98.8815 58.7687 98.3184 58.5848 97.8952 58.2169C97.472 57.8458 97.2604 57.3592 97.2604 56.757ZM99.653 57.6359C99.9915 57.6359 100.312 57.5415 100.615 57.3527L99.2135 55.7316L99.111 55.8048C98.8213 56.0522 98.6764 56.3435 98.6764 56.6788C98.6764 56.962 98.7659 57.1932 98.945 57.3722C99.1273 57.548 99.3633 57.6359 99.653 57.6359ZM99.1354 53.3146C99.1354 53.5587 99.2786 53.8663 99.5651 54.2374L99.9411 53.9884C100.133 53.8647 100.265 53.7443 100.337 53.6271C100.411 53.5099 100.449 53.3699 100.449 53.2072C100.449 53.0444 100.389 52.9028 100.268 52.7823C100.148 52.6619 99.9932 52.6017 99.8044 52.6017C99.6025 52.6017 99.4398 52.6668 99.3161 52.797C99.1956 52.9272 99.1354 53.0997 99.1354 53.3146Z" fill="white"/>
<path d="M53.2577 68.6053V61.4959H55.4452C56.0702 61.4959 56.6285 61.6375 57.12 61.9207C57.6148 62.2007 58.0006 62.6011 58.2773 63.1219C58.5539 63.6395 58.6923 64.2287 58.6923 64.8895V65.2166C58.6923 65.8774 58.5556 66.465 58.2821 66.9793C58.012 67.4936 57.6295 67.8924 57.1347 68.1756C56.6399 68.4588 56.0816 68.602 55.4599 68.6053H53.2577ZM54.7226 62.6824V67.4285H55.4306C56.0035 67.4285 56.4413 67.2414 56.7441 66.867C57.0468 66.4927 57.2014 65.9572 57.2079 65.2606V64.8846C57.2079 64.1619 57.0582 63.6151 56.7587 63.244C56.4592 62.8696 56.0214 62.6824 55.4452 62.6824H54.7226ZM62.1005 68.7029C61.3258 68.7029 60.6942 68.4653 60.206 67.9901C59.7209 67.5148 59.4784 66.8817 59.4784 66.0906V65.9539C59.4784 65.4233 59.581 64.9497 59.786 64.533C59.9911 64.1131 60.2808 63.7908 60.6552 63.5662C61.0328 63.3384 61.4625 63.2244 61.9442 63.2244C62.6669 63.2244 63.2349 63.4523 63.6483 63.908C64.065 64.3637 64.2733 65.0099 64.2733 65.8465V66.4227H60.9091C60.9547 66.7677 61.0914 67.0444 61.3192 67.2527C61.5504 67.4611 61.8417 67.5652 62.1933 67.5652C62.7369 67.5652 63.1617 67.3683 63.4677 66.9744L64.161 67.7508C63.9495 68.0503 63.663 68.2846 63.3017 68.4539C62.9403 68.6199 62.5399 68.7029 62.1005 68.7029ZM61.9394 64.367C61.6594 64.367 61.4316 64.4614 61.2558 64.6502C61.0832 64.839 60.9726 65.1092 60.9237 65.4608H62.8866V65.3484C62.8801 65.0359 62.7955 64.7951 62.6327 64.6258C62.47 64.4533 62.2388 64.367 61.9394 64.367ZM66.9882 66.8817L67.9696 63.3221H69.4442L67.662 68.6053H66.3144L64.5321 63.3221H66.0067L66.9882 66.8817ZM72.4325 68.7029C71.6578 68.7029 71.0263 68.4653 70.538 67.9901C70.053 67.5148 69.8105 66.8817 69.8105 66.0906V65.9539C69.8105 65.4233 69.913 64.9497 70.1181 64.533C70.3232 64.1131 70.6129 63.7908 70.9872 63.5662C71.3648 63.3384 71.7945 63.2244 72.2763 63.2244C72.9989 63.2244 73.567 63.4523 73.9804 63.908C74.397 64.3637 74.6054 65.0099 74.6054 65.8465V66.4227H71.2411C71.2867 66.7677 71.4234 67.0444 71.6513 67.2527C71.8824 67.4611 72.1737 67.5652 72.5253 67.5652C73.0689 67.5652 73.4937 67.3683 73.7997 66.9744L74.4931 67.7508C74.2815 68.0503 73.995 68.2846 73.6337 68.4539C73.2724 68.6199 72.872 68.7029 72.4325 68.7029ZM72.2714 64.367C71.9914 64.367 71.7636 64.4614 71.5878 64.6502C71.4153 64.839 71.3046 65.1092 71.2558 65.4608H73.2187V65.3484C73.2121 65.0359 73.1275 64.7951 72.9648 64.6258C72.802 64.4533 72.5709 64.367 72.2714 64.367ZM76.9003 68.6053H75.4843V61.1053H76.9003V68.6053ZM77.8476 65.9149C77.8476 65.3908 77.9485 64.9236 78.1503 64.5135C78.3521 64.1033 78.6418 63.7859 79.0194 63.5613C79.4003 63.3367 79.8414 63.2244 80.3427 63.2244C81.0556 63.2244 81.6366 63.4425 82.0858 63.8787C82.5383 64.3149 82.7906 64.9074 82.8427 65.6561L82.8524 66.0174C82.8524 66.8279 82.6262 67.479 82.1737 67.9705C81.7213 68.4588 81.1142 68.7029 80.3524 68.7029C79.5907 68.7029 78.982 68.4588 78.5263 67.9705C78.0738 67.4822 77.8476 66.8182 77.8476 65.9783V65.9149ZM79.2587 66.0174C79.2587 66.5187 79.3531 66.9028 79.5419 67.1697C79.7307 67.4334 80.0009 67.5652 80.3524 67.5652C80.6942 67.5652 80.9612 67.435 81.1532 67.1746C81.3453 66.9109 81.4413 66.491 81.4413 65.9149C81.4413 65.4233 81.3453 65.0425 81.1532 64.7723C80.9612 64.5021 80.691 64.367 80.3427 64.367C79.9976 64.367 79.7307 64.5021 79.5419 64.7723C79.3531 65.0392 79.2587 65.4542 79.2587 66.0174ZM88.4774 66.0125C88.4774 66.8263 88.2919 67.479 87.9208 67.9705C87.553 68.4588 87.0549 68.7029 86.4267 68.7029C85.8928 68.7029 85.4615 68.5174 85.1327 68.1463V70.6365H83.7216V63.3221H85.0302L85.079 63.8397C85.4208 63.4295 85.8668 63.2244 86.4169 63.2244C87.0679 63.2244 87.5741 63.4653 87.9355 63.9471C88.2968 64.4289 88.4774 65.0929 88.4774 65.9393V66.0125ZM87.0663 65.91C87.0663 65.4184 86.9784 65.0392 86.8026 64.7723C86.6301 64.5054 86.3778 64.3719 86.0458 64.3719C85.6031 64.3719 85.2987 64.5412 85.1327 64.8797V67.0428C85.3052 67.3911 85.6129 67.5652 86.0556 67.5652C86.7294 67.5652 87.0663 67.0135 87.0663 65.91ZM90.6796 63.3221L90.7235 63.9129C91.0979 63.4539 91.6041 63.2244 92.2421 63.2244C92.9224 63.2244 93.3896 63.493 93.6435 64.0301C94.0146 63.493 94.5435 63.2244 95.2304 63.2244C95.8033 63.2244 96.2297 63.3921 96.5097 63.7274C96.7896 64.0594 96.9296 64.5607 96.9296 65.2313V68.6053H95.5136V65.2361C95.5136 64.9367 95.455 64.7186 95.3378 64.5818C95.2206 64.4419 95.0139 64.3719 94.7177 64.3719C94.2945 64.3719 94.0015 64.5737 93.8388 64.9774L93.8437 68.6053H92.4325V65.241C92.4325 64.935 92.3723 64.7137 92.2519 64.577C92.1314 64.4402 91.9263 64.3719 91.6366 64.3719C91.2362 64.3719 90.9465 64.5379 90.7675 64.8699V68.6053H89.3564V63.3221H90.6796ZM100.45 68.7029C99.6754 68.7029 99.0439 68.4653 98.5556 67.9901C98.0705 67.5148 97.828 66.8817 97.828 66.0906V65.9539C97.828 65.4233 97.9306 64.9497 98.1357 64.533C98.3407 64.1131 98.6304 63.7908 99.0048 63.5662C99.3824 63.3384 99.8121 63.2244 100.294 63.2244C101.017 63.2244 101.585 63.4523 101.998 63.908C102.415 64.3637 102.623 65.0099 102.623 65.8465V66.4227H99.2587C99.3043 66.7677 99.441 67.0444 99.6689 67.2527C99.9 67.4611 100.191 67.5652 100.543 67.5652C101.086 67.5652 101.511 67.3683 101.817 66.9744L102.511 67.7508C102.299 68.0503 102.013 68.2846 101.651 68.4539C101.29 68.6199 100.89 68.7029 100.45 68.7029ZM100.289 64.367C100.009 64.367 99.7812 64.4614 99.6054 64.6502C99.4329 64.839 99.3222 65.1092 99.2733 65.4608H101.236V65.3484C101.23 65.0359 101.145 64.7951 100.982 64.6258C100.82 64.4533 100.588 64.367 100.289 64.367ZM104.727 63.3221L104.771 63.9324C105.149 63.4604 105.655 63.2244 106.29 63.2244C106.85 63.2244 107.267 63.3888 107.54 63.7176C107.813 64.0464 107.953 64.5379 107.96 65.1922V68.6053H106.549V65.2264C106.549 64.9269 106.484 64.7104 106.353 64.577C106.223 64.4402 106.007 64.3719 105.704 64.3719C105.307 64.3719 105.009 64.5412 104.81 64.8797V68.6053H103.399V63.3221H104.727ZM110.724 62.0233V63.3221H111.627V64.3572H110.724V66.994C110.724 67.1893 110.761 67.3292 110.836 67.4139C110.911 67.4985 111.054 67.5408 111.266 67.5408C111.422 67.5408 111.56 67.5294 111.681 67.5067V68.576C111.404 68.6606 111.119 68.7029 110.826 68.7029C109.836 68.7029 109.332 68.2033 109.312 67.2039V64.3572H108.541V63.3221H109.312V62.0233H110.724Z" fill="white"/>
<path d="M56.3315 80.1465C56.2788 80.5977 56.1118 80.9463 55.8306 81.1924C55.5513 81.4365 55.1792 81.5586 54.7143 81.5586C54.2104 81.5586 53.8061 81.3779 53.5015 81.0166C53.1987 80.6553 53.0473 80.1719 53.0473 79.5664V79.1562C53.0473 78.7598 53.1177 78.4111 53.2583 78.1104C53.4009 77.8096 53.602 77.5791 53.8618 77.4189C54.1216 77.2568 54.4223 77.1758 54.7641 77.1758C55.2173 77.1758 55.5806 77.3027 55.854 77.5566C56.1274 77.8086 56.2866 78.1582 56.3315 78.6055H55.7661C55.7173 78.2656 55.6108 78.0195 55.4468 77.8672C55.2847 77.7148 55.0571 77.6387 54.7641 77.6387C54.4048 77.6387 54.1225 77.7715 53.9175 78.0371C53.7143 78.3027 53.6128 78.6807 53.6128 79.1709V79.584C53.6128 80.0469 53.7095 80.415 53.9028 80.6885C54.0962 80.9619 54.3667 81.0986 54.7143 81.0986C55.0268 81.0986 55.2661 81.0283 55.4321 80.8877C55.6001 80.7451 55.7114 80.498 55.7661 80.1465H56.3315ZM58.9741 81.1865C58.7632 81.4346 58.4536 81.5586 58.0454 81.5586C57.7075 81.5586 57.4497 81.4609 57.272 81.2656C57.0962 81.0684 57.0073 80.7773 57.0054 80.3926V78.3301H57.5473V80.3779C57.5473 80.8584 57.7427 81.0986 58.1333 81.0986C58.5473 81.0986 58.8227 80.9443 58.9595 80.6357V78.3301H59.5015V81.5H58.9858L58.9741 81.1865ZM61.8598 78.8164C61.7778 78.8027 61.689 78.7959 61.5932 78.7959C61.2378 78.7959 60.9966 78.9473 60.8696 79.25V81.5H60.3276V78.3301H60.855L60.8638 78.6963C61.0415 78.4131 61.2934 78.2715 61.6196 78.2715C61.7251 78.2715 61.8052 78.2852 61.8598 78.3125V78.8164ZM63.8931 78.8164C63.811 78.8027 63.7222 78.7959 63.6265 78.7959C63.271 78.7959 63.0298 78.9473 62.9028 79.25V81.5H62.3608V78.3301H62.8882L62.897 78.6963C63.0747 78.4131 63.3266 78.2715 63.6528 78.2715C63.7583 78.2715 63.8384 78.2852 63.8931 78.3125V78.8164ZM64.9829 81.5H64.4409V78.3301H64.9829V81.5ZM64.397 77.4893C64.397 77.4014 64.4233 77.3271 64.4761 77.2666C64.5307 77.2061 64.6108 77.1758 64.7163 77.1758C64.8218 77.1758 64.9018 77.2061 64.9565 77.2666C65.0112 77.3271 65.0386 77.4014 65.0386 77.4893C65.0386 77.5771 65.0112 77.6504 64.9565 77.709C64.9018 77.7676 64.8218 77.7969 64.7163 77.7969C64.6108 77.7969 64.5307 77.7676 64.4761 77.709C64.4233 77.6504 64.397 77.5771 64.397 77.4893ZM67.1245 81.1162C67.3179 81.1162 67.4868 81.0576 67.6313 80.9404C67.7759 80.8232 67.8559 80.6768 67.8716 80.501H68.3843C68.3745 80.6826 68.312 80.8555 68.1968 81.0195C68.0815 81.1836 67.9272 81.3145 67.7339 81.4121C67.5425 81.5098 67.3393 81.5586 67.1245 81.5586C66.6929 81.5586 66.3491 81.415 66.0932 81.1279C65.8393 80.8389 65.7124 80.4443 65.7124 79.9443V79.8535C65.7124 79.5449 65.769 79.2705 65.8823 79.0303C65.9956 78.79 66.1577 78.6035 66.3686 78.4707C66.5815 78.3379 66.8325 78.2715 67.1216 78.2715C67.477 78.2715 67.772 78.3779 68.0063 78.5908C68.2427 78.8037 68.3686 79.0801 68.3843 79.4199H67.8716C67.8559 79.2148 67.7778 79.0469 67.6372 78.916C67.4985 78.7832 67.3266 78.7168 67.1216 78.7168C66.8462 78.7168 66.6323 78.8164 66.48 79.0156C66.3296 79.2129 66.2544 79.499 66.2544 79.874V79.9766C66.2544 80.3418 66.3296 80.623 66.48 80.8203C66.6304 81.0176 66.8452 81.1162 67.1245 81.1162ZM70.9507 81.1865C70.7397 81.4346 70.4302 81.5586 70.022 81.5586C69.6841 81.5586 69.4263 81.4609 69.2485 81.2656C69.0727 81.0684 68.9839 80.7773 68.9819 80.3926V78.3301H69.5239V80.3779C69.5239 80.8584 69.7192 81.0986 70.1098 81.0986C70.5239 81.0986 70.7993 80.9443 70.936 80.6357V78.3301H71.478V81.5H70.9624L70.9507 81.1865ZM72.8931 81.5H72.3511V77H72.8931V81.5ZM75.7202 81.1865C75.5093 81.4346 75.1997 81.5586 74.7915 81.5586C74.4536 81.5586 74.1958 81.4609 74.0181 81.2656C73.8423 81.0684 73.7534 80.7773 73.7515 80.3926V78.3301H74.2934V80.3779C74.2934 80.8584 74.4888 81.0986 74.8794 81.0986C75.2934 81.0986 75.5688 80.9443 75.7056 80.6357V78.3301H76.2475V81.5H75.7319L75.7202 81.1865ZM77.5835 78.3301L77.5981 78.6816C77.8306 78.4082 78.144 78.2715 78.5386 78.2715C78.9819 78.2715 79.2837 78.4414 79.4438 78.7812C79.5493 78.6289 79.686 78.5059 79.854 78.4121C80.0239 78.3184 80.2241 78.2715 80.4546 78.2715C81.1499 78.2715 81.5034 78.6396 81.5151 79.376V81.5H80.9731V79.4082C80.9731 79.1816 80.9214 79.0127 80.8179 78.9014C80.7143 78.7881 80.5405 78.7314 80.2964 78.7314C80.0952 78.7314 79.9282 78.792 79.7954 78.9131C79.6626 79.0322 79.5854 79.1934 79.564 79.3965V81.5H79.019V79.4229C79.019 78.9619 78.7934 78.7314 78.3423 78.7314C77.9868 78.7314 77.7436 78.8828 77.6128 79.1855V81.5H77.0708V78.3301H77.5835ZM83.9087 81.5V77.2344H85.1128C85.4839 77.2344 85.812 77.3164 86.0972 77.4805C86.3823 77.6445 86.602 77.8779 86.7563 78.1807C86.9126 78.4834 86.9917 78.8311 86.9936 79.2236V79.4961C86.9936 79.8984 86.9155 80.251 86.7593 80.5537C86.605 80.8564 86.3833 81.0889 86.0942 81.251C85.8071 81.4131 85.4722 81.4961 85.0893 81.5H83.9087ZM84.4712 77.6973V81.04H85.063C85.4966 81.04 85.8335 80.9053 86.0737 80.6357C86.3159 80.3662 86.437 79.9824 86.437 79.4844V79.2354C86.437 78.751 86.3227 78.375 86.0942 78.1074C85.8677 77.8379 85.5454 77.7012 85.1274 77.6973H84.4712ZM89.0766 81.5586C88.647 81.5586 88.2973 81.418 88.0278 81.1367C87.7583 80.8535 87.6235 80.4756 87.6235 80.0029V79.9033C87.6235 79.5889 87.6831 79.3086 87.8022 79.0625C87.9233 78.8145 88.0913 78.6211 88.3061 78.4824C88.5229 78.3418 88.7573 78.2715 89.0093 78.2715C89.4214 78.2715 89.7417 78.4072 89.9702 78.6787C90.1987 78.9502 90.313 79.3389 90.313 79.8447V80.0703H88.1655C88.1733 80.3828 88.2641 80.6357 88.438 80.8291C88.6138 81.0205 88.8364 81.1162 89.1059 81.1162C89.2973 81.1162 89.4595 81.0771 89.5923 80.999C89.7251 80.9209 89.8413 80.8174 89.9409 80.6885L90.272 80.9463C90.0063 81.3545 89.6079 81.5586 89.0766 81.5586ZM89.0093 78.7168C88.7905 78.7168 88.6069 78.7969 88.4585 78.957C88.31 79.1152 88.2182 79.3379 88.1831 79.625H89.771V79.584C89.7554 79.3086 89.6811 79.0957 89.5483 78.9453C89.4155 78.793 89.2358 78.7168 89.0093 78.7168ZM92.7886 80.6592C92.7886 80.5127 92.7329 80.3994 92.6216 80.3193C92.5122 80.2373 92.3198 80.167 92.0444 80.1084C91.771 80.0498 91.5532 79.9795 91.3911 79.8975C91.2309 79.8154 91.1118 79.7178 91.0337 79.6045C90.9575 79.4912 90.9194 79.3564 90.9194 79.2002C90.9194 78.9404 91.0288 78.7207 91.2475 78.541C91.4682 78.3613 91.7495 78.2715 92.0913 78.2715C92.4507 78.2715 92.7417 78.3643 92.9643 78.5498C93.1889 78.7354 93.3013 78.9727 93.3013 79.2617H92.7563C92.7563 79.1133 92.6929 78.9854 92.5659 78.8779C92.4409 78.7705 92.2827 78.7168 92.0913 78.7168C91.894 78.7168 91.7397 78.7598 91.6284 78.8457C91.5171 78.9316 91.4614 79.0439 91.4614 79.1826C91.4614 79.3135 91.5132 79.4121 91.6167 79.4785C91.7202 79.5449 91.9067 79.6084 92.1763 79.6689C92.4477 79.7295 92.6675 79.8018 92.8354 79.8857C93.0034 79.9697 93.1274 80.0713 93.2075 80.1904C93.2895 80.3076 93.3306 80.4512 93.3306 80.6211C93.3306 80.9043 93.2173 81.1318 92.9907 81.3037C92.7641 81.4736 92.4702 81.5586 92.1089 81.5586C91.855 81.5586 91.6304 81.5137 91.435 81.4238C91.2397 81.334 91.0864 81.209 90.9751 81.0488C90.8657 80.8867 90.811 80.7119 90.811 80.5244H91.353C91.3628 80.7061 91.435 80.8506 91.5698 80.958C91.7065 81.0635 91.8862 81.1162 92.1089 81.1162C92.3139 81.1162 92.478 81.0752 92.6011 80.9932C92.7261 80.9092 92.7886 80.7979 92.7886 80.6592ZM94.6255 81.5H94.0835V78.3301H94.6255V81.5ZM94.0395 77.4893C94.0395 77.4014 94.0659 77.3271 94.1186 77.2666C94.1733 77.2061 94.2534 77.1758 94.3589 77.1758C94.4643 77.1758 94.5444 77.2061 94.5991 77.2666C94.6538 77.3271 94.6811 77.4014 94.6811 77.4893C94.6811 77.5771 94.6538 77.6504 94.5991 77.709C94.5444 77.7676 94.4643 77.7969 94.3589 77.7969C94.2534 77.7969 94.1733 77.7676 94.1186 77.709C94.0659 77.6504 94.0395 77.5771 94.0395 77.4893ZM95.3667 79.8887C95.3667 79.3945 95.4809 79.002 95.7095 78.7109C95.938 78.418 96.2407 78.2715 96.6177 78.2715C97.0044 78.2715 97.3061 78.4082 97.5229 78.6816L97.5493 78.3301H98.0444V81.4238C98.0444 81.834 97.9223 82.1572 97.6782 82.3936C97.436 82.6299 97.1098 82.748 96.6997 82.748C96.4712 82.748 96.2475 82.6992 96.0288 82.6016C95.81 82.5039 95.6431 82.3701 95.5278 82.2002L95.8091 81.875C96.0415 82.1621 96.3257 82.3057 96.6616 82.3057C96.9253 82.3057 97.1304 82.2314 97.2768 82.083C97.4253 81.9346 97.4995 81.7256 97.4995 81.4561V81.1836C97.2827 81.4336 96.9868 81.5586 96.6118 81.5586C96.2407 81.5586 95.9399 81.4092 95.7095 81.1104C95.4809 80.8115 95.3667 80.4043 95.3667 79.8887ZM95.9116 79.9502C95.9116 80.3076 95.9848 80.5889 96.1313 80.7939C96.2778 80.9971 96.4829 81.0986 96.7466 81.0986C97.0884 81.0986 97.3393 80.9434 97.4995 80.6328V79.1855C97.3335 78.8828 97.0845 78.7314 96.7524 78.7314C96.4888 78.7314 96.2827 78.834 96.1343 79.0391C95.9858 79.2441 95.9116 79.5479 95.9116 79.9502ZM99.3774 78.3301L99.395 78.7285C99.6372 78.4238 99.9536 78.2715 100.344 78.2715C101.014 78.2715 101.352 78.6494 101.358 79.4053V81.5H100.816V79.4023C100.814 79.1738 100.761 79.0049 100.658 78.8955C100.556 78.7861 100.397 78.7314 100.18 78.7314C100.004 78.7314 99.8501 78.7783 99.7173 78.8721C99.5845 78.9658 99.4809 79.0889 99.4067 79.2412V81.5H98.8647V78.3301H99.3774Z" fill="white"/>
<ellipse cx="47.1416" cy="80.4671" rx="1.00301" ry="0.99342" fill="white"/>
<path d="M54.6089 87.546C54.1265 87.4073 53.7749 87.2374 53.5542 87.0363C53.3354 86.8331 53.2261 86.5831 53.2261 86.2863C53.2261 85.9503 53.3598 85.673 53.6274 85.4542C53.897 85.2335 54.2466 85.1232 54.6763 85.1232C54.9692 85.1232 55.23 85.1798 55.4585 85.2931C55.689 85.4064 55.8667 85.5626 55.9917 85.7618C56.1186 85.9611 56.1821 86.1788 56.1821 86.4152H55.6167C55.6167 86.1573 55.5347 85.9552 55.3706 85.8087C55.2065 85.6603 54.9751 85.5861 54.6763 85.5861C54.3989 85.5861 54.1821 85.6476 54.0259 85.7706C53.8716 85.8917 53.7944 86.0607 53.7944 86.2775C53.7944 86.4513 53.8677 86.5988 54.0141 86.7198C54.1626 86.839 54.4136 86.9484 54.7671 87.048C55.1225 87.1476 55.3999 87.2579 55.5991 87.379C55.8003 87.4982 55.9487 87.6378 56.0444 87.798C56.1421 87.9581 56.1909 88.1466 56.1909 88.3634C56.1909 88.7091 56.0561 88.9865 55.7866 89.1954C55.5171 89.4025 55.1567 89.506 54.7056 89.506C54.4126 89.506 54.1391 89.4503 53.8852 89.339C53.6313 89.2257 53.435 89.0714 53.2964 88.8761C53.1597 88.6808 53.0913 88.4591 53.0913 88.2111H53.6567C53.6567 88.4689 53.7515 88.673 53.9409 88.8234C54.1323 88.9718 54.3872 89.046 54.7056 89.046C55.0024 89.046 55.23 88.9855 55.3882 88.8644C55.5464 88.7433 55.6255 88.5782 55.6255 88.3693C55.6255 88.1603 55.5522 87.9991 55.4057 87.8859C55.2593 87.7706 54.9936 87.6573 54.6089 87.546ZM57.7143 87.9796L57.3745 88.3341V89.4474H56.8325V84.9474H57.3745V87.6691L57.6645 87.3204L58.6518 86.2775H59.311L58.0776 87.6017L59.4546 89.4474H58.8188L57.7143 87.9796ZM60.4595 89.4474H59.9175V86.2775H60.4595V89.4474ZM59.8735 85.4366C59.8735 85.3488 59.8999 85.2745 59.9526 85.214C60.0073 85.1534 60.0874 85.1232 60.1929 85.1232C60.2983 85.1232 60.3784 85.1534 60.4331 85.214C60.4878 85.2745 60.5151 85.3488 60.5151 85.4366C60.5151 85.5245 60.4878 85.5978 60.4331 85.6564C60.3784 85.715 60.2983 85.7443 60.1929 85.7443C60.0874 85.7443 60.0073 85.715 59.9526 85.6564C59.8999 85.5978 59.8735 85.5245 59.8735 85.4366ZM61.9184 89.4474H61.3765V84.9474H61.9184V89.4474ZM63.3774 89.4474H62.8354V84.9474H63.3774V89.4474ZM66.0932 88.6066C66.0932 88.4601 66.0376 88.3468 65.9263 88.2667C65.8169 88.1847 65.6245 88.1144 65.3491 88.0558C65.0757 87.9972 64.8579 87.9269 64.6958 87.8448C64.5356 87.7628 64.4165 87.6652 64.3384 87.5519C64.2622 87.4386 64.2241 87.3038 64.2241 87.1476C64.2241 86.8878 64.3335 86.6681 64.5522 86.4884C64.7729 86.3087 65.0542 86.2189 65.396 86.2189C65.7554 86.2189 66.0464 86.3116 66.269 86.4972C66.4936 86.6827 66.6059 86.92 66.6059 87.2091H66.061C66.061 87.0607 65.9975 86.9327 65.8706 86.8253C65.7456 86.7179 65.5874 86.6642 65.396 86.6642C65.1987 86.6642 65.0444 86.7072 64.9331 86.7931C64.8218 86.879 64.7661 86.9913 64.7661 87.13C64.7661 87.2609 64.8179 87.3595 64.9214 87.4259C65.0249 87.4923 65.2114 87.5558 65.4809 87.6163C65.7524 87.6769 65.9722 87.7491 66.1401 87.8331C66.3081 87.9171 66.4321 88.0187 66.5122 88.1378C66.5942 88.255 66.6352 88.3986 66.6352 88.5685C66.6352 88.8517 66.522 89.0792 66.2954 89.2511C66.0688 89.421 65.7749 89.506 65.4136 89.506C65.1597 89.506 64.935 89.4611 64.7397 89.3712C64.5444 89.2814 64.3911 89.1564 64.2798 88.9962C64.1704 88.8341 64.1157 88.6593 64.1157 88.4718H64.6577C64.6675 88.6534 64.7397 88.798 64.8745 88.9054C65.0112 89.0109 65.1909 89.0636 65.4136 89.0636C65.6186 89.0636 65.7827 89.0226 65.9057 88.9406C66.0307 88.8566 66.0932 88.7452 66.0932 88.6066ZM71.27 88.3341H69.4829L69.0815 89.4474H68.5015L70.1304 85.1818H70.6225L72.2544 89.4474H71.6772L71.27 88.3341ZM69.6528 87.8712H71.103L70.3765 85.8761L69.6528 87.8712ZM74.5893 88.6066C74.5893 88.4601 74.5337 88.3468 74.4223 88.2667C74.313 88.1847 74.1206 88.1144 73.8452 88.0558C73.5718 87.9972 73.354 87.9269 73.1919 87.8448C73.0317 87.7628 72.9126 87.6652 72.8345 87.5519C72.7583 87.4386 72.7202 87.3038 72.7202 87.1476C72.7202 86.8878 72.8296 86.6681 73.0483 86.4884C73.269 86.3087 73.5503 86.2189 73.8921 86.2189C74.2515 86.2189 74.5425 86.3116 74.7651 86.4972C74.9897 86.6827 75.102 86.92 75.102 87.2091H74.5571C74.5571 87.0607 74.4936 86.9327 74.3667 86.8253C74.2417 86.7179 74.0835 86.6642 73.8921 86.6642C73.6948 86.6642 73.5405 86.7072 73.4292 86.7931C73.3179 86.879 73.2622 86.9913 73.2622 87.13C73.2622 87.2609 73.314 87.3595 73.4175 87.4259C73.521 87.4923 73.7075 87.5558 73.977 87.6163C74.2485 87.6769 74.4682 87.7491 74.6362 87.8331C74.8042 87.9171 74.9282 88.0187 75.0083 88.1378C75.0903 88.255 75.1313 88.3986 75.1313 88.5685C75.1313 88.8517 75.0181 89.0792 74.7915 89.2511C74.5649 89.421 74.271 89.506 73.9097 89.506C73.6557 89.506 73.4311 89.4611 73.2358 89.3712C73.0405 89.2814 72.8872 89.1564 72.7759 88.9962C72.6665 88.8341 72.6118 88.6593 72.6118 88.4718H73.1538C73.1636 88.6534 73.2358 88.798 73.3706 88.9054C73.5073 89.0109 73.687 89.0636 73.9097 89.0636C74.1147 89.0636 74.2788 89.0226 74.4018 88.9406C74.5268 88.8566 74.5893 88.7452 74.5893 88.6066ZM77.6831 88.6066C77.6831 88.4601 77.6274 88.3468 77.5161 88.2667C77.4067 88.1847 77.2143 88.1144 76.939 88.0558C76.6655 87.9972 76.4477 87.9269 76.2856 87.8448C76.1255 87.7628 76.0063 87.6652 75.9282 87.5519C75.852 87.4386 75.814 87.3038 75.814 87.1476C75.814 86.8878 75.9233 86.6681 76.1421 86.4884C76.3628 86.3087 76.644 86.2189 76.9858 86.2189C77.3452 86.2189 77.6362 86.3116 77.8589 86.4972C78.0835 86.6827 78.1958 86.92 78.1958 87.2091H77.6509C77.6509 87.0607 77.5874 86.9327 77.4604 86.8253C77.3354 86.7179 77.1772 86.6642 76.9858 86.6642C76.7886 86.6642 76.6343 86.7072 76.5229 86.7931C76.4116 86.879 76.3559 86.9913 76.3559 87.13C76.3559 87.2609 76.4077 87.3595 76.5112 87.4259C76.6147 87.4923 76.8013 87.5558 77.0708 87.6163C77.3423 87.6769 77.562 87.7491 77.73 87.8331C77.8979 87.9171 78.022 88.0187 78.102 88.1378C78.1841 88.255 78.2251 88.3986 78.2251 88.5685C78.2251 88.8517 78.1118 89.0792 77.8852 89.2511C77.6587 89.421 77.3647 89.506 77.0034 89.506C76.7495 89.506 76.5249 89.4611 76.3296 89.3712C76.1343 89.2814 75.9809 89.1564 75.8696 88.9962C75.7602 88.8341 75.7056 88.6593 75.7056 88.4718H76.2475C76.2573 88.6534 76.3296 88.798 76.4643 88.9054C76.6011 89.0109 76.7807 89.0636 77.0034 89.0636C77.2085 89.0636 77.3725 89.0226 77.4956 88.9406C77.6206 88.8566 77.6831 88.7452 77.6831 88.6066ZM80.2466 89.506C79.8169 89.506 79.4673 89.3654 79.1977 89.0841C78.9282 88.8009 78.7934 88.423 78.7934 87.9503V87.8507C78.7934 87.5363 78.853 87.256 78.9722 87.0099C79.0932 86.7618 79.2612 86.5685 79.4761 86.4298C79.6929 86.2892 79.9272 86.2189 80.1792 86.2189C80.5913 86.2189 80.9116 86.3546 81.1401 86.6261C81.3686 86.8976 81.4829 87.2863 81.4829 87.7921V88.0177H79.3354C79.3432 88.3302 79.4341 88.5831 79.6079 88.7765C79.7837 88.9679 80.0063 89.0636 80.2759 89.0636C80.4673 89.0636 80.6294 89.0245 80.7622 88.9464C80.895 88.8683 81.0112 88.7648 81.1108 88.6359L81.4419 88.8937C81.1763 89.3019 80.7778 89.506 80.2466 89.506ZM80.1792 86.6642C79.9604 86.6642 79.7768 86.7443 79.6284 86.9044C79.48 87.0626 79.3882 87.2853 79.353 87.5724H80.9409V87.5314C80.9253 87.256 80.8511 87.0431 80.7182 86.8927C80.5854 86.7404 80.4057 86.6642 80.1792 86.6642ZM83.9585 88.6066C83.9585 88.4601 83.9028 88.3468 83.7915 88.2667C83.6821 88.1847 83.4897 88.1144 83.2143 88.0558C82.9409 87.9972 82.7231 87.9269 82.561 87.8448C82.4009 87.7628 82.2817 87.6652 82.2036 87.5519C82.1274 87.4386 82.0893 87.3038 82.0893 87.1476C82.0893 86.8878 82.1987 86.6681 82.4175 86.4884C82.6382 86.3087 82.9194 86.2189 83.2612 86.2189C83.6206 86.2189 83.9116 86.3116 84.1343 86.4972C84.3589 86.6827 84.4712 86.92 84.4712 87.2091H83.9263C83.9263 87.0607 83.8628 86.9327 83.7358 86.8253C83.6108 86.7179 83.4526 86.6642 83.2612 86.6642C83.064 86.6642 82.9097 86.7072 82.7983 86.7931C82.687 86.879 82.6313 86.9913 82.6313 87.13C82.6313 87.2609 82.6831 87.3595 82.7866 87.4259C82.8901 87.4923 83.0766 87.5558 83.3462 87.6163C83.6177 87.6769 83.8374 87.7491 84.0054 87.8331C84.1733 87.9171 84.2973 88.0187 84.3774 88.1378C84.4595 88.255 84.5005 88.3986 84.5005 88.5685C84.5005 88.8517 84.3872 89.0792 84.1606 89.2511C83.9341 89.421 83.6401 89.506 83.2788 89.506C83.0249 89.506 82.8003 89.4611 82.605 89.3712C82.4097 89.2814 82.2563 89.1564 82.145 88.9962C82.0356 88.8341 81.9809 88.6593 81.9809 88.4718H82.5229C82.5327 88.6534 82.605 88.798 82.7397 88.9054C82.8765 89.0109 83.0561 89.0636 83.2788 89.0636C83.4839 89.0636 83.6479 89.0226 83.771 88.9406C83.896 88.8566 83.9585 88.7452 83.9585 88.6066ZM87.0522 88.6066C87.0522 88.4601 86.9966 88.3468 86.8852 88.2667C86.7759 88.1847 86.5835 88.1144 86.3081 88.0558C86.0347 87.9972 85.8169 87.9269 85.6548 87.8448C85.4946 87.7628 85.3755 87.6652 85.2973 87.5519C85.2212 87.4386 85.1831 87.3038 85.1831 87.1476C85.1831 86.8878 85.2925 86.6681 85.5112 86.4884C85.7319 86.3087 86.0132 86.2189 86.355 86.2189C86.7143 86.2189 87.0054 86.3116 87.228 86.4972C87.4526 86.6827 87.5649 86.92 87.5649 87.2091H87.02C87.02 87.0607 86.9565 86.9327 86.8296 86.8253C86.7046 86.7179 86.5464 86.6642 86.355 86.6642C86.1577 86.6642 86.0034 86.7072 85.8921 86.7931C85.7807 86.879 85.7251 86.9913 85.7251 87.13C85.7251 87.2609 85.7768 87.3595 85.8804 87.4259C85.9839 87.4923 86.1704 87.5558 86.4399 87.6163C86.7114 87.6769 86.9311 87.7491 87.0991 87.8331C87.2671 87.9171 87.3911 88.0187 87.4712 88.1378C87.5532 88.255 87.5942 88.3986 87.5942 88.5685C87.5942 88.8517 87.4809 89.0792 87.2544 89.2511C87.0278 89.421 86.7339 89.506 86.3725 89.506C86.1186 89.506 85.894 89.4611 85.6987 89.3712C85.5034 89.2814 85.3501 89.1564 85.2388 88.9962C85.1294 88.8341 85.0747 88.6593 85.0747 88.4718H85.6167C85.6264 88.6534 85.6987 88.798 85.8335 88.9054C85.9702 89.0109 86.1499 89.0636 86.3725 89.0636C86.5776 89.0636 86.7417 89.0226 86.8647 88.9406C86.9897 88.8566 87.0522 88.7452 87.0522 88.6066ZM88.81 86.2775L88.8247 86.629C89.0571 86.3556 89.3706 86.2189 89.7651 86.2189C90.2085 86.2189 90.5102 86.3888 90.6704 86.7286C90.7759 86.5763 90.9126 86.4532 91.0806 86.3595C91.2505 86.2657 91.4507 86.2189 91.6811 86.2189C92.3764 86.2189 92.73 86.587 92.7417 87.3234V89.4474H92.1997V87.3556C92.1997 87.129 92.1479 86.9601 92.0444 86.8488C91.9409 86.7355 91.7671 86.6788 91.5229 86.6788C91.3218 86.6788 91.1548 86.7394 91.022 86.8605C90.8891 86.9796 90.812 87.1407 90.7905 87.3439V89.4474H90.2456V87.3702C90.2456 86.9093 90.02 86.6788 89.5688 86.6788C89.2134 86.6788 88.9702 86.8302 88.8393 87.1329V89.4474H88.2973V86.2775H88.81ZM94.8774 89.506C94.4477 89.506 94.0981 89.3654 93.8286 89.0841C93.5591 88.8009 93.4243 88.423 93.4243 87.9503V87.8507C93.4243 87.5363 93.4839 87.256 93.603 87.0099C93.7241 86.7618 93.8921 86.5685 94.1069 86.4298C94.3237 86.2892 94.5581 86.2189 94.81 86.2189C95.2222 86.2189 95.5425 86.3546 95.771 86.6261C95.9995 86.8976 96.1138 87.2863 96.1138 87.7921V88.0177H93.9663C93.9741 88.3302 94.0649 88.5831 94.2388 88.7765C94.4145 88.9679 94.6372 89.0636 94.9067 89.0636C95.0981 89.0636 95.2602 89.0245 95.3931 88.9464C95.5259 88.8683 95.6421 88.7648 95.7417 88.6359L96.0727 88.8937C95.8071 89.3019 95.4087 89.506 94.8774 89.506ZM94.81 86.6642C94.5913 86.6642 94.4077 86.7443 94.2593 86.9044C94.1108 87.0626 94.019 87.2853 93.9839 87.5724H95.5718V87.5314C95.5561 87.256 95.4819 87.0431 95.3491 86.8927C95.2163 86.7404 95.0366 86.6642 94.81 86.6642ZM97.2563 86.2775L97.2739 86.6759C97.5161 86.3712 97.8325 86.2189 98.2231 86.2189C98.8931 86.2189 99.2309 86.5968 99.2368 87.3527V89.4474H98.6948V87.3497C98.6929 87.1212 98.6401 86.9523 98.5366 86.8429C98.435 86.7335 98.2759 86.6788 98.0591 86.6788C97.8833 86.6788 97.729 86.7257 97.5962 86.8195C97.4634 86.9132 97.3598 87.0363 97.2856 87.1886V89.4474H96.7436V86.2775H97.2563ZM100.79 85.5099V86.2775H101.381V86.6964H100.79V88.6622C100.79 88.7892 100.816 88.8849 100.869 88.9493C100.921 89.0118 101.011 89.0431 101.138 89.0431C101.201 89.0431 101.287 89.0314 101.396 89.0079V89.4474C101.253 89.4865 101.115 89.506 100.98 89.506C100.738 89.506 100.555 89.4327 100.432 89.2863C100.309 89.1398 100.248 88.9318 100.248 88.6622V86.6964H99.6704V86.2775H100.248V85.5099H100.79Z" fill="white"/>
<path d="M48.1446 88.4145C48.1446 88.9632 47.6955 89.4079 47.1416 89.4079C46.5876 89.4079 46.1385 88.9632 46.1385 88.4145C46.1385 87.8659 46.5876 87.4211 47.1416 87.4211C47.6955 87.4211 48.1446 87.8659 48.1446 88.4145Z" fill="white"/>
<path d="M53.6399 96.9348H55.6614V97.3947H53.0745V93.1291H53.6399V96.9348ZM57.5334 97.4533C57.1038 97.4533 56.7541 97.3127 56.4846 97.0314C56.2151 96.7482 56.0803 96.3703 56.0803 95.8976V95.798C56.0803 95.4836 56.1399 95.2033 56.259 94.9572C56.3801 94.7092 56.5481 94.5158 56.7629 94.3771C56.9797 94.2365 57.2141 94.1662 57.4661 94.1662C57.8782 94.1662 58.1985 94.3019 58.427 94.5734C58.6555 94.8449 58.7698 95.2336 58.7698 95.7394V95.965H56.6223C56.6301 96.2775 56.7209 96.5305 56.8948 96.7238C57.0705 96.9152 57.2932 97.0109 57.5627 97.0109C57.7541 97.0109 57.9163 96.9719 58.0491 96.8937C58.1819 96.8156 58.2981 96.7121 58.3977 96.5832L58.7288 96.841C58.4631 97.2492 58.0647 97.4533 57.5334 97.4533ZM57.4661 94.6115C57.2473 94.6115 57.0637 94.6916 56.9153 94.8517C56.7668 95.0099 56.675 95.2326 56.6399 95.5197H58.2278V95.4787C58.2122 95.2033 58.1379 94.9904 58.0051 94.84C57.8723 94.6877 57.6926 94.6115 57.4661 94.6115ZM61.3567 97.3947C61.3254 97.3322 61.3 97.2209 61.2805 97.0607C61.0286 97.3224 60.7278 97.4533 60.3782 97.4533C60.0657 97.4533 59.8088 97.3654 59.6077 97.1896C59.4084 97.0119 59.3088 96.7873 59.3088 96.5158C59.3088 96.1857 59.4338 95.9299 59.6838 95.7482C59.9358 95.5646 60.2893 95.4728 60.7444 95.4728H61.2717V95.2238C61.2717 95.0344 61.2151 94.884 61.1018 94.7726C60.9885 94.6594 60.8215 94.6027 60.6008 94.6027C60.4075 94.6027 60.2454 94.6516 60.1145 94.7492C59.9836 94.8469 59.9182 94.965 59.9182 95.1037H59.3733C59.3733 94.9455 59.4289 94.7932 59.5403 94.6467C59.6536 94.4982 59.8059 94.381 59.9973 94.2951C60.1907 94.2092 60.4026 94.1662 60.633 94.1662C60.9983 94.1662 61.2844 94.258 61.4914 94.4416C61.6985 94.6232 61.8059 94.8742 61.8137 95.1945V96.6535C61.8137 96.9445 61.8508 97.176 61.925 97.3478V97.3947H61.3567ZM60.4573 96.9816C60.6272 96.9816 60.7883 96.9377 60.9407 96.8498C61.093 96.7619 61.2034 96.6476 61.2717 96.507V95.8566H60.8469C60.1829 95.8566 59.8508 96.051 59.8508 96.4396C59.8508 96.6096 59.9075 96.7424 60.0207 96.8381C60.134 96.9338 60.2795 96.9816 60.4573 96.9816ZM64.1955 94.7111C64.1135 94.6974 64.0247 94.6906 63.9289 94.6906C63.5735 94.6906 63.3323 94.842 63.2053 95.1447V97.3947H62.6633V94.2248H63.1907L63.1995 94.591C63.3772 94.3078 63.6291 94.1662 63.9553 94.1662C64.0608 94.1662 64.1409 94.1799 64.1955 94.2072V94.7111ZM65.2092 94.2248L65.2268 94.6232C65.469 94.3185 65.7854 94.1662 66.176 94.1662C66.8459 94.1662 67.1838 94.5441 67.1897 95.3V97.3947H66.6477V95.2971C66.6457 95.0685 66.593 94.8996 66.4895 94.7902C66.3879 94.6808 66.2288 94.6262 66.012 94.6262C65.8362 94.6262 65.6819 94.673 65.5491 94.7668C65.4163 94.8605 65.3127 94.9836 65.2385 95.1359V97.3947H64.6965V94.2248H65.2092ZM68.5959 97.3947H68.0539V94.2248H68.5959V97.3947ZM68.01 93.384C68.01 93.2961 68.0364 93.2219 68.0891 93.1613C68.1438 93.1008 68.2239 93.0705 68.3293 93.0705C68.4348 93.0705 68.5149 93.1008 68.5696 93.1613C68.6243 93.2219 68.6516 93.2961 68.6516 93.384C68.6516 93.4719 68.6243 93.5451 68.5696 93.6037C68.5149 93.6623 68.4348 93.6916 68.3293 93.6916C68.2239 93.6916 68.1438 93.6623 68.0891 93.6037C68.0364 93.5451 68.01 93.4719 68.01 93.384ZM69.9788 94.2248L69.9963 94.6232C70.2385 94.3185 70.5549 94.1662 70.9455 94.1662C71.6155 94.1662 71.9534 94.5441 71.9592 95.3V97.3947H71.4172V95.2971C71.4153 95.0685 71.3625 94.8996 71.259 94.7902C71.1575 94.6808 70.9983 94.6262 70.7815 94.6262C70.6057 94.6262 70.4514 94.673 70.3186 94.7668C70.1858 94.8605 70.0823 94.9836 70.008 95.1359V97.3947H69.4661V94.2248H69.9788ZM72.6477 95.7834C72.6477 95.2892 72.762 94.8967 72.9905 94.6057C73.219 94.3127 73.5217 94.1662 73.8987 94.1662C74.2854 94.1662 74.5872 94.3029 74.8039 94.5764L74.8303 94.2248H75.3254V97.3185C75.3254 97.7287 75.2034 98.0519 74.9592 98.2883C74.717 98.5246 74.3909 98.6428 73.9807 98.6428C73.7522 98.6428 73.5286 98.5939 73.3098 98.4963C73.0911 98.3986 72.9241 98.2648 72.8088 98.0949L73.0901 97.7697C73.3225 98.0568 73.6067 98.2004 73.9426 98.2004C74.2063 98.2004 74.4114 98.1262 74.5579 97.9777C74.7063 97.8293 74.7805 97.6203 74.7805 97.3508V97.0783C74.5637 97.3283 74.2678 97.4533 73.8928 97.4533C73.5217 97.4533 73.2209 97.3039 72.9905 97.0051C72.762 96.7062 72.6477 96.299 72.6477 95.7834ZM73.1926 95.8449C73.1926 96.2023 73.2659 96.4836 73.4123 96.6887C73.5588 96.8918 73.7639 96.9933 74.0276 96.9933C74.3694 96.9933 74.6204 96.8381 74.7805 96.5275V95.0803C74.6145 94.7775 74.3655 94.6262 74.0334 94.6262C73.7698 94.6262 73.5637 94.7287 73.4153 94.9338C73.2668 95.1389 73.1926 95.4426 73.1926 95.8449ZM78.2815 95.7248V97.3947H77.719V93.1291H79.2922C79.759 93.1291 80.1243 93.2482 80.3879 93.4865C80.6536 93.7248 80.7864 94.0402 80.7864 94.4328C80.7864 94.8469 80.6565 95.1662 80.3967 95.3908C80.1389 95.6135 79.7688 95.7248 79.2864 95.7248H78.2815ZM78.2815 95.2648H79.2922C79.593 95.2648 79.8235 95.1945 79.9836 95.0539C80.1438 94.9113 80.2239 94.7062 80.2239 94.4387C80.2239 94.1848 80.1438 93.9816 79.9836 93.8293C79.8235 93.6769 79.6038 93.5978 79.3245 93.592H78.2815V95.2648ZM82.008 97.3947H81.4661V92.8947H82.008V97.3947ZM84.8352 97.3947C84.8039 97.3322 84.7786 97.2209 84.759 97.0607C84.5071 97.3224 84.2063 97.4533 83.8567 97.4533C83.5442 97.4533 83.2873 97.3654 83.0862 97.1896C82.887 97.0119 82.7873 96.7873 82.7873 96.5158C82.7873 96.1857 82.9123 95.9299 83.1623 95.7482C83.4143 95.5646 83.7678 95.4728 84.2229 95.4728H84.7502V95.2238C84.7502 95.0344 84.6936 94.884 84.5803 94.7726C84.467 94.6594 84.3 94.6027 84.0793 94.6027C83.886 94.6027 83.7239 94.6516 83.593 94.7492C83.4622 94.8469 83.3967 94.965 83.3967 95.1037H82.8518C82.8518 94.9455 82.9075 94.7932 83.0188 94.6467C83.1321 94.4982 83.2844 94.381 83.4758 94.2951C83.6692 94.2092 83.8811 94.1662 84.1116 94.1662C84.4768 94.1662 84.7629 94.258 84.97 94.4416C85.177 94.6232 85.2844 94.8742 85.2922 95.1945V96.6535C85.2922 96.9445 85.3293 97.176 85.4036 97.3478V97.3947H84.8352ZM83.9358 96.9816C84.1057 96.9816 84.2668 96.9377 84.4192 96.8498C84.5715 96.7619 84.6819 96.6476 84.7502 96.507V95.8566H84.3254C83.6614 95.8566 83.3293 96.051 83.3293 96.4396C83.3293 96.6096 83.386 96.7424 83.4993 96.8381C83.6125 96.9338 83.758 96.9816 83.9358 96.9816ZM86.8772 93.4572V94.2248H87.469V94.6437H86.8772V96.6096C86.8772 96.7365 86.9036 96.8322 86.9563 96.8967C87.009 96.9592 87.0989 96.9904 87.2258 96.9904C87.2883 96.9904 87.3743 96.9787 87.4836 96.9553V97.3947C87.3411 97.4338 87.2024 97.4533 87.0676 97.4533C86.8254 97.4533 86.6428 97.3801 86.5198 97.2336C86.3967 97.0871 86.3352 96.8791 86.3352 96.6096V94.6437H85.758V94.2248H86.3352V93.4572H86.8772ZM88.3713 97.3947V94.6437H87.8704V94.2248H88.3713V93.8996C88.3713 93.5598 88.4622 93.2971 88.6438 93.1115C88.8254 92.926 89.0823 92.8332 89.4143 92.8332C89.5393 92.8332 89.6633 92.8498 89.7864 92.883L89.7571 93.3224C89.6653 93.3049 89.5676 93.2961 89.4641 93.2961C89.2883 93.2961 89.1526 93.3478 89.0569 93.4514C88.9612 93.5529 88.9133 93.6994 88.9133 93.8908V94.2248H89.5901V94.6437H88.9133V97.3947H88.3713ZM90.0471 95.7805C90.0471 95.4699 90.1077 95.1906 90.2288 94.9426C90.3518 94.6945 90.5217 94.5031 90.7385 94.3683C90.9573 94.2336 91.2063 94.1662 91.4856 94.1662C91.9172 94.1662 92.2659 94.3156 92.5315 94.6144C92.7991 94.9133 92.9329 95.3107 92.9329 95.8068V95.8449C92.9329 96.1535 92.8733 96.4308 92.7541 96.6769C92.637 96.9211 92.468 97.1115 92.2473 97.2482C92.0286 97.3849 91.7766 97.4533 91.4914 97.4533C91.0618 97.4533 90.7131 97.3039 90.4455 97.0051C90.1799 96.7062 90.0471 96.3107 90.0471 95.8185V95.7805ZM90.592 95.8449C90.592 96.1965 90.6731 96.4787 90.8352 96.6916C90.9993 96.9045 91.218 97.0109 91.4914 97.0109C91.7668 97.0109 91.9856 96.9035 92.1477 96.6887C92.3098 96.4719 92.3909 96.1691 92.3909 95.7805C92.3909 95.4328 92.3079 95.1516 92.1418 94.9367C91.9778 94.7199 91.759 94.6115 91.4856 94.6115C91.218 94.6115 91.0022 94.718 90.8381 94.9308C90.6741 95.1437 90.592 95.4484 90.592 95.8449ZM95.1448 94.7111C95.0627 94.6974 94.9739 94.6906 94.8782 94.6906C94.5227 94.6906 94.2815 94.842 94.1545 95.1447V97.3947H93.6125V94.2248H94.1399L94.1487 94.591C94.3264 94.3078 94.5784 94.1662 94.9045 94.1662C95.01 94.1662 95.0901 94.1799 95.1448 94.2072V94.7111ZM96.1555 94.2248L96.1702 94.5764C96.4026 94.3029 96.7161 94.1662 97.1106 94.1662C97.5539 94.1662 97.8557 94.3361 98.0159 94.676C98.1213 94.5236 98.258 94.4006 98.426 94.3068C98.5959 94.2131 98.7961 94.1662 99.0266 94.1662C99.7219 94.1662 100.075 94.5344 100.087 95.2707V97.3947H99.5452V95.3029C99.5452 95.0764 99.4934 94.9074 99.3899 94.7961C99.2864 94.6828 99.1125 94.6262 98.8684 94.6262C98.6672 94.6262 98.5002 94.6867 98.3674 94.8078C98.2346 94.9269 98.1575 95.0881 98.136 95.2912V97.3947H97.5911V95.3176C97.5911 94.8566 97.3655 94.6262 96.9143 94.6262C96.5588 94.6262 96.3157 94.7775 96.1848 95.0803V97.3947H95.6428V94.2248H96.1555ZM101.016 97.7609H100.55L102.331 93.1291H102.794L101.016 97.7609ZM108.091 96.0412C108.038 96.4924 107.871 96.841 107.59 97.0871C107.311 97.3312 106.939 97.4533 106.474 97.4533C105.97 97.4533 105.566 97.2726 105.261 96.9113C104.958 96.55 104.807 96.0666 104.807 95.4611V95.051C104.807 94.6545 104.877 94.3058 105.018 94.0051C105.16 93.7043 105.362 93.4738 105.621 93.3137C105.881 93.1516 106.182 93.0705 106.524 93.0705C106.977 93.0705 107.34 93.1974 107.614 93.4514C107.887 93.7033 108.046 94.0529 108.091 94.5002H107.526C107.477 94.1603 107.37 93.9142 107.206 93.7619C107.044 93.6096 106.817 93.5334 106.524 93.5334C106.164 93.5334 105.882 93.6662 105.677 93.9318C105.474 94.1974 105.372 94.5754 105.372 95.0656V95.4787C105.372 95.9416 105.469 96.3098 105.662 96.5832C105.856 96.8566 106.126 96.9933 106.474 96.9933C106.786 96.9933 107.026 96.923 107.192 96.7824C107.36 96.6398 107.471 96.3928 107.526 96.0412H108.091ZM108.633 95.7805C108.633 95.4699 108.694 95.1906 108.815 94.9426C108.938 94.6945 109.108 94.5031 109.324 94.3683C109.543 94.2336 109.792 94.1662 110.072 94.1662C110.503 94.1662 110.852 94.3156 111.117 94.6144C111.385 94.9133 111.519 95.3107 111.519 95.8068V95.8449C111.519 96.1535 111.459 96.4308 111.34 96.6769C111.223 96.9211 111.054 97.1115 110.833 97.2482C110.614 97.3849 110.363 97.4533 110.077 97.4533C109.648 97.4533 109.299 97.3039 109.031 97.0051C108.766 96.7062 108.633 96.3107 108.633 95.8185V95.7805ZM109.178 95.8449C109.178 96.1965 109.259 96.4787 109.421 96.6916C109.585 96.9045 109.804 97.0109 110.077 97.0109C110.353 97.0109 110.572 96.9035 110.734 96.6887C110.896 96.4719 110.977 96.1691 110.977 95.7805C110.977 95.4328 110.894 95.1516 110.728 94.9367C110.564 94.7199 110.345 94.6115 110.072 94.6115C109.804 94.6115 109.588 94.718 109.424 94.9308C109.26 95.1437 109.178 95.4484 109.178 95.8449ZM114.044 96.5539C114.044 96.4074 113.989 96.2941 113.877 96.2141C113.768 96.132 113.575 96.0617 113.3 96.0031C113.027 95.9445 112.809 95.8742 112.647 95.7922C112.487 95.7101 112.367 95.6125 112.289 95.4992C112.213 95.3859 112.175 95.2512 112.175 95.0949C112.175 94.8351 112.284 94.6154 112.503 94.4357C112.724 94.256 113.005 94.1662 113.347 94.1662C113.706 94.1662 113.997 94.259 114.22 94.4445C114.445 94.6301 114.557 94.8674 114.557 95.1564H114.012C114.012 95.008 113.948 94.8801 113.822 94.7726C113.697 94.6652 113.538 94.6115 113.347 94.6115C113.15 94.6115 112.995 94.6545 112.884 94.7404C112.773 94.8264 112.717 94.9387 112.717 95.0773C112.717 95.2082 112.769 95.3068 112.872 95.3732C112.976 95.4396 113.162 95.5031 113.432 95.5637C113.703 95.6242 113.923 95.6965 114.091 95.7805C114.259 95.8644 114.383 95.966 114.463 96.0851C114.545 96.2023 114.586 96.3459 114.586 96.5158C114.586 96.799 114.473 97.0266 114.246 97.1984C114.02 97.3683 113.726 97.4533 113.364 97.4533C113.111 97.4533 112.886 97.4084 112.691 97.3185C112.495 97.2287 112.342 97.1037 112.231 96.9435C112.121 96.7814 112.067 96.6066 112.067 96.4191H112.609C112.618 96.6008 112.691 96.7453 112.825 96.8527C112.962 96.9582 113.142 97.0109 113.364 97.0109C113.57 97.0109 113.734 96.9699 113.857 96.8879C113.982 96.8039 114.044 96.6926 114.044 96.5539ZM116.028 93.4572V94.2248H116.619V94.6437H116.028V96.6096C116.028 96.7365 116.054 96.8322 116.107 96.8967C116.159 96.9592 116.249 96.9904 116.376 96.9904C116.439 96.9904 116.525 96.9787 116.634 96.9553V97.3947C116.491 97.4338 116.353 97.4533 116.218 97.4533C115.976 97.4533 115.793 97.3801 115.67 97.2336C115.547 97.0871 115.486 96.8791 115.486 96.6096V94.6437H114.908V94.2248H115.486V93.4572H116.028ZM119.101 96.5539C119.101 96.4074 119.045 96.2941 118.934 96.2141C118.824 96.132 118.632 96.0617 118.357 96.0031C118.083 95.9445 117.865 95.8742 117.703 95.7922C117.543 95.7101 117.424 95.6125 117.346 95.4992C117.27 95.3859 117.232 95.2512 117.232 95.0949C117.232 94.8351 117.341 94.6154 117.56 94.4357C117.781 94.256 118.062 94.1662 118.404 94.1662C118.763 94.1662 119.054 94.259 119.277 94.4445C119.501 94.6301 119.614 94.8674 119.614 95.1564H119.069C119.069 95.008 119.005 94.8801 118.878 94.7726C118.753 94.6652 118.595 94.6115 118.404 94.6115C118.206 94.6115 118.052 94.6545 117.941 94.7404C117.829 94.8264 117.774 94.9387 117.774 95.0773C117.774 95.2082 117.825 95.3068 117.929 95.3732C118.032 95.4396 118.219 95.5031 118.489 95.5637C118.76 95.6242 118.98 95.6965 119.148 95.7805C119.316 95.8644 119.44 95.966 119.52 96.0851C119.602 96.2023 119.643 96.3459 119.643 96.5158C119.643 96.799 119.53 97.0266 119.303 97.1984C119.076 97.3683 118.782 97.4533 118.421 97.4533C118.167 97.4533 117.943 97.4084 117.747 97.3185C117.552 97.2287 117.399 97.1037 117.287 96.9435C117.178 96.7814 117.123 96.6066 117.123 96.4191H117.665C117.675 96.6008 117.747 96.7453 117.882 96.8527C118.019 96.9582 118.198 97.0109 118.421 97.0109C118.626 97.0109 118.79 96.9699 118.913 96.8879C119.038 96.8039 119.101 96.6926 119.101 96.5539Z" fill="white"/>
<path d="M48.1446 96.3618C48.1446 96.9105 47.6955 97.3553 47.1416 97.3553C46.5876 97.3553 46.1385 96.9105 46.1385 96.3618C46.1385 95.8132 46.5876 95.3684 47.1416 95.3684C47.6955 95.3684 48.1446 95.8132 48.1446 96.3618Z" fill="white"/>
<defs>
<filter id="filter0_d" x="7.28778" y="0" width="153.93" height="121.25" filterUnits="userSpaceOnUse" color-interpolation-filters="sRGB">
<feFlood flood-opacity="0" result="BackgroundImageFix"/>
<feColorMatrix in="SourceAlpha" type="matrix" values="0 0 0 0 0 0 0 0 0 0 0 0 0 0 0 0 0 0 127 0"/>
<feOffset dy="4"/>
<feGaussianBlur stdDeviation="2"/>
<feColorMatrix type="matrix" values="0 0 0 0 0 0 0 0 0 0 0 0 0 0 0 0 0 0 0.25 0"/>
<feBlend mode="normal" in2="BackgroundImageFix" result="effect1_dropShadow"/>
<feBlend mode="normal" in="SourceGraphic" in2="effect1_dropShadow" result="shape"/>
</filter>
</defs>
</svg>
