<svg width="168" height="151" viewBox="0 0 168 151" fill="none" xmlns="http://www.w3.org/2000/svg">
<g filter="url(#filter0_d)">
<path d="M84.2485 0L156.779 113.25H11.7175L84.2485 0Z" fill="#8DC63F"/>
<path d="M12.403 112.875L84.2485 0.695319L156.094 112.875H12.403Z" stroke="black" stroke-width="0.75"/>
</g>
<path d="M63.0569 60.7795C63.0569 60.5028 62.9593 60.2912 62.764 60.1447C62.5686 59.995 62.2171 59.8387 61.7093 59.676C61.2015 59.5099 60.7994 59.3472 60.5032 59.1877C59.6959 58.7515 59.2923 58.1639 59.2923 57.425C59.2923 57.0409 59.3997 56.6991 59.6145 56.3996C59.8326 56.0969 60.1435 55.8609 60.5472 55.6916C60.9541 55.5223 61.4098 55.4377 61.9143 55.4377C62.4222 55.4377 62.8746 55.5305 63.2718 55.716C63.6689 55.8983 63.9765 56.1571 64.1946 56.4924C64.416 56.8277 64.5266 57.2085 64.5266 57.6349H63.0618C63.0618 57.3094 62.9593 57.0571 62.7542 56.8781C62.5491 56.6958 62.261 56.6047 61.8899 56.6047C61.5319 56.6047 61.2535 56.6812 61.055 56.8342C60.8564 56.9839 60.7571 57.1825 60.7571 57.4299C60.7571 57.661 60.8727 57.8547 61.1038 58.0109C61.3382 58.1672 61.6816 58.3137 62.1341 58.4504C62.9674 58.701 63.5745 59.0119 63.9554 59.383C64.3362 59.7541 64.5266 60.2163 64.5266 60.7697C64.5266 61.3849 64.2939 61.8683 63.8284 62.2199C63.3629 62.5682 62.7363 62.7424 61.9485 62.7424C61.4016 62.7424 60.9036 62.6431 60.4544 62.4445C60.0052 62.2427 59.6617 61.9676 59.4241 61.6193C59.1897 61.271 59.0725 60.8674 59.0725 60.4084H60.5423C60.5423 61.1929 61.011 61.5851 61.9485 61.5851C62.2968 61.5851 62.5686 61.5152 62.764 61.3752C62.9593 61.232 63.0569 61.0334 63.0569 60.7795ZM68.4915 62.6447C68.4264 62.5178 68.3792 62.3599 68.3499 62.1711C68.0081 62.5519 67.5638 62.7424 67.0169 62.7424C66.4993 62.7424 66.0696 62.5926 65.7278 62.2932C65.3893 61.9937 65.22 61.6161 65.22 61.1603C65.22 60.6004 65.4267 60.1708 65.8401 59.8713C66.2568 59.5718 66.8574 59.4204 67.6419 59.4172H68.2913V59.1144C68.2913 58.8703 68.2278 58.675 68.1009 58.5285C67.9772 58.382 67.7802 58.3088 67.51 58.3088C67.2724 58.3088 67.0852 58.3657 66.9485 58.4797C66.8151 58.5936 66.7483 58.7499 66.7483 58.9484H65.3372C65.3372 58.6424 65.4316 58.3592 65.6204 58.0988C65.8092 57.8384 66.0761 57.6349 66.4212 57.4885C66.7662 57.3387 67.1536 57.2639 67.5833 57.2639C68.2343 57.2639 68.7503 57.4282 69.1311 57.757C69.5153 58.0825 69.7073 58.5415 69.7073 59.134V61.424C69.7106 61.9253 69.7806 62.3045 69.9173 62.5617V62.6447H68.4915ZM67.3245 61.6633C67.5328 61.6633 67.7249 61.6177 67.9007 61.5266C68.0765 61.4321 68.2067 61.3068 68.2913 61.1506V60.2424H67.764C67.0576 60.2424 66.6816 60.4865 66.636 60.9748L66.6311 61.0578C66.6311 61.2336 66.693 61.3784 66.8167 61.4924C66.9404 61.6063 67.1097 61.6633 67.3245 61.6633ZM72.2806 62.6447H70.8645V55.1447H72.2806V62.6447ZM75.8792 62.7424C75.1044 62.7424 74.4729 62.5047 73.9847 62.0295C73.4996 61.5542 73.2571 60.9211 73.2571 60.1301V59.9933C73.2571 59.4627 73.3597 58.9891 73.5647 58.5724C73.7698 58.1525 74.0595 57.8303 74.4339 57.6057C74.8115 57.3778 75.2412 57.2639 75.7229 57.2639C76.4456 57.2639 77.0136 57.4917 77.427 57.9474C77.8437 58.4032 78.052 59.0493 78.052 59.8859V60.4621H74.6878C74.7334 60.8071 74.8701 61.0838 75.0979 61.2922C75.3291 61.5005 75.6204 61.6047 75.972 61.6047C76.5156 61.6047 76.9404 61.4077 77.2464 61.0139L77.9397 61.7902C77.7281 62.0897 77.4417 62.3241 77.0804 62.4933C76.719 62.6594 76.3186 62.7424 75.8792 62.7424ZM75.7181 58.4064C75.4381 58.4064 75.2102 58.5008 75.0345 58.6896C74.8619 58.8784 74.7513 59.1486 74.7024 59.5002H76.6653V59.3879C76.6588 59.0754 76.5742 58.8345 76.4114 58.6652C76.2487 58.4927 76.0175 58.4064 75.7181 58.4064ZM81.719 61.1848C81.719 61.0122 81.6328 60.8771 81.4602 60.7795C81.291 60.6786 81.0175 60.5891 80.6399 60.5109C79.3834 60.2473 78.7552 59.7134 78.7552 58.9094C78.7552 58.4406 78.9488 58.05 79.3362 57.7375C79.7268 57.4217 80.2363 57.2639 80.8645 57.2639C81.5351 57.2639 82.0706 57.4217 82.471 57.7375C82.8746 58.0532 83.0765 58.4634 83.0765 58.968H81.6653C81.6653 58.7661 81.6002 58.6001 81.47 58.4699C81.3398 58.3364 81.1363 58.2697 80.8597 58.2697C80.622 58.2697 80.4381 58.3234 80.3079 58.4308C80.1777 58.5383 80.1126 58.675 80.1126 58.841C80.1126 58.9973 80.1858 59.1242 80.3323 59.2219C80.482 59.3163 80.7327 59.3993 81.0843 59.4709C81.4358 59.5392 81.732 59.6174 81.9729 59.7053C82.7184 59.9787 83.0911 60.4523 83.0911 61.1262C83.0911 61.6079 82.8844 61.9986 82.471 62.298C82.0576 62.5943 81.5237 62.7424 80.8694 62.7424C80.4267 62.7424 80.0328 62.6642 79.6878 62.508C79.346 62.3485 79.0774 62.132 78.8821 61.8586C78.6868 61.5819 78.5891 61.284 78.5891 60.965H79.927C79.9401 61.2157 80.0328 61.4077 80.2054 61.5412C80.3779 61.6747 80.609 61.7414 80.8987 61.7414C81.1689 61.7414 81.3723 61.6909 81.5091 61.59C81.649 61.4859 81.719 61.3508 81.719 61.1848ZM86.2991 60.7307C86.2991 60.4019 86.3903 60.0975 86.5725 59.8176C86.7581 59.5376 87.0966 59.2267 87.5882 58.8849C87.3766 58.6017 87.2106 58.3364 87.0901 58.0891C86.9697 57.8384 86.9095 57.578 86.9095 57.3078C86.9095 56.7544 87.0836 56.3052 87.4319 55.9601C87.7835 55.6118 88.2555 55.4377 88.8479 55.4377C89.3785 55.4377 89.8131 55.5956 90.1516 55.9113C90.4934 56.2271 90.6643 56.621 90.6643 57.093C90.6643 57.6594 90.3779 58.159 89.805 58.592L89.2581 58.9875L90.4837 60.4133C90.6757 60.0357 90.7718 59.619 90.7718 59.1633H91.9729C91.9729 60.0877 91.7597 60.8364 91.3333 61.4094L92.3977 62.6447H90.7962L90.43 62.2248C89.9059 62.5698 89.3037 62.7424 88.6233 62.7424C87.9202 62.7424 87.357 62.5585 86.9339 62.1906C86.5107 61.8195 86.2991 61.3329 86.2991 60.7307ZM88.6917 61.6096C89.0302 61.6096 89.3509 61.5152 89.6536 61.3264L88.2522 59.7053L88.1497 59.7785C87.86 60.0259 87.7151 60.3172 87.7151 60.6525C87.7151 60.9357 87.8046 61.1668 87.9837 61.3459C88.166 61.5217 88.402 61.6096 88.6917 61.6096ZM88.1741 57.2883C88.1741 57.5324 88.3173 57.84 88.6038 58.2111L88.9798 57.9621C89.1718 57.8384 89.3037 57.718 89.3753 57.6008C89.4501 57.4836 89.4876 57.3436 89.4876 57.1808C89.4876 57.0181 89.4274 56.8765 89.3069 56.756C89.1865 56.6356 89.0319 56.5754 88.8431 56.5754C88.6412 56.5754 88.4785 56.6405 88.3548 56.7707C88.2343 56.9009 88.1741 57.0734 88.1741 57.2883ZM99.3265 60.7795C99.3265 60.5028 99.2288 60.2912 99.0335 60.1447C98.8382 59.995 98.4866 59.8387 97.9788 59.676C97.471 59.5099 97.069 59.3472 96.7727 59.1877C95.9654 58.7515 95.5618 58.1639 95.5618 57.425C95.5618 57.0409 95.6692 56.6991 95.8841 56.3996C96.1022 56.0969 96.413 55.8609 96.8167 55.6916C97.2236 55.5223 97.6793 55.4377 98.1839 55.4377C98.6917 55.4377 99.1442 55.5305 99.5413 55.716C99.9384 55.8983 100.246 56.1571 100.464 56.4924C100.685 56.8277 100.796 57.2085 100.796 57.6349H99.3313C99.3313 57.3094 99.2288 57.0571 99.0237 56.8781C98.8186 56.6958 98.5306 56.6047 98.1595 56.6047C97.8014 56.6047 97.5231 56.6812 97.3245 56.8342C97.1259 56.9839 97.0266 57.1825 97.0266 57.4299C97.0266 57.661 97.1422 57.8547 97.3733 58.0109C97.6077 58.1672 97.9511 58.3137 98.4036 58.4504C99.2369 58.701 99.844 59.0119 100.225 59.383C100.606 59.7541 100.796 60.2163 100.796 60.7697C100.796 61.3849 100.563 61.8683 100.098 62.2199C99.6324 62.5682 99.0058 62.7424 98.2181 62.7424C97.6712 62.7424 97.1731 62.6431 96.7239 62.4445C96.2747 62.2427 95.9313 61.9676 95.6936 61.6193C95.4593 61.271 95.3421 60.8674 95.3421 60.4084H96.8118C96.8118 61.1929 97.2806 61.5851 98.2181 61.5851C98.5664 61.5851 98.8382 61.5152 99.0335 61.3752C99.2288 61.232 99.3265 61.0334 99.3265 60.7795ZM104.761 62.6447C104.696 62.5178 104.649 62.3599 104.619 62.1711C104.278 62.5519 103.833 62.7424 103.286 62.7424C102.769 62.7424 102.339 62.5926 101.997 62.2932C101.659 61.9937 101.49 61.6161 101.49 61.1603C101.49 60.6004 101.696 60.1708 102.11 59.8713C102.526 59.5718 103.127 59.4204 103.911 59.4172H104.561V59.1144C104.561 58.8703 104.497 58.675 104.37 58.5285C104.247 58.382 104.05 58.3088 103.78 58.3088C103.542 58.3088 103.355 58.3657 103.218 58.4797C103.085 58.5936 103.018 58.7499 103.018 58.9484H101.607C101.607 58.6424 101.701 58.3592 101.89 58.0988C102.079 57.8384 102.346 57.6349 102.691 57.4885C103.036 57.3387 103.423 57.2639 103.853 57.2639C104.504 57.2639 105.02 57.4282 105.401 57.757C105.785 58.0825 105.977 58.5415 105.977 59.134V61.424C105.98 61.9253 106.05 62.3045 106.187 62.5617V62.6447H104.761ZM103.594 61.6633C103.802 61.6633 103.994 61.6177 104.17 61.5266C104.346 61.4321 104.476 61.3068 104.561 61.1506V60.2424H104.033C103.327 60.2424 102.951 60.4865 102.906 60.9748L102.901 61.0578C102.901 61.2336 102.963 61.3784 103.086 61.4924C103.21 61.6063 103.379 61.6633 103.594 61.6633ZM108.55 62.6447H107.134V55.1447H108.55V62.6447ZM112.149 62.7424C111.374 62.7424 110.742 62.5047 110.254 62.0295C109.769 61.5542 109.527 60.9211 109.527 60.1301V59.9933C109.527 59.4627 109.629 58.9891 109.834 58.5724C110.039 58.1525 110.329 57.8303 110.703 57.6057C111.081 57.3778 111.511 57.2639 111.992 57.2639C112.715 57.2639 113.283 57.4917 113.697 57.9474C114.113 58.4032 114.322 59.0493 114.322 59.8859V60.4621H110.957C111.003 60.8071 111.14 61.0838 111.367 61.2922C111.599 61.5005 111.89 61.6047 112.241 61.6047C112.785 61.6047 113.21 61.4077 113.516 61.0139L114.209 61.7902C113.998 62.0897 113.711 62.3241 113.35 62.4933C112.989 62.6594 112.588 62.7424 112.149 62.7424ZM111.988 58.4064C111.708 58.4064 111.48 58.5008 111.304 58.6896C111.131 58.8784 111.021 59.1486 110.972 59.5002H112.935V59.3879C112.928 59.0754 112.844 58.8345 112.681 58.6652C112.518 58.4927 112.287 58.4064 111.988 58.4064ZM117.989 61.1848C117.989 61.0122 117.902 60.8771 117.73 60.7795C117.56 60.6786 117.287 60.5891 116.909 60.5109C115.653 60.2473 115.025 59.7134 115.025 58.9094C115.025 58.4406 115.218 58.05 115.606 57.7375C115.996 57.4217 116.506 57.2639 117.134 57.2639C117.805 57.2639 118.34 57.4217 118.741 57.7375C119.144 58.0532 119.346 58.4634 119.346 58.968H117.935C117.935 58.7661 117.87 58.6001 117.74 58.4699C117.609 58.3364 117.406 58.2697 117.129 58.2697C116.892 58.2697 116.708 58.3234 116.577 58.4308C116.447 58.5383 116.382 58.675 116.382 58.841C116.382 58.9973 116.455 59.1242 116.602 59.2219C116.752 59.3163 117.002 59.3993 117.354 59.4709C117.705 59.5392 118.002 59.6174 118.242 59.7053C118.988 59.9787 119.361 60.4523 119.361 61.1262C119.361 61.6079 119.154 61.9986 118.741 62.298C118.327 62.5943 117.793 62.7424 117.139 62.7424C116.696 62.7424 116.302 62.6642 115.957 62.508C115.616 62.3485 115.347 62.132 115.152 61.8586C114.956 61.5819 114.859 61.284 114.859 60.965H116.197C116.21 61.2157 116.302 61.4077 116.475 61.5412C116.647 61.6747 116.879 61.7414 117.168 61.7414C117.438 61.7414 117.642 61.6909 117.779 61.59C117.919 61.4859 117.989 61.3508 117.989 61.1848Z" fill="white"/>
<path d="M70.0823 69.1854C70.0823 69.8853 69.9586 70.4989 69.7112 71.0262C69.4638 71.5536 69.109 71.9605 68.6468 72.2469C68.1878 72.5334 67.6605 72.6766 67.0648 72.6766C66.4756 72.6766 65.9498 72.535 65.4876 72.2518C65.0254 71.9686 64.6673 71.565 64.4134 71.0409C64.1595 70.5135 64.0309 69.9081 64.0276 69.2245V68.8729C64.0276 68.1731 64.153 67.5578 64.4036 67.0272C64.6575 66.4934 65.014 66.0848 65.473 65.8016C65.9352 65.5152 66.4625 65.3719 67.055 65.3719C67.6474 65.3719 68.1732 65.5152 68.6321 65.8016C69.0944 66.0848 69.4508 66.4934 69.7015 67.0272C69.9554 67.5578 70.0823 68.1714 70.0823 68.868V69.1854ZM68.598 68.8632C68.598 68.1177 68.4645 67.5513 68.1976 67.1639C67.9306 66.7766 67.5498 66.5829 67.055 66.5829C66.5635 66.5829 66.1842 66.7749 65.9173 67.1591C65.6504 67.5399 65.5153 68.0998 65.512 68.8387V69.1854C65.512 69.9113 65.6455 70.4745 65.9124 70.8749C66.1793 71.2753 66.5635 71.4755 67.0648 71.4755C67.5563 71.4755 67.9339 71.2834 68.1976 70.8993C68.4612 70.5119 68.5947 69.9488 68.598 69.2098V68.8632ZM75.8099 69.9862C75.8099 70.8 75.6243 71.4527 75.2532 71.9442C74.8854 72.4325 74.3873 72.6766 73.7591 72.6766C73.2252 72.6766 72.7939 72.4911 72.4651 72.12V74.6102H71.054V67.2958H72.3626L72.4114 67.8134C72.7532 67.4032 73.1992 67.1981 73.7493 67.1981C74.4004 67.1981 74.9066 67.439 75.2679 67.9208C75.6292 68.4025 75.8099 69.0666 75.8099 69.913V69.9862ZM74.3987 69.8837C74.3987 69.3921 74.3109 69.0129 74.1351 68.746C73.9625 68.479 73.7103 68.3456 73.3782 68.3456C72.9355 68.3456 72.6312 68.5149 72.4651 68.8534V71.0165C72.6377 71.3648 72.9453 71.5389 73.388 71.5389C74.0618 71.5389 74.3987 70.9872 74.3987 69.8837ZM79.1204 72.6766C78.3457 72.6766 77.7142 72.439 77.2259 71.9637C76.7409 71.4885 76.4984 70.8553 76.4984 70.0643V69.9276C76.4984 69.397 76.6009 68.9234 76.806 68.5067C77.011 68.0868 77.3008 67.7645 77.6751 67.5399C78.0527 67.3121 78.4824 67.1981 78.9642 67.1981C79.6868 67.1981 80.2549 67.426 80.6683 67.8817C81.0849 68.3374 81.2933 68.9836 81.2933 69.8202V70.3964H77.929C77.9746 70.7414 78.1113 71.0181 78.3392 71.2264C78.5703 71.4348 78.8616 71.5389 79.2132 71.5389C79.7568 71.5389 80.1816 71.342 80.4876 70.9481L81.181 71.7245C80.9694 72.024 80.6829 72.2583 80.3216 72.4276C79.9603 72.5936 79.5599 72.6766 79.1204 72.6766ZM78.9593 68.3407C78.6793 68.3407 78.4515 68.4351 78.2757 68.6239C78.1032 68.8127 77.9925 69.0829 77.9437 69.4344H79.9066V69.3221C79.9 69.0096 79.8154 68.7688 79.6526 68.5995C79.4899 68.427 79.2588 68.3407 78.9593 68.3407ZM85.0677 68.619C84.8756 68.593 84.7064 68.58 84.5599 68.58C84.026 68.58 83.6761 68.7606 83.5101 69.1219V72.579H82.0989V67.2958H83.4319L83.471 67.9257C83.7542 67.4406 84.1465 67.1981 84.6478 67.1981C84.804 67.1981 84.9505 67.2193 85.0872 67.2616L85.0677 68.619ZM88.6663 72.579C88.6012 72.452 88.554 72.2941 88.5247 72.1053C88.1829 72.4862 87.7386 72.6766 87.1917 72.6766C86.6741 72.6766 86.2444 72.5269 85.9026 72.2274C85.5641 71.9279 85.3948 71.5503 85.3948 71.0946C85.3948 70.5347 85.6015 70.105 86.015 69.8055C86.4316 69.5061 87.0322 69.3547 87.8167 69.3514H88.4661V69.0487C88.4661 68.8046 88.4026 68.6093 88.2757 68.4628C88.152 68.3163 87.9551 68.243 87.6849 68.243C87.4472 68.243 87.2601 68.3 87.1234 68.4139C86.9899 68.5279 86.9232 68.6841 86.9232 68.8827H85.512C85.512 68.5767 85.6064 68.2935 85.7952 68.0331C85.984 67.7727 86.251 67.5692 86.596 67.4227C86.9411 67.273 87.3284 67.1981 87.7581 67.1981C88.4092 67.1981 88.9251 67.3625 89.306 67.6913C89.6901 68.0168 89.8821 68.4758 89.8821 69.0682V71.3583C89.8854 71.8596 89.9554 72.2388 90.0921 72.496V72.579H88.6663ZM87.4993 71.5975C87.7077 71.5975 87.8997 71.552 88.0755 71.4608C88.2513 71.3664 88.3815 71.2411 88.4661 71.0848V70.1766H87.9388C87.2324 70.1766 86.8564 70.4208 86.8109 70.9091L86.806 70.9921C86.806 71.1678 86.8678 71.3127 86.9915 71.4266C87.1152 71.5406 87.2845 71.5975 87.4993 71.5975ZM92.6556 65.9969V67.2958H93.5589V68.3309H92.6556V70.9677C92.6556 71.163 92.693 71.3029 92.7679 71.3876C92.8428 71.4722 92.986 71.5145 93.1976 71.5145C93.3538 71.5145 93.4922 71.5031 93.6126 71.4803V72.5497C93.3359 72.6343 93.0511 72.6766 92.7581 72.6766C91.7685 72.6766 91.264 72.177 91.2444 71.1776V68.3309H90.473V67.2958H91.2444V65.9969H92.6556ZM95.8343 72.579H94.4183V67.2958H95.8343V72.579ZM94.3353 65.9286C94.3353 65.717 94.4053 65.5428 94.5452 65.4061C94.6885 65.2694 94.8821 65.201 95.1263 65.201C95.3672 65.201 95.5592 65.2694 95.7025 65.4061C95.8457 65.5428 95.9173 65.717 95.9173 65.9286C95.9173 66.1434 95.8441 66.3192 95.6976 66.4559C95.5543 66.5927 95.3639 66.661 95.1263 66.661C94.8887 66.661 94.6966 66.5927 94.5501 66.4559C94.4069 66.3192 94.3353 66.1434 94.3353 65.9286ZM96.7816 69.8885C96.7816 69.3645 96.8825 68.8973 97.0843 68.4872C97.2861 68.077 97.5758 67.7596 97.9534 67.535C98.3343 67.3104 98.7754 67.1981 99.2767 67.1981C99.9896 67.1981 100.571 67.4162 101.02 67.8524C101.472 68.2886 101.725 68.8811 101.777 69.6298L101.786 69.9911C101.786 70.8016 101.56 71.4527 101.108 71.9442C100.655 72.4325 100.048 72.6766 99.2864 72.6766C98.5247 72.6766 97.916 72.4325 97.4603 71.9442C97.0078 71.4559 96.7816 70.7919 96.7816 69.952V69.8885ZM98.1927 69.9911C98.1927 70.4924 98.2871 70.8765 98.4759 71.1434C98.6647 71.4071 98.9349 71.5389 99.2864 71.5389C99.6282 71.5389 99.8952 71.4087 100.087 71.1483C100.279 70.8846 100.375 70.4647 100.375 69.8885C100.375 69.397 100.279 69.0162 100.087 68.746C99.8952 68.4758 99.625 68.3407 99.2767 68.3407C98.9316 68.3407 98.6647 68.4758 98.4759 68.746C98.2871 69.0129 98.1927 69.4279 98.1927 69.9911ZM103.954 67.2958L103.998 67.9061C104.376 67.4341 104.882 67.1981 105.517 67.1981C106.077 67.1981 106.493 67.3625 106.767 67.6913C107.04 68.0201 107.18 68.5116 107.187 69.1659V72.579H105.776V69.2001C105.776 68.9006 105.711 68.6841 105.58 68.5507C105.45 68.4139 105.234 68.3456 104.931 68.3456C104.534 68.3456 104.236 68.5149 104.037 68.8534V72.579H102.626V67.2958H103.954ZM111.122 71.119C111.122 70.9465 111.036 70.8114 110.864 70.7137C110.694 70.6128 110.421 70.5233 110.043 70.4452C108.787 70.1815 108.159 69.6477 108.159 68.8436C108.159 68.3749 108.352 67.9843 108.74 67.6718C109.13 67.356 109.64 67.1981 110.268 67.1981C110.938 67.1981 111.474 67.356 111.874 67.6718C112.278 67.9875 112.48 68.3977 112.48 68.9022H111.069C111.069 68.7004 111.004 68.5344 110.873 68.4042C110.743 68.2707 110.54 68.204 110.263 68.204C110.025 68.204 109.841 68.2577 109.711 68.3651C109.581 68.4725 109.516 68.6093 109.516 68.7753C109.516 68.9315 109.589 69.0585 109.736 69.1561C109.885 69.2505 110.136 69.3335 110.488 69.4052C110.839 69.4735 111.135 69.5516 111.376 69.6395C112.122 69.913 112.494 70.3866 112.494 71.0604C112.494 71.5422 112.288 71.9328 111.874 72.2323C111.461 72.5285 110.927 72.6766 110.273 72.6766C109.83 72.6766 109.436 72.5985 109.091 72.4423C108.749 72.2828 108.481 72.0663 108.285 71.7928C108.09 71.5162 107.992 71.2183 107.992 70.8993H109.33C109.343 71.1499 109.436 71.342 109.609 71.4755C109.781 71.6089 110.012 71.6757 110.302 71.6757C110.572 71.6757 110.776 71.6252 110.912 71.5243C111.052 71.4201 111.122 71.285 111.122 71.119Z" fill="white"/>
<path d="M62.1001 82.0049C62.1001 82.417 62.0347 82.7725 61.9039 83.0713C61.773 83.3682 61.5894 83.6006 61.3531 83.7686L62.1148 84.3662L61.731 84.7207L60.8316 84.0059C60.691 84.041 60.5425 84.0586 60.3863 84.0586C60.0503 84.0586 59.7525 83.9766 59.4927 83.8125C59.233 83.6465 59.0308 83.4111 58.8863 83.1064C58.7437 82.7998 58.6705 82.4453 58.6666 82.043V81.7354C58.6666 81.3252 58.7378 80.9629 58.8804 80.6484C59.023 80.334 59.2242 80.0938 59.4839 79.9277C59.7457 79.7598 60.0445 79.6758 60.3804 79.6758C60.7242 79.6758 61.0259 79.7588 61.2857 79.9248C61.5474 80.0908 61.7486 80.3301 61.8892 80.6426C62.0298 80.9531 62.1001 81.3164 62.1001 81.7324V82.0049ZM61.5376 81.7295C61.5376 81.2275 61.4371 80.8408 61.2359 80.5693C61.0367 80.2959 60.7515 80.1592 60.3804 80.1592C60.0269 80.1592 59.7476 80.2949 59.5425 80.5664C59.3394 80.8359 59.2349 81.2109 59.2291 81.6914V82.0049C59.2291 82.4932 59.3306 82.8779 59.5337 83.1592C59.7388 83.4404 60.023 83.5811 60.3863 83.5811C60.7496 83.5811 61.0308 83.4492 61.23 83.1855C61.4292 82.9199 61.5318 82.54 61.5376 82.0459V81.7295ZM64.8394 83.6865C64.6285 83.9346 64.3189 84.0586 63.9107 84.0586C63.5728 84.0586 63.315 83.9609 63.1373 83.7656C62.9615 83.5684 62.8726 83.2773 62.8707 82.8926V80.8301H63.4126V82.8779C63.4126 83.3584 63.608 83.5986 63.9986 83.5986C64.4126 83.5986 64.688 83.4443 64.8248 83.1357V80.8301H65.3667V84H64.8511L64.8394 83.6865ZM68.15 84C68.1187 83.9375 68.0933 83.8262 68.0738 83.666C67.8218 83.9277 67.521 84.0586 67.1714 84.0586C66.8589 84.0586 66.6021 83.9707 66.4009 83.7949C66.2017 83.6172 66.1021 83.3926 66.1021 83.1211C66.1021 82.791 66.2271 82.5352 66.4771 82.3535C66.7291 82.1699 67.0826 82.0781 67.5376 82.0781H68.065V81.8291C68.065 81.6396 68.0084 81.4893 67.8951 81.3779C67.7818 81.2646 67.6148 81.208 67.3941 81.208C67.2007 81.208 67.0386 81.2568 66.9078 81.3545C66.7769 81.4521 66.7115 81.5703 66.7115 81.709H66.1666C66.1666 81.5508 66.2222 81.3984 66.3335 81.252C66.4468 81.1035 66.5992 80.9863 66.7906 80.9004C66.9839 80.8145 67.1959 80.7715 67.4263 80.7715C67.7916 80.7715 68.0777 80.8633 68.2847 81.0469C68.4917 81.2285 68.5992 81.4795 68.607 81.7998V83.2588C68.607 83.5498 68.6441 83.7812 68.7183 83.9531V84H68.15ZM67.2505 83.5869C67.4205 83.5869 67.5816 83.543 67.7339 83.4551C67.8863 83.3672 67.9966 83.2529 68.065 83.1123V82.4619H67.6402C66.9761 82.4619 66.6441 82.6562 66.6441 83.0449C66.6441 83.2148 66.7007 83.3477 66.814 83.4434C66.9273 83.5391 67.0728 83.5869 67.2505 83.5869ZM70.9888 81.3164C70.9068 81.3027 70.8179 81.2959 70.7222 81.2959C70.3667 81.2959 70.1255 81.4473 69.9986 81.75V84H69.4566V80.8301H69.9839L69.9927 81.1963C70.1705 80.9131 70.4224 80.7715 70.7486 80.7715C70.8541 80.7715 70.9341 80.7852 70.9888 80.8125V81.3164ZM72.3716 80.0625V80.8301H72.9634V81.249H72.3716V83.2148C72.3716 83.3418 72.398 83.4375 72.4507 83.502C72.5035 83.5645 72.5933 83.5957 72.7203 83.5957C72.7828 83.5957 72.8687 83.584 72.9781 83.5605V84C72.8355 84.0391 72.6968 84.0586 72.5621 84.0586C72.3199 84.0586 72.1373 83.9854 72.0142 83.8389C71.8912 83.6924 71.8296 83.4844 71.8296 83.2148V81.249H71.2525V80.8301H71.8296V80.0625H72.3716ZM74.9146 84.0586C74.4849 84.0586 74.1353 83.918 73.8658 83.6367C73.5962 83.3535 73.4615 82.9756 73.4615 82.5029V82.4033C73.4615 82.0889 73.521 81.8086 73.6402 81.5625C73.7613 81.3145 73.9292 81.1211 74.1441 80.9824C74.3609 80.8418 74.5953 80.7715 74.8472 80.7715C75.2593 80.7715 75.5796 80.9072 75.8082 81.1787C76.0367 81.4502 76.1509 81.8389 76.1509 82.3447V82.5703H74.0035C74.0113 82.8828 74.1021 83.1357 74.2759 83.3291C74.4517 83.5205 74.6744 83.6162 74.9439 83.6162C75.1353 83.6162 75.2974 83.5771 75.4302 83.499C75.563 83.4209 75.6792 83.3174 75.7789 83.1885L76.1099 83.4463C75.8443 83.8545 75.4459 84.0586 74.9146 84.0586ZM74.8472 81.2168C74.6285 81.2168 74.4449 81.2969 74.2964 81.457C74.148 81.6152 74.0562 81.8379 74.021 82.125H75.6089V82.084C75.5933 81.8086 75.5191 81.5957 75.3863 81.4453C75.2535 81.293 75.0738 81.2168 74.8472 81.2168ZM78.313 81.3164C78.231 81.3027 78.1421 81.2959 78.0464 81.2959C77.691 81.2959 77.4498 81.4473 77.3228 81.75V84H76.7808V80.8301H77.3082L77.3169 81.1963C77.4947 80.9131 77.7466 80.7715 78.0728 80.7715C78.1783 80.7715 78.2584 80.7852 78.313 80.8125V81.3164ZM79.4029 84H78.8609V79.5H79.4029V84ZM81.3101 83.2061L82.0484 80.8301H82.6285L81.3541 84.4893C81.1568 85.0166 80.8433 85.2803 80.4136 85.2803L80.3111 85.2715L80.1089 85.2334V84.7939L80.2554 84.8057C80.439 84.8057 80.5816 84.7686 80.6832 84.6943C80.7867 84.6201 80.8716 84.4844 80.938 84.2871L81.0582 83.9648L79.9273 80.8301H80.5191L81.3101 83.2061ZM87.5181 80.1973H86.147V84H85.5875V80.1973H84.2193V79.7344H87.5181V80.1973ZM89.689 84C89.6578 83.9375 89.6324 83.8262 89.6128 83.666C89.3609 83.9277 89.0601 84.0586 88.7105 84.0586C88.398 84.0586 88.1412 83.9707 87.94 83.7949C87.7408 83.6172 87.6412 83.3926 87.6412 83.1211C87.6412 82.791 87.7662 82.5352 88.0162 82.3535C88.2681 82.1699 88.6216 82.0781 89.0767 82.0781H89.6041V81.8291C89.6041 81.6396 89.5474 81.4893 89.4341 81.3779C89.3209 81.2646 89.1539 81.208 88.9332 81.208C88.7398 81.208 88.5777 81.2568 88.4468 81.3545C88.316 81.4521 88.2505 81.5703 88.2505 81.709H87.7056C87.7056 81.5508 87.7613 81.3984 87.8726 81.252C87.9859 81.1035 88.1382 80.9863 88.3296 80.9004C88.523 80.8145 88.7349 80.7715 88.9654 80.7715C89.3306 80.7715 89.6167 80.8633 89.8238 81.0469C90.0308 81.2285 90.1382 81.4795 90.146 81.7998V83.2588C90.146 83.5498 90.1832 83.7812 90.2574 83.9531V84H89.689ZM88.7896 83.5869C88.9595 83.5869 89.1207 83.543 89.273 83.4551C89.4253 83.3672 89.5357 83.2529 89.6041 83.1123V82.4619H89.1792C88.5152 82.4619 88.1832 82.6562 88.1832 83.0449C88.1832 83.2148 88.2398 83.3477 88.3531 83.4434C88.4664 83.5391 88.6119 83.5869 88.7896 83.5869ZM92.5279 81.3164C92.4459 81.3027 92.357 81.2959 92.2613 81.2959C91.9058 81.2959 91.6646 81.4473 91.5376 81.75V84H90.9957V80.8301H91.523L91.5318 81.1963C91.7095 80.9131 91.9615 80.7715 92.2876 80.7715C92.3931 80.7715 92.4732 80.7852 92.5279 80.8125V81.3164ZM92.8414 82.3887C92.8414 81.8945 92.9556 81.502 93.1841 81.2109C93.4126 80.918 93.7154 80.7715 94.0923 80.7715C94.4791 80.7715 94.7808 80.9082 94.9976 81.1816L95.024 80.8301H95.5191V83.9238C95.5191 84.334 95.397 84.6572 95.1529 84.8936C94.9107 85.1299 94.5845 85.248 94.1744 85.248C93.9459 85.248 93.7222 85.1992 93.5035 85.1016C93.2847 85.0039 93.1177 84.8701 93.0025 84.7002L93.2837 84.375C93.5162 84.6621 93.8003 84.8057 94.1363 84.8057C94.4 84.8057 94.605 84.7314 94.7515 84.583C94.9 84.4346 94.9742 84.2256 94.9742 83.9561V83.6836C94.7574 83.9336 94.4615 84.0586 94.0865 84.0586C93.7154 84.0586 93.4146 83.9092 93.1841 83.6104C92.9556 83.3115 92.8414 82.9043 92.8414 82.3887ZM93.3863 82.4502C93.3863 82.8076 93.4595 83.0889 93.606 83.2939C93.7525 83.4971 93.9576 83.5986 94.2212 83.5986C94.563 83.5986 94.814 83.4434 94.9742 83.1328V81.6855C94.8082 81.3828 94.5591 81.2314 94.2271 81.2314C93.9634 81.2314 93.7574 81.334 93.6089 81.5391C93.4605 81.7441 93.3863 82.0479 93.3863 82.4502ZM97.6548 84.0586C97.2251 84.0586 96.8755 83.918 96.606 83.6367C96.3365 83.3535 96.2017 82.9756 96.2017 82.5029V82.4033C96.2017 82.0889 96.2613 81.8086 96.3804 81.5625C96.5015 81.3145 96.6695 81.1211 96.8843 80.9824C97.1011 80.8418 97.3355 80.7715 97.5875 80.7715C97.9996 80.7715 98.3199 80.9072 98.5484 81.1787C98.7769 81.4502 98.8912 81.8389 98.8912 82.3447V82.5703H96.7437C96.7515 82.8828 96.8423 83.1357 97.0162 83.3291C97.1919 83.5205 97.4146 83.6162 97.6841 83.6162C97.8755 83.6162 98.0376 83.5771 98.1705 83.499C98.3033 83.4209 98.4195 83.3174 98.5191 83.1885L98.8501 83.4463C98.5845 83.8545 98.1861 84.0586 97.6548 84.0586ZM97.5875 81.2168C97.3687 81.2168 97.1851 81.2969 97.0367 81.457C96.8882 81.6152 96.7964 81.8379 96.7613 82.125H98.3492V82.084C98.3335 81.8086 98.2593 81.5957 98.1265 81.4453C97.9937 81.293 97.814 81.2168 97.5875 81.2168ZM100.256 80.0625V80.8301H100.848V81.249H100.256V83.2148C100.256 83.3418 100.283 83.4375 100.335 83.502C100.388 83.5645 100.478 83.5957 100.605 83.5957C100.668 83.5957 100.753 83.584 100.863 83.5605V84C100.72 84.0391 100.582 84.0586 100.447 84.0586C100.205 84.0586 100.022 83.9854 99.899 83.8389C99.7759 83.6924 99.7144 83.4844 99.7144 83.2148V81.249H99.1373V80.8301H99.7144V80.0625H100.256ZM103.33 83.1592C103.33 83.0127 103.274 82.8994 103.163 82.8193C103.053 82.7373 102.861 82.667 102.585 82.6084C102.312 82.5498 102.094 82.4795 101.932 82.3975C101.772 82.3154 101.653 82.2178 101.575 82.1045C101.499 81.9912 101.46 81.8564 101.46 81.7002C101.46 81.4404 101.57 81.2207 101.789 81.041C102.009 80.8613 102.291 80.7715 102.632 80.7715C102.992 80.7715 103.283 80.8643 103.505 81.0498C103.73 81.2354 103.842 81.4727 103.842 81.7617H103.297C103.297 81.6133 103.234 81.4854 103.107 81.3779C102.982 81.2705 102.824 81.2168 102.632 81.2168C102.435 81.2168 102.281 81.2598 102.169 81.3457C102.058 81.4316 102.002 81.5439 102.002 81.6826C102.002 81.8135 102.054 81.9121 102.158 81.9785C102.261 82.0449 102.448 82.1084 102.717 82.1689C102.989 82.2295 103.209 82.3018 103.377 82.3857C103.544 82.4697 103.669 82.5713 103.749 82.6904C103.831 82.8076 103.872 82.9512 103.872 83.1211C103.872 83.4043 103.758 83.6318 103.532 83.8037C103.305 83.9736 103.011 84.0586 102.65 84.0586C102.396 84.0586 102.171 84.0137 101.976 83.9238C101.781 83.834 101.627 83.709 101.516 83.5488C101.407 83.3867 101.352 83.2119 101.352 83.0244H101.894C101.904 83.2061 101.976 83.3506 102.111 83.458C102.248 83.5635 102.427 83.6162 102.65 83.6162C102.855 83.6162 103.019 83.5752 103.142 83.4932C103.267 83.4092 103.33 83.2979 103.33 83.1592Z" fill="white"/>
<ellipse cx="53.3402" cy="82.4408" rx="0.99704" ry="0.993423" fill="white"/>
<path d="M62.4526 89.4259C62.4526 89.838 62.3872 90.1935 62.2563 90.4923C62.1255 90.7892 61.9419 91.0216 61.7056 91.1896L62.4673 91.7872L62.0835 92.1417L61.1841 91.4269C61.0434 91.462 60.895 91.4796 60.7388 91.4796C60.4028 91.4796 60.105 91.3976 59.8452 91.2335C59.5854 91.0675 59.3833 90.8322 59.2388 90.5275C59.0962 90.2208 59.0229 89.8663 59.019 89.464V89.1564C59.019 88.7462 59.0903 88.3839 59.2329 88.0695C59.3755 87.755 59.5766 87.5148 59.8364 87.3488C60.0981 87.1808 60.397 87.0968 60.7329 87.0968C61.0766 87.0968 61.3784 87.1798 61.6382 87.3458C61.8999 87.5118 62.1011 87.7511 62.2417 88.0636C62.3823 88.3741 62.4526 88.7374 62.4526 89.1534V89.4259ZM61.8901 89.1505C61.8901 88.6486 61.7895 88.2618 61.5884 87.9904C61.3891 87.7169 61.104 87.5802 60.7329 87.5802C60.3794 87.5802 60.1001 87.7159 59.895 87.9874C59.6919 88.257 59.5874 88.632 59.5815 89.1124V89.4259C59.5815 89.9142 59.6831 90.299 59.8862 90.5802C60.0913 90.8615 60.3755 91.0021 60.7388 91.0021C61.102 91.0021 61.3833 90.8702 61.5825 90.6066C61.7817 90.3409 61.8843 89.9611 61.8901 89.4669V89.1505ZM65.1919 91.1075C64.9809 91.3556 64.6714 91.4796 64.2632 91.4796C63.9253 91.4796 63.6675 91.382 63.4897 91.1866C63.3139 90.9894 63.2251 90.6984 63.2231 90.3136V88.2511H63.7651V90.299C63.7651 90.7794 63.9604 91.0197 64.3511 91.0197C64.7651 91.0197 65.0405 90.8654 65.1772 90.5568V88.2511H65.7192V91.421H65.2036L65.1919 91.1075ZM66.4018 89.8068C66.4018 89.4962 66.4624 89.2169 66.5835 88.9689C66.7065 88.7208 66.8764 88.5294 67.0932 88.3947C67.312 88.2599 67.561 88.1925 67.8403 88.1925C68.272 88.1925 68.6206 88.3419 68.8862 88.6407C69.1538 88.9396 69.2876 89.337 69.2876 89.8331V89.8712C69.2876 90.1798 69.228 90.4572 69.1089 90.7032C68.9917 90.9474 68.8227 91.1378 68.602 91.2745C68.3833 91.4113 68.1313 91.4796 67.8462 91.4796C67.4165 91.4796 67.0679 91.3302 66.8003 91.0314C66.5347 90.7325 66.4018 90.337 66.4018 89.8448V89.8068ZM66.9468 89.8712C66.9468 90.2228 67.0278 90.505 67.1899 90.7179C67.354 90.9308 67.5727 91.0372 67.8462 91.0372C68.1216 91.0372 68.3403 90.9298 68.5024 90.715C68.6645 90.4982 68.7456 90.1954 68.7456 89.8068C68.7456 89.4591 68.6626 89.1779 68.4966 88.963C68.3325 88.7462 68.1138 88.6378 67.8403 88.6378C67.5727 88.6378 67.3569 88.7443 67.1929 88.9572C67.0288 89.17 66.9468 89.4747 66.9468 89.8712ZM70.7026 87.4835V88.2511H71.2944V88.67H70.7026V90.6359C70.7026 90.7628 70.729 90.8585 70.7817 90.923C70.8345 90.9855 70.9243 91.0167 71.0513 91.0167C71.1138 91.0167 71.1997 91.005 71.3091 90.9816V91.421C71.1665 91.4601 71.0278 91.4796 70.8931 91.4796C70.6509 91.4796 70.4682 91.4064 70.3452 91.2599C70.2222 91.1134 70.1606 90.9054 70.1606 90.6359V88.67H69.5835V88.2511H70.1606V87.4835H70.7026ZM73.8872 91.421C73.8559 91.3585 73.8306 91.2472 73.811 91.087C73.5591 91.3488 73.2583 91.4796 72.9087 91.4796C72.5962 91.4796 72.3393 91.3917 72.1382 91.2159C71.9389 91.0382 71.8393 90.8136 71.8393 90.5421C71.8393 90.212 71.9643 89.9562 72.2143 89.7745C72.4663 89.5909 72.8198 89.4991 73.2749 89.4991H73.8022V89.2501C73.8022 89.0607 73.7456 88.9103 73.6323 88.799C73.519 88.6857 73.352 88.629 73.1313 88.629C72.938 88.629 72.7759 88.6779 72.645 88.7755C72.5141 88.8732 72.4487 88.9913 72.4487 89.13H71.9038C71.9038 88.9718 71.9595 88.8195 72.0708 88.673C72.1841 88.5245 72.3364 88.4073 72.5278 88.3214C72.7212 88.2355 72.9331 88.1925 73.1636 88.1925C73.5288 88.1925 73.8149 88.2843 74.022 88.4679C74.229 88.6495 74.3364 88.9005 74.3442 89.2208V90.6798C74.3442 90.9708 74.3813 91.2023 74.4556 91.3741V91.421H73.8872ZM72.9878 91.0079C73.1577 91.0079 73.3188 90.964 73.4712 90.8761C73.6235 90.7882 73.7339 90.674 73.8022 90.5333V89.8829H73.3774C72.7134 89.8829 72.3813 90.0773 72.3813 90.4659C72.3813 90.6359 72.438 90.7687 72.5513 90.8644C72.6645 90.9601 72.81 91.0079 72.9878 91.0079ZM79.1225 90.3077H77.3354L76.9341 91.421H76.354L77.9829 87.1554H78.4751L80.1069 91.421H79.5298L79.1225 90.3077ZM77.5054 89.8448H78.9556L78.229 87.8497L77.5054 89.8448ZM81.2788 87.4835V88.2511H81.8706V88.67H81.2788V90.6359C81.2788 90.7628 81.3052 90.8585 81.3579 90.923C81.4106 90.9855 81.5005 91.0167 81.6274 91.0167C81.6899 91.0167 81.7759 91.005 81.8852 90.9816V91.421C81.7427 91.4601 81.604 91.4796 81.4692 91.4796C81.227 91.4796 81.0444 91.4064 80.9214 91.2599C80.7983 91.1134 80.7368 90.9054 80.7368 90.6359V88.67H80.1597V88.2511H80.7368V87.4835H81.2788ZM83.2417 87.4835V88.2511H83.8335V88.67H83.2417V90.6359C83.2417 90.7628 83.2681 90.8585 83.3208 90.923C83.3735 90.9855 83.4634 91.0167 83.5903 91.0167C83.6528 91.0167 83.7388 91.005 83.8481 90.9816V91.421C83.7056 91.4601 83.5669 91.4796 83.4321 91.4796C83.1899 91.4796 83.0073 91.4064 82.8843 91.2599C82.7612 91.1134 82.6997 90.9054 82.6997 90.6359V88.67H82.1225V88.2511H82.6997V87.4835H83.2417ZM86.4263 91.421C86.395 91.3585 86.3696 91.2472 86.3501 91.087C86.0981 91.3488 85.7973 91.4796 85.4477 91.4796C85.1352 91.4796 84.8784 91.3917 84.6772 91.2159C84.478 91.0382 84.3784 90.8136 84.3784 90.5421C84.3784 90.212 84.5034 89.9562 84.7534 89.7745C85.0054 89.5909 85.3589 89.4991 85.8139 89.4991H86.3413V89.2501C86.3413 89.0607 86.2847 88.9103 86.1714 88.799C86.0581 88.6857 85.8911 88.629 85.6704 88.629C85.477 88.629 85.3149 88.6779 85.1841 88.7755C85.0532 88.8732 84.9878 88.9913 84.9878 89.13H84.4429C84.4429 88.9718 84.4985 88.8195 84.6098 88.673C84.7231 88.5245 84.8755 88.4073 85.0669 88.3214C85.2602 88.2355 85.4722 88.1925 85.7026 88.1925C86.0679 88.1925 86.354 88.2843 86.561 88.4679C86.7681 88.6495 86.8755 88.9005 86.8833 89.2208V90.6798C86.8833 90.9708 86.9204 91.2023 86.9946 91.3741V91.421H86.4263ZM85.5268 91.0079C85.6968 91.0079 85.8579 90.964 86.0102 90.8761C86.1626 90.7882 86.2729 90.674 86.3413 90.5333V89.8829H85.9165C85.2524 89.8829 84.9204 90.0773 84.9204 90.4659C84.9204 90.6359 84.977 90.7687 85.0903 90.8644C85.2036 90.9601 85.3491 91.0079 85.5268 91.0079ZM88.3218 91.421H87.7798V88.2511H88.3218V91.421ZM87.7358 87.4103C87.7358 87.3224 87.7622 87.2482 87.8149 87.1876C87.8696 87.1271 87.9497 87.0968 88.0552 87.0968C88.1606 87.0968 88.2407 87.1271 88.2954 87.1876C88.3501 87.2482 88.3774 87.3224 88.3774 87.4103C88.3774 87.4982 88.3501 87.5714 88.2954 87.63C88.2407 87.6886 88.1606 87.7179 88.0552 87.7179C87.9497 87.7179 87.8696 87.6886 87.8149 87.63C87.7622 87.5714 87.7358 87.4982 87.7358 87.4103ZM89.7046 88.2511L89.7222 88.6495C89.9643 88.3448 90.2807 88.1925 90.6714 88.1925C91.3413 88.1925 91.6792 88.5704 91.685 89.3263V91.421H91.1431V89.3234C91.1411 89.0948 91.0884 88.9259 90.9848 88.8165C90.8833 88.7072 90.7241 88.6525 90.5073 88.6525C90.3315 88.6525 90.1772 88.6993 90.0444 88.7931C89.9116 88.8868 89.8081 89.0099 89.7339 89.1622V91.421H89.1919V88.2511H89.7046ZM93.0122 88.2511L93.0268 88.6027C93.2593 88.3292 93.5727 88.1925 93.9673 88.1925C94.4106 88.1925 94.7124 88.3624 94.8725 88.7023C94.978 88.5499 95.1147 88.4269 95.2827 88.3331C95.4526 88.2394 95.6528 88.1925 95.8833 88.1925C96.5786 88.1925 96.9321 88.5607 96.9438 89.297V91.421H96.4018V89.3292C96.4018 89.1027 96.3501 88.9337 96.2466 88.8224C96.1431 88.7091 95.9692 88.6525 95.7251 88.6525C95.5239 88.6525 95.3569 88.713 95.2241 88.8341C95.0913 88.9532 95.0141 89.1144 94.9927 89.3175V91.421H94.4477V89.3439C94.4477 88.8829 94.2222 88.6525 93.771 88.6525C93.4155 88.6525 93.1723 88.8038 93.0415 89.1066V91.421H92.4995V88.2511H93.0122ZM99.0796 91.4796C98.6499 91.4796 98.3003 91.339 98.0307 91.0577C97.7612 90.7745 97.6264 90.3966 97.6264 89.924V89.8243C97.6264 89.5099 97.686 89.2296 97.8052 88.9835C97.9263 88.7355 98.0942 88.5421 98.3091 88.4034C98.5259 88.2628 98.7602 88.1925 99.0122 88.1925C99.4243 88.1925 99.7446 88.3282 99.9731 88.5997C100.202 88.8712 100.316 89.2599 100.316 89.7657V89.9913H98.1684C98.1763 90.3038 98.2671 90.5568 98.4409 90.7501C98.6167 90.9415 98.8393 91.0372 99.1089 91.0372C99.3003 91.0372 99.4624 90.9982 99.5952 90.92C99.728 90.8419 99.8442 90.7384 99.9438 90.6095L100.275 90.8673C100.009 91.2755 99.6108 91.4796 99.0796 91.4796ZM99.0122 88.6378C98.7934 88.6378 98.6098 88.7179 98.4614 88.8781C98.313 89.0363 98.2212 89.2589 98.186 89.546H99.7739V89.505C99.7583 89.2296 99.6841 89.0167 99.5513 88.8663C99.4184 88.714 99.2388 88.6378 99.0122 88.6378ZM101.458 88.2511L101.476 88.6495C101.718 88.3448 102.035 88.1925 102.425 88.1925C103.095 88.1925 103.433 88.5704 103.439 89.3263V91.421H102.897V89.3234C102.895 89.0948 102.842 88.9259 102.739 88.8165C102.637 88.7072 102.478 88.6525 102.261 88.6525C102.085 88.6525 101.931 88.6993 101.798 88.7931C101.666 88.8868 101.562 89.0099 101.488 89.1622V91.421H100.946V88.2511H101.458ZM104.992 87.4835V88.2511H105.583V88.67H104.992V90.6359C104.992 90.7628 105.018 90.8585 105.071 90.923C105.124 90.9855 105.213 91.0167 105.34 91.0167C105.403 91.0167 105.489 91.005 105.598 90.9816V91.421C105.456 91.4601 105.317 91.4796 105.182 91.4796C104.94 91.4796 104.757 91.4064 104.634 91.2599C104.511 91.1134 104.45 90.9054 104.45 90.6359V88.67H103.873V88.2511H104.45V87.4835H104.992Z" fill="white"/>
<path d="M54.3372 90.3881C54.3372 90.9368 53.8908 91.3816 53.3402 91.3816C52.7895 91.3816 52.3431 90.9368 52.3431 90.3881C52.3431 89.8395 52.7895 89.3947 53.3402 89.3947C53.8908 89.3947 54.3372 89.8395 54.3372 90.3881Z" fill="white"/>
<path d="M59.6691 97.6985V99.3684H59.1066V95.1028H60.6798C61.1466 95.1028 61.5119 95.2219 61.7755 95.4602C62.0411 95.6985 62.174 96.0139 62.174 96.4065C62.174 96.8206 62.0441 97.1399 61.7843 97.3645C61.5265 97.5872 61.1564 97.6985 60.674 97.6985H59.6691ZM59.6691 97.2385H60.6798C60.9806 97.2385 61.2111 97.1682 61.3712 97.0276C61.5314 96.885 61.6115 96.6799 61.6115 96.4124C61.6115 96.1584 61.5314 95.9553 61.3712 95.803C61.2111 95.6506 60.9913 95.5715 60.712 95.5657H59.6691V97.2385ZM63.3956 99.3684H62.8536V96.1985H63.3956V99.3684ZM62.8097 95.3577C62.8097 95.2698 62.8361 95.1956 62.8888 95.135C62.9435 95.0745 63.0236 95.0442 63.129 95.0442C63.2345 95.0442 63.3146 95.0745 63.3693 95.135C63.424 95.1956 63.4513 95.2698 63.4513 95.3577C63.4513 95.4456 63.424 95.5188 63.3693 95.5774C63.3146 95.636 63.2345 95.6653 63.129 95.6653C63.0236 95.6653 62.9435 95.636 62.8888 95.5774C62.8361 95.5188 62.8097 95.4456 62.8097 95.3577ZM66.9435 97.8186C66.9435 98.301 66.8331 98.6897 66.6124 98.9846C66.3917 99.2795 66.0929 99.427 65.716 99.427C65.3312 99.427 65.0285 99.3049 64.8078 99.0608V100.587H64.2658V96.1985H64.7609L64.7872 96.55C65.0079 96.2766 65.3146 96.1399 65.7072 96.1399C66.088 96.1399 66.3888 96.2834 66.6095 96.5706C66.8322 96.8577 66.9435 97.2571 66.9435 97.7688V97.8186ZM66.4015 97.7571C66.4015 97.3997 66.3253 97.1174 66.173 96.9104C66.0206 96.7034 65.8117 96.5999 65.546 96.5999C65.2179 96.5999 64.9718 96.7454 64.8078 97.0364V98.551C64.9699 98.8401 65.2179 98.9846 65.5519 98.9846C65.8117 98.9846 66.0177 98.8821 66.1701 98.677C66.3244 98.47 66.4015 98.1633 66.4015 97.7571ZM68.9503 99.427C68.5206 99.427 68.171 99.2864 67.9015 99.0051C67.632 98.7219 67.4972 98.344 67.4972 97.8713V97.7717C67.4972 97.4573 67.5568 97.177 67.6759 96.9309C67.797 96.6829 67.965 96.4895 68.1798 96.3508C68.3966 96.2102 68.631 96.1399 68.8829 96.1399C69.2951 96.1399 69.6154 96.2756 69.8439 96.5471C70.0724 96.8186 70.1867 97.2073 70.1867 97.7131V97.9387H68.0392C68.047 98.2512 68.1378 98.5042 68.3117 98.6975C68.4874 98.8889 68.7101 98.9846 68.9796 98.9846C69.171 98.9846 69.3331 98.9456 69.466 98.8674C69.5988 98.7893 69.715 98.6858 69.8146 98.5569L70.1456 98.8147C69.88 99.2229 69.4816 99.427 68.9503 99.427ZM68.8829 96.5852C68.6642 96.5852 68.4806 96.6653 68.3322 96.8254C68.1837 96.9836 68.0919 97.2063 68.0568 97.4934H69.6447V97.4524C69.629 97.177 69.5548 96.9641 69.422 96.8137C69.2892 96.6614 69.1095 96.5852 68.8829 96.5852ZM71.4054 99.3684H70.8634V94.8684H71.4054V99.3684ZM72.8644 99.3684H72.3224V96.1985H72.8644V99.3684ZM72.2785 95.3577C72.2785 95.2698 72.3048 95.1956 72.3576 95.135C72.4122 95.0745 72.4923 95.0442 72.5978 95.0442C72.7033 95.0442 72.7833 95.0745 72.838 95.135C72.8927 95.1956 72.9201 95.2698 72.9201 95.3577C72.9201 95.4456 72.8927 95.5188 72.838 95.5774C72.7833 95.636 72.7033 95.6653 72.5978 95.6653C72.4923 95.6653 72.4122 95.636 72.3576 95.5774C72.3048 95.5188 72.2785 95.4456 72.2785 95.3577ZM74.2472 96.1985L74.2648 96.5969C74.507 96.2922 74.8234 96.1399 75.214 96.1399C75.8839 96.1399 76.2218 96.5178 76.2277 97.2737V99.3684H75.6857V97.2708C75.6837 97.0422 75.631 96.8733 75.5275 96.7639C75.4259 96.6545 75.2667 96.5999 75.0499 96.5999C74.8742 96.5999 74.7199 96.6467 74.587 96.7405C74.4542 96.8342 74.3507 96.9573 74.2765 97.1096V99.3684H73.7345V96.1985H74.2472ZM78.3605 99.427C77.9308 99.427 77.5812 99.2864 77.3117 99.0051C77.0421 98.7219 76.9074 98.344 76.9074 97.8713V97.7717C76.9074 97.4573 76.9669 97.177 77.0861 96.9309C77.2072 96.6829 77.3751 96.4895 77.59 96.3508C77.8068 96.2102 78.0411 96.1399 78.2931 96.1399C78.7052 96.1399 79.0255 96.2756 79.254 96.5471C79.4826 96.8186 79.5968 97.2073 79.5968 97.7131V97.9387H77.4494C77.4572 98.2512 77.548 98.5042 77.7218 98.6975C77.8976 98.8889 78.1203 98.9846 78.3898 98.9846C78.5812 98.9846 78.7433 98.9456 78.8761 98.8674C79.0089 98.7893 79.1251 98.6858 79.2247 98.5569L79.5558 98.8147C79.2902 99.2229 78.8917 99.427 78.3605 99.427ZM78.2931 96.5852C78.0744 96.5852 77.8908 96.6653 77.7423 96.8254C77.5939 96.9836 77.5021 97.2063 77.4669 97.4934H79.0548V97.4524C79.0392 97.177 78.965 96.9641 78.8322 96.8137C78.6994 96.6614 78.5197 96.5852 78.2931 96.5852ZM84.9494 98.8088C84.8048 99.0159 84.6027 99.1711 84.3429 99.2747C84.0851 99.3762 83.7843 99.427 83.4406 99.427C83.0929 99.427 82.7843 99.3459 82.5148 99.1838C82.2453 99.0198 82.0363 98.7874 81.8878 98.4866C81.7413 98.1858 81.6661 97.8372 81.6622 97.4407V97.0686C81.6622 96.426 81.8117 95.928 82.1105 95.5745C82.4113 95.2209 82.8331 95.0442 83.3761 95.0442C83.8214 95.0442 84.1798 95.1584 84.4513 95.387C84.7228 95.6135 84.8888 95.9358 84.9494 96.3538H84.3869C84.2814 95.7893 83.9454 95.5071 83.379 95.5071C83.0021 95.5071 82.716 95.6399 82.5206 95.9055C82.3273 96.1692 82.2296 96.552 82.2277 97.054V97.4026C82.2277 97.8811 82.337 98.262 82.5558 98.5452C82.7745 98.8264 83.0704 98.967 83.4435 98.967C83.6544 98.967 83.839 98.9436 83.9972 98.8967C84.1554 98.8499 84.2863 98.7708 84.3898 98.6594V97.7014H83.4025V97.2444H84.9494V98.8088ZM87.337 96.6848C87.255 96.6711 87.1661 96.6643 87.0704 96.6643C86.715 96.6643 86.4738 96.8157 86.3468 97.1184V99.3684H85.8048V96.1985H86.3322L86.341 96.5647C86.5187 96.2815 86.7706 96.1399 87.0968 96.1399C87.2023 96.1399 87.2824 96.1536 87.337 96.1809V96.6848ZM87.6359 97.7542C87.6359 97.4436 87.6964 97.1643 87.8175 96.9163C87.9406 96.6682 88.1105 96.4768 88.3273 96.342C88.546 96.2073 88.7951 96.1399 89.0744 96.1399C89.506 96.1399 89.8546 96.2893 90.1203 96.5881C90.3878 96.887 90.5216 97.2844 90.5216 97.7805V97.8186C90.5216 98.1272 90.462 98.4045 90.3429 98.6506C90.2257 98.8948 90.0568 99.0852 89.8361 99.2219C89.6173 99.3586 89.3654 99.427 89.0802 99.427C88.6505 99.427 88.3019 99.2776 88.0343 98.9788C87.7687 98.6799 87.6359 98.2844 87.6359 97.7922V97.7542ZM88.1808 97.8186C88.1808 98.1702 88.2619 98.4524 88.424 98.6653C88.588 98.8782 88.8068 98.9846 89.0802 98.9846C89.3556 98.9846 89.5744 98.8772 89.7365 98.6624C89.8986 98.4456 89.9796 98.1428 89.9796 97.7542C89.9796 97.4065 89.8966 97.1252 89.7306 96.9104C89.5665 96.6936 89.3478 96.5852 89.0744 96.5852C88.8068 96.5852 88.591 96.6917 88.4269 96.9045C88.2628 97.1174 88.1808 97.4221 88.1808 97.8186ZM94.0079 98.6213L94.6173 96.1985H95.1593L94.2365 99.3684H93.797L93.0265 96.9661L92.2765 99.3684H91.837L90.9171 96.1985H91.4562L92.0802 98.5715L92.8185 96.1985H93.255L94.0079 98.6213ZM96.4484 95.4309V96.1985H97.0402V96.6174H96.4484V98.5833C96.4484 98.7102 96.4747 98.8059 96.5275 98.8704C96.5802 98.9329 96.6701 98.9641 96.797 98.9641C96.8595 98.9641 96.9454 98.9524 97.0548 98.929V99.3684C96.9122 99.4075 96.7736 99.427 96.6388 99.427C96.3966 99.427 96.214 99.3538 96.091 99.2073C95.9679 99.0608 95.9064 98.8528 95.9064 98.5833V96.6174H95.3292V96.1985H95.9064V95.4309H96.4484ZM98.2179 96.5823C98.4581 96.2874 98.7706 96.1399 99.1554 96.1399C99.8253 96.1399 100.163 96.5178 100.169 97.2737V99.3684H99.6271V97.2708C99.6251 97.0422 99.5724 96.8733 99.4689 96.7639C99.3673 96.6545 99.2081 96.5999 98.9913 96.5999C98.8156 96.5999 98.6613 96.6467 98.5285 96.7405C98.3956 96.8342 98.2921 96.9573 98.2179 97.1096V99.3684H97.6759V94.8684H98.2179V96.5823ZM101.089 99.7346H100.623L102.404 95.1028H102.867L101.089 99.7346ZM104.458 98.0237L104.54 98.5862L104.66 98.0793L105.504 95.1028H105.979L106.802 98.0793L106.919 98.595L107.01 98.0208L107.672 95.1028H108.237L107.203 99.3684H106.691L105.812 96.26L105.744 95.9348L105.677 96.26L104.766 99.3684H104.253L103.222 95.1028H103.784L104.458 98.0237ZM109.368 99.3684H108.826V96.1985H109.368V99.3684ZM108.782 95.3577C108.782 95.2698 108.809 95.1956 108.861 95.135C108.916 95.0745 108.996 95.0442 109.102 95.0442C109.207 95.0442 109.287 95.0745 109.342 95.135C109.397 95.1956 109.424 95.2698 109.424 95.3577C109.424 95.4456 109.397 95.5188 109.342 95.5774C109.287 95.636 109.207 95.6653 109.102 95.6653C108.996 95.6653 108.916 95.636 108.861 95.5774C108.809 95.5188 108.782 95.4456 108.782 95.3577ZM110.751 96.1985L110.769 96.5969C111.011 96.2922 111.327 96.1399 111.718 96.1399C112.388 96.1399 112.726 96.5178 112.732 97.2737V99.3684H112.19V97.2708C112.188 97.0422 112.135 96.8733 112.031 96.7639C111.93 96.6545 111.771 96.5999 111.554 96.5999C111.378 96.5999 111.224 96.6467 111.091 96.7405C110.958 96.8342 110.855 96.9573 110.78 97.1096V99.3684H110.238V96.1985H110.751ZM116.687 97.6428H115.685V99.3684H115.119V95.1028H116.531C117.012 95.1028 117.381 95.2122 117.639 95.4309C117.899 95.6497 118.028 95.968 118.028 96.386C118.028 96.6516 117.956 96.8831 117.812 97.0803C117.669 97.2776 117.47 97.425 117.214 97.5227L118.216 99.3333V99.3684H117.612L116.687 97.6428ZM115.685 97.1829H116.549C116.828 97.1829 117.05 97.1106 117.214 96.9661C117.38 96.8215 117.463 96.6282 117.463 96.386C117.463 96.1223 117.384 95.9202 117.226 95.7795C117.069 95.6389 116.843 95.5676 116.546 95.5657H115.685V97.1829ZM120.692 99.3684C120.66 99.3059 120.635 99.1946 120.615 99.0344C120.363 99.2961 120.063 99.427 119.713 99.427C119.401 99.427 119.144 99.3391 118.943 99.1633C118.743 98.9856 118.644 98.761 118.644 98.4895C118.644 98.1594 118.769 97.9036 119.019 97.7219C119.271 97.5383 119.624 97.4465 120.079 97.4465H120.607V97.1975C120.607 97.0081 120.55 96.8577 120.437 96.7463C120.323 96.6331 120.156 96.5764 119.936 96.5764C119.742 96.5764 119.58 96.6252 119.449 96.7229C119.318 96.8206 119.253 96.9387 119.253 97.0774H118.708C118.708 96.9192 118.764 96.7668 118.875 96.6204C118.988 96.4719 119.141 96.3547 119.332 96.2688C119.526 96.1829 119.737 96.1399 119.968 96.1399C120.333 96.1399 120.619 96.2317 120.826 96.4153C121.033 96.5969 121.141 96.8479 121.149 97.1682V98.6272C121.149 98.9182 121.186 99.1497 121.26 99.3215V99.3684H120.692ZM119.792 98.9553C119.962 98.9553 120.123 98.9114 120.276 98.8235C120.428 98.7356 120.538 98.6213 120.607 98.4807V97.8303H120.182C119.518 97.8303 119.186 98.0247 119.186 98.4133C119.186 98.5833 119.242 98.7161 119.356 98.8118C119.469 98.9075 119.614 98.9553 119.792 98.9553ZM122.734 95.4309V96.1985H123.325V96.6174H122.734V98.5833C122.734 98.7102 122.76 98.8059 122.813 98.8704C122.865 98.9329 122.955 98.9641 123.082 98.9641C123.145 98.9641 123.231 98.9524 123.34 98.929V99.3684C123.197 99.4075 123.059 99.427 122.924 99.427C122.682 99.427 122.499 99.3538 122.376 99.2073C122.253 99.0608 122.192 98.8528 122.192 98.5833V96.6174H121.614V96.1985H122.192V95.4309H122.734ZM125.277 99.427C124.847 99.427 124.497 99.2864 124.228 99.0051C123.958 98.7219 123.823 98.344 123.823 97.8713V97.7717C123.823 97.4573 123.883 97.177 124.002 96.9309C124.123 96.6829 124.291 96.4895 124.506 96.3508C124.723 96.2102 124.957 96.1399 125.209 96.1399C125.621 96.1399 125.942 96.2756 126.17 96.5471C126.399 96.8186 126.513 97.2073 126.513 97.7131V97.9387H124.365C124.373 98.2512 124.464 98.5042 124.638 98.6975C124.814 98.8889 125.036 98.9846 125.306 98.9846C125.497 98.9846 125.659 98.9456 125.792 98.8674C125.925 98.7893 126.041 98.6858 126.141 98.5569L126.472 98.8147C126.206 99.2229 125.808 99.427 125.277 99.427ZM125.209 96.5852C124.99 96.5852 124.807 96.6653 124.658 96.8254C124.51 96.9836 124.418 97.2063 124.383 97.4934H125.971V97.4524C125.955 97.177 125.881 96.9641 125.748 96.8137C125.615 96.6614 125.436 96.5852 125.209 96.5852ZM128.988 98.5276C128.988 98.3811 128.933 98.2678 128.821 98.1877C128.712 98.1057 128.52 98.0354 128.244 97.9768C127.971 97.9182 127.753 97.8479 127.591 97.7659C127.431 97.6838 127.312 97.5862 127.234 97.4729C127.157 97.3596 127.119 97.2249 127.119 97.0686C127.119 96.8088 127.229 96.5891 127.447 96.4094C127.668 96.2297 127.949 96.1399 128.291 96.1399C128.651 96.1399 128.942 96.2327 129.164 96.4182C129.389 96.6038 129.501 96.8411 129.501 97.1301H128.956C128.956 96.9817 128.893 96.8538 128.766 96.7463C128.641 96.6389 128.483 96.5852 128.291 96.5852C128.094 96.5852 127.94 96.6282 127.828 96.7141C127.717 96.8 127.661 96.9124 127.661 97.051C127.661 97.1819 127.713 97.2805 127.817 97.3469C127.92 97.4133 128.107 97.4768 128.376 97.5374C128.648 97.5979 128.867 97.6702 129.035 97.7542C129.203 97.8381 129.327 97.9397 129.407 98.0588C129.489 98.176 129.53 98.3196 129.53 98.4895C129.53 98.7727 129.417 99.0002 129.191 99.1721C128.964 99.342 128.67 99.427 128.309 99.427C128.055 99.427 127.83 99.3821 127.635 99.2922C127.44 99.2024 127.286 99.0774 127.175 98.9172C127.066 98.7551 127.011 98.5803 127.011 98.3928H127.553C127.563 98.5745 127.635 98.719 127.77 98.8264C127.906 98.9319 128.086 98.9846 128.309 98.9846C128.514 98.9846 128.678 98.9436 128.801 98.8616C128.926 98.7776 128.988 98.6663 128.988 98.5276Z" fill="white"/>
<path d="M54.3372 98.3355C54.3372 98.8842 53.8908 99.3289 53.3402 99.3289C52.7895 99.3289 52.3431 98.8842 52.3431 98.3355C52.3431 97.7869 52.7895 97.3421 53.3402 97.3421C53.8908 97.3421 54.3372 97.7869 54.3372 98.3355Z" fill="white"/>
<path d="M62.1891 105.962C62.1364 106.413 61.9694 106.762 61.6881 107.008C61.4089 107.252 61.0368 107.374 60.5719 107.374C60.068 107.374 59.6637 107.194 59.359 106.832C59.0563 106.471 58.9049 105.988 58.9049 105.382V104.972C58.9049 104.576 58.9753 104.227 59.1159 103.926C59.2585 103.625 59.4596 103.395 59.7194 103.235C59.9792 103.073 60.2799 102.992 60.6217 102.992C61.0749 102.992 61.4381 103.119 61.7116 103.372C61.985 103.624 62.1442 103.974 62.1891 104.421H61.6237C61.5749 104.081 61.4684 103.835 61.3044 103.683C61.1423 103.531 60.9147 103.454 60.6217 103.454C60.2624 103.454 59.9801 103.587 59.7751 103.853C59.5719 104.119 59.4704 104.496 59.4704 104.987V105.4C59.4704 105.863 59.5671 106.231 59.7604 106.504C59.9538 106.778 60.2243 106.914 60.5719 106.914C60.8844 106.914 61.1237 106.844 61.2897 106.703C61.4577 106.561 61.569 106.314 61.6237 105.962H62.1891ZM62.7311 105.702C62.7311 105.391 62.7917 105.112 62.9128 104.864C63.0358 104.616 63.2057 104.424 63.4225 104.289C63.6413 104.155 63.8903 104.087 64.1696 104.087C64.6012 104.087 64.9499 104.237 65.2155 104.536C65.4831 104.834 65.6169 105.232 65.6169 105.728V105.766C65.6169 106.075 65.5573 106.352 65.4381 106.598C65.321 106.842 65.152 107.033 64.9313 107.169C64.7126 107.306 64.4606 107.374 64.1755 107.374C63.7458 107.374 63.3971 107.225 63.1296 106.926C62.8639 106.627 62.7311 106.232 62.7311 105.74V105.702ZM63.276 105.766C63.276 106.118 63.3571 106.4 63.5192 106.613C63.6833 106.826 63.902 106.932 64.1755 106.932C64.4508 106.932 64.6696 106.825 64.8317 106.61C64.9938 106.393 65.0749 106.09 65.0749 105.702C65.0749 105.354 64.9919 105.073 64.8258 104.858C64.6618 104.641 64.443 104.533 64.1696 104.533C63.902 104.533 63.6862 104.639 63.5221 104.852C63.3581 105.065 63.276 105.37 63.276 105.766ZM68.1423 106.475C68.1423 106.328 68.0866 106.215 67.9753 106.135C67.8659 106.053 67.6735 105.983 67.3981 105.924C67.1247 105.866 66.9069 105.795 66.7448 105.713C66.5846 105.631 66.4655 105.534 66.3874 105.42C66.3112 105.307 66.2731 105.172 66.2731 105.016C66.2731 104.756 66.3825 104.536 66.6012 104.357C66.8219 104.177 67.1032 104.087 67.445 104.087C67.8044 104.087 68.0954 104.18 68.318 104.366C68.5426 104.551 68.6549 104.788 68.6549 105.078H68.11C68.11 104.929 68.0465 104.801 67.9196 104.694C67.7946 104.586 67.6364 104.533 67.445 104.533C67.2477 104.533 67.0934 104.576 66.9821 104.661C66.8708 104.747 66.8151 104.86 66.8151 104.998C66.8151 105.129 66.8669 105.228 66.9704 105.294C67.0739 105.361 67.2604 105.424 67.5299 105.485C67.8014 105.545 68.0212 105.618 68.1891 105.702C68.3571 105.786 68.4811 105.887 68.5612 106.006C68.6432 106.123 68.6842 106.267 68.6842 106.437C68.6842 106.72 68.571 106.948 68.3444 107.12C68.1178 107.289 67.8239 107.374 67.4626 107.374C67.2087 107.374 66.984 107.329 66.7887 107.24C66.5934 107.15 66.4401 107.025 66.3288 106.865C66.2194 106.703 66.1647 106.528 66.1647 106.34H66.7067C66.7165 106.522 66.7887 106.666 66.9235 106.774C67.0602 106.879 67.2399 106.932 67.4626 106.932C67.6676 106.932 67.8317 106.891 67.9548 106.809C68.0798 106.725 68.1423 106.614 68.1423 106.475ZM70.1256 103.378V104.146H70.7174V104.565H70.1256V106.531C70.1256 106.658 70.152 106.753 70.2048 106.818C70.2575 106.88 70.3473 106.911 70.4743 106.911C70.5368 106.911 70.6227 106.9 70.7321 106.876V107.316C70.5895 107.355 70.4508 107.374 70.3161 107.374C70.0739 107.374 69.8913 107.301 69.7682 107.155C69.6452 107.008 69.5837 106.8 69.5837 106.531V104.565H69.0065V104.146H69.5837V103.378H70.1256ZM72.6979 105.702C72.6979 105.391 72.7585 105.112 72.8796 104.864C73.0026 104.616 73.1725 104.424 73.3893 104.289C73.6081 104.155 73.8571 104.087 74.1364 104.087C74.568 104.087 74.9167 104.237 75.1823 104.536C75.4499 104.834 75.5837 105.232 75.5837 105.728V105.766C75.5837 106.075 75.5241 106.352 75.4049 106.598C75.2878 106.842 75.1188 107.033 74.8981 107.169C74.6794 107.306 74.4274 107.374 74.1423 107.374C73.7126 107.374 73.3639 107.225 73.0964 106.926C72.8307 106.627 72.6979 106.232 72.6979 105.74V105.702ZM73.2428 105.766C73.2428 106.118 73.3239 106.4 73.486 106.613C73.6501 106.826 73.8688 106.932 74.1423 106.932C74.4176 106.932 74.6364 106.825 74.7985 106.61C74.9606 106.393 75.0417 106.09 75.0417 105.702C75.0417 105.354 74.9587 105.073 74.7926 104.858C74.6286 104.641 74.4098 104.533 74.1364 104.533C73.8688 104.533 73.653 104.639 73.4889 104.852C73.3249 105.065 73.2428 105.37 73.2428 105.766ZM76.5299 107.316V104.565H76.029V104.146H76.5299V103.821C76.5299 103.481 76.6208 103.218 76.8024 103.033C76.984 102.847 77.2409 102.754 77.5729 102.754C77.6979 102.754 77.8219 102.771 77.945 102.804L77.9157 103.244C77.8239 103.226 77.7262 103.217 77.6227 103.217C77.4469 103.217 77.3112 103.269 77.2155 103.372C77.1198 103.474 77.0719 103.62 77.0719 103.812V104.146H77.7487V104.565H77.0719V107.316H76.5299ZM81.1794 105.414C80.6969 105.276 80.3454 105.106 80.1247 104.905C79.9059 104.702 79.7965 104.452 79.7965 104.155C79.7965 103.819 79.9303 103.541 80.1979 103.323C80.4674 103.102 80.8171 102.992 81.2467 102.992C81.5397 102.992 81.8005 103.048 82.029 103.161C82.2594 103.275 82.4372 103.431 82.5622 103.63C82.6891 103.829 82.7526 104.047 82.7526 104.284H82.1872C82.1872 104.026 82.1051 103.824 81.9411 103.677C81.777 103.529 81.5456 103.454 81.2467 103.454C80.9694 103.454 80.7526 103.516 80.5964 103.639C80.4421 103.76 80.3649 103.929 80.3649 104.146C80.3649 104.32 80.4381 104.467 80.5846 104.588C80.7331 104.707 80.984 104.817 81.3376 104.916C81.693 105.016 81.9704 105.126 82.1696 105.247C82.3708 105.367 82.5192 105.506 82.6149 105.666C82.7126 105.827 82.7614 106.015 82.7614 106.232C82.7614 106.578 82.6266 106.855 82.3571 107.064C82.0876 107.271 81.7272 107.374 81.276 107.374C80.9831 107.374 80.7096 107.319 80.4557 107.207C80.2018 107.094 80.0055 106.94 79.8669 106.745C79.7301 106.549 79.6618 106.328 79.6618 106.079H80.2272C80.2272 106.337 80.3219 106.541 80.5114 106.692C80.7028 106.84 80.9577 106.914 81.276 106.914C81.5729 106.914 81.8005 106.854 81.9587 106.733C82.1169 106.612 82.196 106.447 82.196 106.238C82.196 106.029 82.1227 105.868 81.9762 105.754C81.8298 105.639 81.5641 105.526 81.1794 105.414ZM85.3571 107.316C85.3258 107.253 85.3005 107.142 85.2809 106.982C85.029 107.244 84.7282 107.374 84.3786 107.374C84.0661 107.374 83.8092 107.286 83.6081 107.111C83.4089 106.933 83.3092 106.708 83.3092 106.437C83.3092 106.107 83.4342 105.851 83.6842 105.669C83.9362 105.486 84.2897 105.394 84.7448 105.394H85.2721V105.145C85.2721 104.955 85.2155 104.805 85.1022 104.694C84.9889 104.58 84.8219 104.524 84.6012 104.524C84.4079 104.524 84.2458 104.573 84.1149 104.67C83.984 104.768 83.9186 104.886 83.9186 105.025H83.3737C83.3737 104.867 83.4294 104.714 83.5407 104.568C83.654 104.419 83.8063 104.302 83.9977 104.216C84.1911 104.13 84.403 104.087 84.6335 104.087C84.9987 104.087 85.2848 104.179 85.4919 104.363C85.6989 104.544 85.8063 104.795 85.8141 105.116V106.575C85.8141 106.866 85.8512 107.097 85.9255 107.269V107.316H85.3571ZM84.4577 106.903C84.6276 106.903 84.7887 106.859 84.9411 106.771C85.0934 106.683 85.2038 106.569 85.2721 106.428V105.778H84.8473C84.1833 105.778 83.8512 105.972 83.8512 106.361C83.8512 106.531 83.9079 106.663 84.0212 106.759C84.1344 106.855 84.2799 106.903 84.4577 106.903ZM87.2526 107.316H86.7106V102.816H87.2526V107.316ZM89.4381 107.374C89.0085 107.374 88.6589 107.234 88.3893 106.953C88.1198 106.669 87.985 106.291 87.985 105.819V105.719C87.985 105.405 88.0446 105.124 88.1637 104.878C88.2848 104.63 88.4528 104.437 88.6676 104.298C88.8844 104.158 89.1188 104.087 89.3708 104.087C89.7829 104.087 90.1032 104.223 90.3317 104.495C90.5602 104.766 90.6745 105.155 90.6745 105.661V105.886H88.527C88.5348 106.199 88.6256 106.452 88.7995 106.645C88.9753 106.836 89.1979 106.932 89.4674 106.932C89.6589 106.932 89.821 106.893 89.9538 106.815C90.0866 106.737 90.2028 106.633 90.3024 106.504L90.6335 106.762C90.3678 107.17 89.9694 107.374 89.4381 107.374ZM89.3708 104.533C89.152 104.533 88.9684 104.613 88.82 104.773C88.6715 104.931 88.5798 105.154 88.5446 105.441H90.1325V105.4C90.1169 105.124 90.0426 104.911 89.9098 104.761C89.777 104.609 89.5973 104.533 89.3708 104.533ZM93.1501 106.475C93.1501 106.328 93.0944 106.215 92.9831 106.135C92.8737 106.053 92.6813 105.983 92.4059 105.924C92.1325 105.866 91.9147 105.795 91.7526 105.713C91.5924 105.631 91.4733 105.534 91.3952 105.42C91.319 105.307 91.2809 105.172 91.2809 105.016C91.2809 104.756 91.3903 104.536 91.609 104.357C91.8298 104.177 92.111 104.087 92.4528 104.087C92.8122 104.087 93.1032 104.18 93.3258 104.366C93.5505 104.551 93.6628 104.788 93.6628 105.078H93.1178C93.1178 104.929 93.0544 104.801 92.9274 104.694C92.8024 104.586 92.6442 104.533 92.4528 104.533C92.2555 104.533 92.1012 104.576 91.9899 104.661C91.8786 104.747 91.8229 104.86 91.8229 104.998C91.8229 105.129 91.8747 105.228 91.9782 105.294C92.0817 105.361 92.2682 105.424 92.5378 105.485C92.8092 105.545 93.029 105.618 93.1969 105.702C93.3649 105.786 93.4889 105.887 93.569 106.006C93.651 106.123 93.6921 106.267 93.6921 106.437C93.6921 106.72 93.5788 106.948 93.3522 107.12C93.1256 107.289 92.8317 107.374 92.4704 107.374C92.2165 107.374 91.9919 107.329 91.7965 107.24C91.6012 107.15 91.4479 107.025 91.3366 106.865C91.2272 106.703 91.1725 106.528 91.1725 106.34H91.7145C91.7243 106.522 91.7965 106.666 91.9313 106.774C92.068 106.879 92.2477 106.932 92.4704 106.932C92.6755 106.932 92.8395 106.891 92.9626 106.809C93.0876 106.725 93.1501 106.614 93.1501 106.475Z" fill="white"/>
<path d="M54.3372 106.283C54.3372 106.832 53.8908 107.276 53.3402 107.276C52.7895 107.276 52.3431 106.832 52.3431 106.283C52.3431 105.734 52.7895 105.289 53.3402 105.289C53.8908 105.289 54.3372 105.734 54.3372 106.283Z" fill="white"/>
<defs>
<filter id="filter0_d" x="7.71753" y="0" width="153.062" height="121.25" filterUnits="userSpaceOnUse" color-interpolation-filters="sRGB">
<feFlood flood-opacity="0" result="BackgroundImageFix"/>
<feColorMatrix in="SourceAlpha" type="matrix" values="0 0 0 0 0 0 0 0 0 0 0 0 0 0 0 0 0 0 127 0"/>
<feOffset dy="4"/>
<feGaussianBlur stdDeviation="2"/>
<feColorMatrix type="matrix" values="0 0 0 0 0 0 0 0 0 0 0 0 0 0 0 0 0 0 0.25 0"/>
<feBlend mode="normal" in2="BackgroundImageFix" result="effect1_dropShadow"/>
<feBlend mode="normal" in="SourceGraphic" in2="effect1_dropShadow" result="shape"/>
</filter>
</defs>
</svg>
