<svg width="94" height="30" viewBox="0 0 94 30" fill="none" xmlns="http://www.w3.org/2000/svg">
<path d="M2.62939 5.14795C1.90576 4.93994 1.37842 4.68506 1.04736 4.3833C0.719238 4.07861 0.555176 3.70361 0.555176 3.2583C0.555176 2.75439 0.755859 2.33838 1.15723 2.01025C1.56152 1.6792 2.08594 1.51367 2.73047 1.51367C3.16992 1.51367 3.56104 1.59863 3.90381 1.76855C4.24951 1.93848 4.51611 2.17285 4.70361 2.47168C4.89404 2.77051 4.98926 3.09717 4.98926 3.45166H4.14111C4.14111 3.06494 4.01807 2.76172 3.77197 2.54199C3.52588 2.31934 3.17871 2.20801 2.73047 2.20801C2.31445 2.20801 1.98926 2.30029 1.75488 2.48486C1.52344 2.6665 1.40771 2.91992 1.40771 3.24512C1.40771 3.50586 1.51758 3.72705 1.7373 3.90869C1.95996 4.0874 2.33643 4.25146 2.8667 4.40088C3.3999 4.55029 3.81592 4.71582 4.11475 4.89746C4.4165 5.07617 4.63916 5.28564 4.78271 5.52588C4.9292 5.76611 5.00244 6.04883 5.00244 6.37402C5.00244 6.89258 4.80029 7.30859 4.396 7.62207C3.9917 7.93262 3.45117 8.08789 2.77441 8.08789C2.33496 8.08789 1.9248 8.00439 1.54395 7.8374C1.16309 7.66748 0.868652 7.43604 0.660645 7.14307C0.455566 6.8501 0.353027 6.51758 0.353027 6.14551H1.20117C1.20117 6.53223 1.34326 6.83838 1.62744 7.06396C1.91455 7.28662 2.29688 7.39795 2.77441 7.39795C3.21973 7.39795 3.56104 7.30713 3.79834 7.12549C4.03564 6.94385 4.1543 6.69629 4.1543 6.38281C4.1543 6.06934 4.04443 5.82764 3.82471 5.65771C3.60498 5.48486 3.20654 5.31494 2.62939 5.14795ZM9.62109 6.33008H6.94043L6.33838 8H5.46826L7.91162 1.60156H8.6499L11.0977 8H10.2319L9.62109 6.33008ZM7.19531 5.63574H9.37061L8.28076 2.64307L7.19531 5.63574ZM12.8071 7.31006H15.8394V8H11.959V1.60156H12.8071V7.31006ZM20.4185 5.04248H17.6455V7.31006H20.8667V8H16.8018V1.60156H20.8228V2.2959H17.6455V4.35254H20.4185V5.04248ZM23.8022 5.14795C23.0786 4.93994 22.5513 4.68506 22.2202 4.3833C21.8921 4.07861 21.728 3.70361 21.728 3.2583C21.728 2.75439 21.9287 2.33838 22.3301 2.01025C22.7344 1.6792 23.2588 1.51367 23.9033 1.51367C24.3428 1.51367 24.7339 1.59863 25.0767 1.76855C25.4224 1.93848 25.689 2.17285 25.8765 2.47168C26.0669 2.77051 26.1621 3.09717 26.1621 3.45166H25.314C25.314 3.06494 25.1909 2.76172 24.9448 2.54199C24.6987 2.31934 24.3516 2.20801 23.9033 2.20801C23.4873 2.20801 23.1621 2.30029 22.9277 2.48486C22.6963 2.6665 22.5806 2.91992 22.5806 3.24512C22.5806 3.50586 22.6904 3.72705 22.9102 3.90869C23.1328 4.0874 23.5093 4.25146 24.0396 4.40088C24.5728 4.55029 24.9888 4.71582 25.2876 4.89746C25.5894 5.07617 25.812 5.28564 25.9556 5.52588C26.1021 5.76611 26.1753 6.04883 26.1753 6.37402C26.1753 6.89258 25.9731 7.30859 25.5688 7.62207C25.1646 7.93262 24.624 8.08789 23.9473 8.08789C23.5078 8.08789 23.0977 8.00439 22.7168 7.8374C22.3359 7.66748 22.0415 7.43604 21.8335 7.14307C21.6284 6.8501 21.5259 6.51758 21.5259 6.14551H22.374C22.374 6.53223 22.5161 6.83838 22.8003 7.06396C23.0874 7.28662 23.4697 7.39795 23.9473 7.39795C24.3926 7.39795 24.7339 7.30713 24.9712 7.12549C25.2085 6.94385 25.3271 6.69629 25.3271 6.38281C25.3271 6.06934 25.2173 5.82764 24.9976 5.65771C24.7778 5.48486 24.3794 5.31494 23.8022 5.14795ZM30.3369 5.49512V8H29.4932V1.60156H31.853C32.5532 1.60156 33.1011 1.78027 33.4966 2.1377C33.895 2.49512 34.0942 2.96826 34.0942 3.55713C34.0942 4.17822 33.8994 4.65723 33.5098 4.99414C33.123 5.32812 32.5679 5.49512 31.8442 5.49512H30.3369ZM30.3369 4.80518H31.853C32.3042 4.80518 32.6499 4.69971 32.8901 4.48877C33.1304 4.2749 33.2505 3.96729 33.2505 3.56592C33.2505 3.18506 33.1304 2.88037 32.8901 2.65186C32.6499 2.42334 32.3203 2.30469 31.9014 2.2959H30.3369V4.80518ZM38.7876 5.04248H36.0146V7.31006H39.2358V8H35.1709V1.60156H39.1919V2.2959H36.0146V4.35254H38.7876V5.04248ZM42.6328 5.41162H41.1299V8H40.2817V1.60156H42.3999C43.1206 1.60156 43.6743 1.76562 44.061 2.09375C44.4507 2.42188 44.6455 2.89941 44.6455 3.52637C44.6455 3.9248 44.5371 4.27197 44.3203 4.56787C44.1064 4.86377 43.8076 5.08496 43.4238 5.23145L44.9268 7.94727V8H44.0215L42.6328 5.41162ZM41.1299 4.72168H42.4263C42.8452 4.72168 43.1777 4.61328 43.4238 4.39648C43.6729 4.17969 43.7974 3.88965 43.7974 3.52637C43.7974 3.13086 43.6787 2.82764 43.4414 2.6167C43.207 2.40576 42.8672 2.29883 42.4219 2.2959H41.1299V4.72168ZM49.3608 5.17432H46.6758V8H45.832V1.60156H49.7959V2.2959H46.6758V4.48438H49.3608V5.17432ZM55.7285 5.00732C55.7285 5.63428 55.623 6.18213 55.4121 6.65088C55.2012 7.1167 54.9023 7.47266 54.5156 7.71875C54.1289 7.96484 53.6777 8.08789 53.1621 8.08789C52.6582 8.08789 52.2114 7.96484 51.8218 7.71875C51.4321 7.46973 51.1289 7.1167 50.9121 6.65967C50.6982 6.19971 50.5884 5.66797 50.5825 5.06445V4.60303C50.5825 3.98779 50.6895 3.44434 50.9033 2.97266C51.1172 2.50098 51.4189 2.14063 51.8086 1.8916C52.2012 1.63965 52.6494 1.51367 53.1533 1.51367C53.666 1.51367 54.1172 1.63818 54.5068 1.88721C54.8994 2.1333 55.2012 2.49219 55.4121 2.96387C55.623 3.43262 55.7285 3.979 55.7285 4.60303V5.00732ZM54.8892 4.59424C54.8892 3.83545 54.7368 3.25391 54.4321 2.84961C54.1274 2.44238 53.7012 2.23877 53.1533 2.23877C52.6201 2.23877 52.1997 2.44238 51.8921 2.84961C51.5874 3.25391 51.4307 3.81641 51.4219 4.53711V5.00732C51.4219 5.74268 51.5757 6.32129 51.8833 6.74316C52.1938 7.16211 52.6201 7.37158 53.1621 7.37158C53.707 7.37158 54.1289 7.17383 54.4277 6.77832C54.7266 6.37988 54.8804 5.81006 54.8892 5.06885V4.59424ZM59.3408 5.41162H57.8379V8H56.9897V1.60156H59.1079C59.8286 1.60156 60.3823 1.76562 60.769 2.09375C61.1587 2.42188 61.3535 2.89941 61.3535 3.52637C61.3535 3.9248 61.2451 4.27197 61.0283 4.56787C60.8145 4.86377 60.5156 5.08496 60.1318 5.23145L61.6348 7.94727V8H60.7295L59.3408 5.41162ZM57.8379 4.72168H59.1343C59.5532 4.72168 59.8857 4.61328 60.1318 4.39648C60.3809 4.17969 60.5054 3.88965 60.5054 3.52637C60.5054 3.13086 60.3867 2.82764 60.1494 2.6167C59.915 2.40576 59.5752 2.29883 59.1299 2.2959H57.8379V4.72168ZM63.6299 1.60156L65.7217 6.82227L67.8135 1.60156H68.9077V8H68.064V5.5083L68.1431 2.81885L66.0425 8H65.3965L63.3003 2.83203L63.3838 5.5083V8H62.54V1.60156H63.6299ZM74.0098 6.33008H71.3291L70.7271 8H69.8569L72.3003 1.60156H73.0386L75.4863 8H74.6206L74.0098 6.33008ZM71.584 5.63574H73.7593L72.6694 2.64307L71.584 5.63574ZM81.2651 8H80.417L77.1958 3.06934V8H76.3477V1.60156H77.1958L80.4258 6.5542V1.60156H81.2651V8ZM87.4702 5.96973C87.3911 6.64648 87.1406 7.16943 86.7188 7.53857C86.2998 7.90479 85.7417 8.08789 85.0444 8.08789C84.2886 8.08789 83.6821 7.81689 83.2251 7.2749C82.771 6.73291 82.5439 6.00781 82.5439 5.09961V4.48438C82.5439 3.88965 82.6494 3.3667 82.8604 2.91553C83.0742 2.46436 83.376 2.11865 83.7656 1.87842C84.1553 1.63525 84.6064 1.51367 85.1191 1.51367C85.7988 1.51367 86.3438 1.7041 86.7539 2.08496C87.1641 2.46289 87.4028 2.9873 87.4702 3.6582H86.6221C86.5488 3.14844 86.3892 2.7793 86.1431 2.55078C85.8999 2.32227 85.5586 2.20801 85.1191 2.20801C84.5801 2.20801 84.1567 2.40723 83.8491 2.80566C83.5444 3.2041 83.3921 3.771 83.3921 4.50635V5.12598C83.3921 5.82031 83.5371 6.37256 83.8271 6.78271C84.1172 7.19287 84.5229 7.39795 85.0444 7.39795C85.5132 7.39795 85.8721 7.29248 86.1211 7.08154C86.373 6.86768 86.54 6.49707 86.6221 5.96973H87.4702ZM92.2427 5.04248H89.4697V7.31006H92.6909V8H88.626V1.60156H92.647V2.2959H89.4697V4.35254H92.2427V5.04248ZM3.14232 17H2.29857V10.6016H3.14232V17ZM11.3167 17H10.4685L7.24734 12.0693V17H6.3992V10.6016H7.24734L10.4773 15.5542V10.6016H11.3167V17ZM18.8143 11.2959H16.7576V17H15.9183V11.2959H13.866V10.6016H18.8143V11.2959ZM25.0902 14.0425H22.3172V16.3101H25.5384V17H21.4735V10.6016H25.4945V11.2959H22.3172V13.3525H25.0902V14.0425ZM30.6454 14.4116H29.1425V17H28.2943V10.6016H30.4125C31.1332 10.6016 31.6869 10.7656 32.0736 11.0938C32.4633 11.4219 32.6581 11.8994 32.6581 12.5264C32.6581 12.9248 32.5497 13.272 32.3329 13.5679C32.119 13.8638 31.8202 14.085 31.4364 14.2314L32.9394 16.9473V17H32.0341L30.6454 14.4116ZM29.1425 13.7217H30.4389C30.8578 13.7217 31.1903 13.6133 31.4364 13.3965C31.6854 13.1797 31.81 12.8896 31.81 12.5264C31.81 12.1309 31.6913 11.8276 31.454 11.6167C31.2196 11.4058 30.8798 11.2988 30.4345 11.2959H29.1425V13.7217ZM40.4721 17H39.624L36.4028 12.0693V17H35.5546V10.6016H36.4028L39.6328 15.5542V10.6016H40.4721V17ZM47.2929 15.3301H44.6123L44.0102 17H43.1401L45.5835 10.6016H46.3218L48.7695 17H47.9038L47.2929 15.3301ZM44.8672 14.6357H47.0425L45.9526 11.6431L44.8672 14.6357ZM55.1904 11.2959H53.1338V17H52.2945V11.2959H50.2422V10.6016H55.1904V11.2959ZM58.7549 17H57.9112V10.6016H58.7549V17ZM66.9337 14.0073C66.9337 14.6343 66.8282 15.1821 66.6173 15.6509C66.4063 16.1167 66.1075 16.4727 65.7208 16.7188C65.3341 16.9648 64.8829 17.0879 64.3673 17.0879C63.8634 17.0879 63.4166 16.9648 63.027 16.7188C62.6373 16.4697 62.3341 16.1167 62.1173 15.6597C61.9034 15.1997 61.7936 14.668 61.7877 14.0645V13.603C61.7877 12.9878 61.8946 12.4443 62.1085 11.9727C62.3224 11.501 62.6241 11.1406 63.0138 10.8916C63.4063 10.6396 63.8546 10.5137 64.3585 10.5137C64.8712 10.5137 65.3224 10.6382 65.712 10.8872C66.1046 11.1333 66.4063 11.4922 66.6173 11.9639C66.8282 12.4326 66.9337 12.979 66.9337 13.603V14.0073ZM66.0943 13.5942C66.0943 12.8354 65.942 12.2539 65.6373 11.8496C65.3326 11.4424 64.9063 11.2388 64.3585 11.2388C63.8253 11.2388 63.4049 11.4424 63.0973 11.8496C62.7926 12.2539 62.6358 12.8164 62.627 13.5371V14.0073C62.627 14.7427 62.7809 15.3213 63.0885 15.7432C63.399 16.1621 63.8253 16.3716 64.3673 16.3716C64.9122 16.3716 65.3341 16.1738 65.6329 15.7783C65.9317 15.3799 66.0855 14.8101 66.0943 14.0688V13.5942ZM74.8268 17H73.9787L70.7575 12.0693V17H69.9093V10.6016H70.7575L73.9874 15.5542V10.6016H74.8268V17ZM81.6476 15.3301H78.967L78.3649 17H77.4948L79.9382 10.6016H80.6764L83.1242 17H82.2585L81.6476 15.3301ZM79.2218 14.6357H81.3971L80.3073 11.6431L79.2218 14.6357ZM86.5437 16.3101H89.5759V17H85.6955V10.6016H86.5437V16.3101Z" fill="black"/>
<path d="M0.5 21H93" stroke="black" stroke-linecap="round"/>
<path d="M28.0464 26.6245C28.0464 27.1144 27.9598 27.5439 27.7866 27.9131C27.6134 28.2822 27.3651 28.5671 27.0415 28.7676C26.7202 28.9681 26.3511 29.0684 25.9341 29.0684C25.5216 29.0684 25.1536 28.9692 24.8301 28.771C24.5065 28.5728 24.2559 28.2902 24.0781 27.9233C23.9004 27.5542 23.8104 27.1304 23.8081 26.6519V26.4058C23.8081 25.9159 23.8958 25.4852 24.0713 25.1138C24.249 24.7401 24.4985 24.4541 24.8198 24.2559C25.1434 24.0553 25.5125 23.9551 25.9272 23.9551C26.342 23.9551 26.71 24.0553 27.0312 24.2559C27.3548 24.4541 27.6043 24.7401 27.7798 25.1138C27.9575 25.4852 28.0464 25.9147 28.0464 26.4023V26.6245ZM27.0073 26.3989C27.0073 25.8771 26.9139 25.4806 26.7271 25.2095C26.5402 24.9383 26.2736 24.8027 25.9272 24.8027C25.5832 24.8027 25.3177 24.9372 25.1309 25.2061C24.944 25.4727 24.8494 25.8646 24.8472 26.3818V26.6245C24.8472 27.1326 24.9406 27.5269 25.1274 27.8071C25.3143 28.0874 25.5832 28.2275 25.9341 28.2275C26.2782 28.2275 26.5425 28.0931 26.7271 27.8242C26.9116 27.5531 27.005 27.1589 27.0073 26.6416V26.3989ZM32.5581 24.0234V27.3013C32.5581 27.8459 32.3872 28.2765 32.0454 28.5933C31.7059 28.91 31.241 29.0684 30.6509 29.0684C30.0698 29.0684 29.6084 28.9146 29.2666 28.6069C28.9248 28.2993 28.7505 27.8766 28.7437 27.3389V24.0234H29.769V27.3081C29.769 27.634 29.8465 27.8721 30.0015 28.0225C30.1587 28.1706 30.3752 28.2446 30.6509 28.2446C31.2274 28.2446 31.5202 27.9416 31.5293 27.3354V24.0234H32.5581ZM37.145 24.854H35.6206V29H34.5952V24.854H33.0913V24.0234H37.145V24.854ZM38.7583 27.2466V29H37.7329V24.0234H39.6743C40.048 24.0234 40.3761 24.0918 40.6587 24.2285C40.9435 24.3652 41.1623 24.5601 41.3149 24.813C41.4676 25.0636 41.5439 25.3496 41.5439 25.6709C41.5439 26.1585 41.3765 26.5436 41.0415 26.8262C40.7088 27.1064 40.2474 27.2466 39.6572 27.2466H38.7583ZM38.7583 26.416H39.6743C39.9455 26.416 40.1517 26.3522 40.293 26.2246C40.4365 26.097 40.5083 25.9147 40.5083 25.6777C40.5083 25.4339 40.4365 25.2368 40.293 25.0864C40.1494 24.936 39.9512 24.8586 39.6982 24.854H38.7583V26.416ZM45.2456 26.8433H43.2769V28.1763H45.5874V29H42.2515V24.0234H45.5806V24.854H43.2769V26.04H45.2456V26.8433ZM48.0312 27.1782H47.2144V29H46.189V24.0234H48.0381C48.626 24.0234 49.0794 24.1545 49.3984 24.4165C49.7174 24.6785 49.877 25.0488 49.877 25.5273C49.877 25.8669 49.8029 26.1506 49.6548 26.3784C49.509 26.604 49.2868 26.784 48.9883 26.9185L50.0649 28.9521V29H48.9644L48.0312 27.1782ZM47.2144 26.3477H48.0415C48.299 26.3477 48.4984 26.2827 48.6396 26.1528C48.7809 26.0207 48.8516 25.8395 48.8516 25.6094C48.8516 25.3747 48.7843 25.1901 48.6499 25.0557C48.5177 24.9212 48.3138 24.854 48.0381 24.854H47.2144V26.3477ZM53.6538 26.9663H51.6851V29H50.6597V24.0234H53.8999V24.854H51.6851V26.1392H53.6538V26.9663ZM58.5825 26.6245C58.5825 27.1144 58.4959 27.5439 58.3228 27.9131C58.1496 28.2822 57.9012 28.5671 57.5776 28.7676C57.2563 28.9681 56.8872 29.0684 56.4702 29.0684C56.0578 29.0684 55.6898 28.9692 55.3662 28.771C55.0426 28.5728 54.792 28.2902 54.6143 27.9233C54.4365 27.5542 54.3465 27.1304 54.3442 26.6519V26.4058C54.3442 25.9159 54.432 25.4852 54.6074 25.1138C54.7852 24.7401 55.0347 24.4541 55.356 24.2559C55.6795 24.0553 56.0487 23.9551 56.4634 23.9551C56.8781 23.9551 57.2461 24.0553 57.5674 24.2559C57.891 24.4541 58.1405 24.7401 58.3159 25.1138C58.4937 25.4852 58.5825 25.9147 58.5825 26.4023V26.6245ZM57.5435 26.3989C57.5435 25.8771 57.45 25.4806 57.2632 25.2095C57.0763 24.9383 56.8097 24.8027 56.4634 24.8027C56.1193 24.8027 55.8538 24.9372 55.667 25.2061C55.4801 25.4727 55.3856 25.8646 55.3833 26.3818V26.6245C55.3833 27.1326 55.4767 27.5269 55.6636 27.8071C55.8504 28.0874 56.1193 28.2275 56.4702 28.2275C56.8143 28.2275 57.0786 28.0931 57.2632 27.8242C57.4478 27.5531 57.5412 27.1589 57.5435 26.6416V26.3989ZM61.1699 27.1782H60.353V29H59.3276V24.0234H61.1768C61.7646 24.0234 62.2181 24.1545 62.5371 24.4165C62.8561 24.6785 63.0156 25.0488 63.0156 25.5273C63.0156 25.8669 62.9416 26.1506 62.7935 26.3784C62.6476 26.604 62.4255 26.784 62.127 26.9185L63.2036 28.9521V29H62.103L61.1699 27.1782ZM60.353 26.3477H61.1802C61.4377 26.3477 61.637 26.2827 61.7783 26.1528C61.9196 26.0207 61.9902 25.8395 61.9902 25.6094C61.9902 25.3747 61.923 25.1901 61.7886 25.0557C61.6564 24.9212 61.4525 24.854 61.1768 24.854H60.353V26.3477ZM65.1382 24.0234L66.4165 27.6328L67.688 24.0234H69.0347V29H68.0059V27.6396L68.1084 25.2915L66.7651 29H66.061L64.7212 25.2949L64.8237 27.6396V29H63.7983V24.0234H65.1382Z" fill="#009DDB"/>
</svg>
