<svg  viewBox="0 0 104 137" fill="none" xmlns="http://www.w3.org/2000/svg">
<g filter="url(#filter0_d)">
<path d="M5 99.471L51.0784 80.1449L5 61.7391L40 80L5 99.471Z" fill="#074B65" style="mix-blend-mode:darken"/>
<path d="M5 99.471L51.0784 80.1449L5 61.7391L40 80L5 99.471Z" fill="url(#paint0_linear)"/>
<path d="M99 28.6087L51.0784 47.0145L97.748 65.8357L61.5 47L99 28.6087Z" fill="#074B65" style="mix-blend-mode:darken"/>
<path d="M99 28.6087L51.0784 47.0145L97.748 65.8357L61.5 47L99 28.6087Z" fill="url(#paint1_linear)"/>
<path d="M99 22.1667L74.1176 10.2029L6.30134 35.4859C5.51886 35.7776 5 36.5248 5 37.3598V61.7391L51.0784 80.1449L5 99.471V128L97.7134 92.5999C98.4882 92.3041 99 91.5608 99 90.7315V67.6905C99 66.8748 98.5046 66.1408 97.748 65.8357L51.0784 47.0145L99 28.6087V22.1667Z" fill="#074B65" style="mix-blend-mode:darken"/>
<path d="M99 22.1667L74.1176 10.2029L6.30134 35.4859C5.51886 35.7776 5 36.5248 5 37.3598V61.7391L51.0784 80.1449L5 99.471V128L97.7134 92.5999C98.4882 92.3041 99 91.5608 99 90.7315V67.6905C99 66.8748 98.5046 66.1408 97.748 65.8357L51.0784 47.0145L99 28.6087V22.1667Z" fill="url(#paint2_linear)"/>
<path d="M99 28.6087V22.1667L74.1176 10.2029L6.30134 35.4859M99 28.6087L51.0784 47.0145L97.748 65.8357M99 28.6087L61.5 47L97.748 65.8357M5 99.471V128L97.7134 92.5999M5 99.471L51.0784 80.1449L5 61.7391M5 99.471L40 80L5 61.7391M5 61.7391V37.3598M97.748 65.8357C98.5046 66.1408 99 66.8748 99 67.6905M97.748 65.8357V65.8357C98.5046 66.1408 99 66.8748 99 67.6905V67.6905M99 67.6905V90.7315M99 90.7315C99 91.5608 98.4882 92.3041 97.7134 92.5999M99 90.7315V90.7315C99 91.5608 98.4882 92.3041 97.7134 92.5999V92.5999M5 37.3598C5 36.5248 5.51886 35.7776 6.30134 35.4859M5 37.3598V37.3598C5 36.5248 5.51886 35.7776 6.30134 35.4859V35.4859" stroke="black"/>
</g>
<path d="M99 1L77.8039 9.28261L99 19.4058V1Z" fill="#8DC63F" stroke="black"/>
<defs>
<filter id="filter0_d" x="0.5" y="9.66003" width="103" height="127.066" filterUnits="userSpaceOnUse" color-interpolation-filters="sRGB">
<feFlood flood-opacity="0" result="BackgroundImageFix"/>
<feColorMatrix in="SourceAlpha" type="matrix" values="0 0 0 0 0 0 0 0 0 0 0 0 0 0 0 0 0 0 127 0"/>
<feOffset dy="4"/>
<feGaussianBlur stdDeviation="2"/>
<feColorMatrix type="matrix" values="0 0 0 0 0 0 0 0 0 0 0 0 0 0 0 0 0 0 0.5 0"/>
<feBlend mode="normal" in2="BackgroundImageFix" result="effect1_dropShadow"/>
<feBlend mode="normal" in="SourceGraphic" in2="effect1_dropShadow" result="shape"/>
</filter>
<linearGradient id="paint0_linear" x1="52" y1="10.2029" x2="52" y2="128" gradientUnits="userSpaceOnUse">
<stop stop-color="#009DDB"/>
<stop offset="1" stop-color="white" stop-opacity="0"/>
</linearGradient>
<linearGradient id="paint1_linear" x1="52" y1="10.2029" x2="52" y2="128" gradientUnits="userSpaceOnUse">
<stop stop-color="#009DDB"/>
<stop offset="1" stop-color="white" stop-opacity="0"/>
</linearGradient>
<linearGradient id="paint2_linear" x1="52" y1="10.2029" x2="52" y2="128" gradientUnits="userSpaceOnUse">
<stop stop-color="#009DDB"/>
<stop offset="1" stop-color="white" stop-opacity="0"/>
</linearGradient>
</defs>
</svg>
