<svg width="169" height="151" viewBox="0 0 169 151" fill="none" xmlns="http://www.w3.org/2000/svg">
<g filter="url(#filter0_d)">
<path d="M84.497 0L157.462 113.25H11.5318L84.497 0Z" fill="#009DDB"/>
<path d="M12.2195 112.875L84.497 0.692388L156.775 112.875H12.2195Z" stroke="black" stroke-width="0.75"/>
</g>
<path d="M76.455 48.8585C76.455 48.5818 76.3573 48.3702 76.162 48.2237C75.9667 48.074 75.6152 47.9177 75.1073 47.7549C74.5995 47.5889 74.1975 47.4262 73.9013 47.2667C73.094 46.8305 72.6903 46.2429 72.6903 45.504C72.6903 45.1199 72.7978 44.7781 73.0126 44.4786C73.2307 44.1758 73.5416 43.9398 73.9452 43.7706C74.3521 43.6013 74.8079 43.5167 75.3124 43.5167C75.8202 43.5167 76.2727 43.6094 76.6698 43.795C77.067 43.9773 77.3746 44.2361 77.5927 44.5714C77.814 44.9066 77.9247 45.2875 77.9247 45.7139H76.4599C76.4599 45.3884 76.3573 45.1361 76.1523 44.9571C75.9472 44.7748 75.6591 44.6837 75.288 44.6837C74.9299 44.6837 74.6516 44.7602 74.453 44.9131C74.2545 45.0629 74.1552 45.2615 74.1552 45.5089C74.1552 45.74 74.2707 45.9337 74.5019 46.0899C74.7362 46.2462 75.0797 46.3926 75.5321 46.5294C76.3655 46.78 76.9726 47.0909 77.3534 47.462C77.7343 47.8331 77.9247 48.2953 77.9247 48.8487C77.9247 49.4639 77.692 49.9473 77.2265 50.2989C76.761 50.6472 76.1344 50.8214 75.3466 50.8214C74.7997 50.8214 74.3017 50.7221 73.8525 50.5235C73.4032 50.3217 73.0598 50.0466 72.8222 49.6983C72.5878 49.35 72.4706 48.9464 72.4706 48.4874H73.9403C73.9403 49.2719 74.4091 49.6641 75.3466 49.6641C75.6949 49.6641 75.9667 49.5941 76.162 49.4542C76.3573 49.3109 76.455 49.1124 76.455 48.8585ZM81.8896 50.7237C81.8245 50.5967 81.7773 50.4389 81.748 50.2501C81.4062 50.6309 80.9618 50.8214 80.415 50.8214C79.8974 50.8214 79.4677 50.6716 79.1259 50.3721C78.7874 50.0727 78.6181 49.695 78.6181 49.2393C78.6181 48.6794 78.8248 48.2497 79.2382 47.9503C79.6549 47.6508 80.2554 47.4994 81.04 47.4962H81.6894V47.1934C81.6894 46.9493 81.6259 46.754 81.4989 46.6075C81.3752 46.461 81.1783 46.3878 80.9081 46.3878C80.6705 46.3878 80.4833 46.4447 80.3466 46.5587C80.2131 46.6726 80.1464 46.8288 80.1464 47.0274H78.7353C78.7353 46.7214 78.8297 46.4382 79.0185 46.1778C79.2073 45.9174 79.4742 45.7139 79.8193 45.5674C80.1643 45.4177 80.5517 45.3428 80.9814 45.3428C81.6324 45.3428 82.1484 45.5072 82.5292 45.836C82.9133 46.1615 83.1054 46.6205 83.1054 47.213V49.503C83.1086 50.0043 83.1786 50.3835 83.3153 50.6407V50.7237H81.8896ZM80.7226 49.7422C80.9309 49.7422 81.123 49.6967 81.2987 49.6055C81.4745 49.5111 81.6047 49.3858 81.6894 49.2296V48.3214H81.162C80.4556 48.3214 80.0797 48.5655 80.0341 49.0538L80.0292 49.1368C80.0292 49.3126 80.0911 49.4574 80.2148 49.5714C80.3385 49.6853 80.5077 49.7422 80.7226 49.7422ZM85.6786 50.7237H84.2626V43.2237H85.6786V50.7237ZM89.2773 50.8214C88.5025 50.8214 87.871 50.5837 87.3827 50.1085C86.8977 49.6332 86.6552 49.0001 86.6552 48.209V48.0723C86.6552 47.5417 86.7577 47.0681 86.9628 46.6514C87.1679 46.2315 87.4576 45.9092 87.8319 45.6846C88.2096 45.4568 88.6392 45.3428 89.121 45.3428C89.8437 45.3428 90.4117 45.5707 90.8251 46.0264C91.2418 46.4822 91.4501 47.1283 91.4501 47.9649V48.5411H88.0859C88.1314 48.8861 88.2681 49.1628 88.496 49.3712C88.7271 49.5795 89.0185 49.6837 89.37 49.6837C89.9137 49.6837 90.3385 49.4867 90.6444 49.0928L91.3378 49.8692C91.1262 50.1687 90.8398 50.4031 90.4784 50.5723C90.1171 50.7383 89.7167 50.8214 89.2773 50.8214ZM89.1161 46.4854C88.8362 46.4854 88.6083 46.5798 88.4325 46.7686C88.26 46.9574 88.1493 47.2276 88.1005 47.5792H90.0634V47.4669C90.0569 47.1544 89.9722 46.9135 89.8095 46.7442C89.6467 46.5717 89.4156 46.4854 89.1161 46.4854ZM95.1171 49.2637C95.1171 49.0912 95.0308 48.9561 94.8583 48.8585C94.689 48.7575 94.4156 48.668 94.038 48.5899C92.7815 48.3262 92.1532 47.7924 92.1532 46.9883C92.1532 46.5196 92.3469 46.129 92.7343 45.8165C93.1249 45.5007 93.6344 45.3428 94.2626 45.3428C94.9332 45.3428 95.4687 45.5007 95.8691 45.8165C96.2727 46.1322 96.4745 46.5424 96.4745 47.0469H95.0634C95.0634 46.8451 94.9983 46.6791 94.8681 46.5489C94.7379 46.4154 94.5344 46.3487 94.2577 46.3487C94.0201 46.3487 93.8362 46.4024 93.706 46.5098C93.5758 46.6172 93.5107 46.754 93.5107 46.92C93.5107 47.0762 93.5839 47.2032 93.7304 47.3008C93.8801 47.3952 94.1308 47.4783 94.4823 47.5499C94.8339 47.6182 95.1301 47.6964 95.371 47.7842C96.1165 48.0577 96.4892 48.5313 96.4892 49.2051C96.4892 49.6869 96.2825 50.0775 95.8691 50.377C95.4556 50.6732 94.9218 50.8214 94.2675 50.8214C93.8248 50.8214 93.4309 50.7432 93.0859 50.587C92.7441 50.4275 92.4755 50.211 92.2802 49.9376C92.0849 49.6609 91.9872 49.363 91.9872 49.044H93.3251C93.3381 49.2947 93.4309 49.4867 93.6034 49.6202C93.776 49.7536 94.0071 49.8204 94.2968 49.8204C94.567 49.8204 94.7704 49.7699 94.9071 49.669C95.0471 49.5648 95.1171 49.4297 95.1171 49.2637Z" fill="white"/>
<path d="M57.412 53.5485L59.2382 58.7048L61.0546 53.5485H62.9785V60.6579H61.5087V58.7145L61.6552 55.36L59.7363 60.6579H58.7304L56.8163 55.3649L56.9628 58.7145V60.6579H55.498V53.5485H57.412ZM67.2265 60.6579C67.1614 60.5309 67.1142 60.3731 67.0849 60.1843C66.7431 60.5651 66.2988 60.7556 65.7519 60.7556C65.2343 60.7556 64.8046 60.6058 64.4628 60.3063C64.1243 60.0069 63.955 59.6293 63.955 59.1735C63.955 58.6136 64.1617 58.1839 64.5751 57.8845C64.9918 57.585 65.5924 57.4336 66.3769 57.4304H67.0263V57.1276C67.0263 56.8835 66.9628 56.6882 66.8359 56.5417C66.7122 56.3952 66.5152 56.322 66.2451 56.322C66.0074 56.322 65.8203 56.3789 65.6835 56.4929C65.5501 56.6068 65.4833 56.763 65.4833 56.9616H64.0722C64.0722 56.6556 64.1666 56.3724 64.3554 56.112C64.5442 55.8516 64.8111 55.6481 65.1562 55.5016C65.5012 55.3519 65.8886 55.277 66.3183 55.277C66.9693 55.277 67.4853 55.4414 67.8661 55.7702C68.2503 56.0957 68.4423 56.5547 68.4423 57.1472V59.4372C68.4456 59.9385 68.5156 60.3177 68.6523 60.5749V60.6579H67.2265ZM66.0595 59.6765C66.2678 59.6765 66.4599 59.6309 66.6357 59.5397C66.8115 59.4453 66.9417 59.32 67.0263 59.1638V58.2556H66.499C65.7926 58.2556 65.4166 58.4997 65.371 58.988L65.3661 59.071C65.3661 59.2468 65.428 59.3916 65.5517 59.5056C65.6754 59.6195 65.8447 59.6765 66.0595 59.6765ZM70.8251 55.3747L70.8691 55.985C71.2467 55.513 71.7529 55.277 72.3876 55.277C72.9475 55.277 73.3642 55.4414 73.6376 55.7702C73.9111 56.099 74.051 56.5905 74.0576 57.2448V60.6579H72.6464V57.279C72.6464 56.9795 72.5813 56.763 72.4511 56.6296C72.3209 56.4929 72.1044 56.4245 71.8017 56.4245C71.4046 56.4245 71.1067 56.5938 70.9081 56.9323V60.6579H69.497V55.3747H70.8251ZM78.1933 60.6579C78.1282 60.5309 78.081 60.3731 78.0517 60.1843C77.7099 60.5651 77.2656 60.7556 76.7187 60.7556C76.2011 60.7556 75.7714 60.6058 75.4296 60.3063C75.0911 60.0069 74.9218 59.6293 74.9218 59.1735C74.9218 58.6136 75.1285 58.1839 75.5419 57.8845C75.9586 57.585 76.5592 57.4336 77.3437 57.4304H77.9931V57.1276C77.9931 56.8835 77.9296 56.6882 77.8027 56.5417C77.679 56.3952 77.482 56.322 77.2119 56.322C76.9742 56.322 76.787 56.3789 76.6503 56.4929C76.5169 56.6068 76.4501 56.763 76.4501 56.9616H75.039C75.039 56.6556 75.1334 56.3724 75.3222 56.112C75.511 55.8516 75.7779 55.6481 76.123 55.5016C76.468 55.3519 76.8554 55.277 77.2851 55.277C77.9361 55.277 78.4521 55.4414 78.8329 55.7702C79.2171 56.0957 79.4091 56.5547 79.4091 57.1472V59.4372C79.4124 59.9385 79.4824 60.3177 79.6191 60.5749V60.6579H78.1933ZM77.0263 59.6765C77.2346 59.6765 77.4267 59.6309 77.6025 59.5397C77.7783 59.4453 77.9085 59.32 77.9931 59.1638V58.2556H77.4658C76.7594 58.2556 76.3834 58.4997 76.3378 58.988L76.3329 59.071C76.3329 59.2468 76.3948 59.3916 76.5185 59.5056C76.6422 59.6195 76.8115 59.6765 77.0263 59.6765ZM80.288 57.9772C80.288 57.1667 80.4801 56.514 80.8642 56.0192C81.2516 55.5244 81.7724 55.277 82.4267 55.277C83.0061 55.277 83.457 55.4756 83.7792 55.8727L83.8378 55.3747H85.1171V60.4821C85.1171 60.9444 85.0113 61.3464 84.7997 61.6882C84.5914 62.03 84.2968 62.2904 83.916 62.4694C83.5351 62.6485 83.0891 62.738 82.5781 62.738C82.1907 62.738 81.8131 62.6599 81.4453 62.5036C81.0774 62.3506 80.7991 62.152 80.6103 61.9079L81.2353 61.0485C81.5869 61.4424 82.0133 61.6393 82.5146 61.6393C82.8889 61.6393 83.1803 61.5384 83.3886 61.3366C83.5969 61.138 83.7011 60.8548 83.7011 60.487V60.2038C83.3756 60.5716 82.9475 60.7556 82.4169 60.7556C81.7822 60.7556 81.2678 60.5082 80.874 60.0134C80.4833 59.5153 80.288 58.8561 80.288 58.0358V57.9772ZM81.6992 58.0798C81.6992 58.5583 81.7952 58.9343 81.9872 59.2077C82.1793 59.4779 82.443 59.613 82.7783 59.613C83.2079 59.613 83.5156 59.4518 83.7011 59.1296V56.9079C83.5123 56.5856 83.2079 56.4245 82.788 56.4245C82.4495 56.4245 82.1826 56.5628 81.9872 56.8395C81.7952 57.1162 81.6992 57.5296 81.6992 58.0798ZM88.6376 60.7556C87.8629 60.7556 87.2314 60.5179 86.7431 60.0427C86.2581 59.5674 86.0156 58.9343 86.0156 58.1432V58.0065C86.0156 57.4759 86.1181 57.0023 86.3232 56.5856C86.5283 56.1657 86.818 55.8434 87.1923 55.6188C87.5699 55.391 87.9996 55.277 88.4814 55.277C89.204 55.277 89.7721 55.5049 90.1855 55.9606C90.6022 56.4164 90.8105 57.0625 90.8105 57.8991V58.4753H87.4462C87.4918 58.8203 87.6285 59.097 87.8564 59.3054C88.0875 59.5137 88.3788 59.6179 88.7304 59.6179C89.274 59.6179 89.6988 59.4209 90.0048 59.027L90.6982 59.8034C90.4866 60.1029 90.2001 60.3373 89.8388 60.5065C89.4775 60.6725 89.0771 60.7556 88.6376 60.7556ZM88.4765 56.4196C88.1966 56.4196 87.9687 56.514 87.7929 56.7028C87.6204 56.8916 87.5097 57.1618 87.4609 57.5134H89.4238V57.4011C89.4173 57.0886 89.3326 56.8477 89.1699 56.6784C89.0071 56.5059 88.776 56.4196 88.4765 56.4196ZM92.9394 55.3747L92.9833 55.9655C93.3577 55.5065 93.8639 55.277 94.5019 55.277C95.1822 55.277 95.6494 55.5456 95.9033 56.0827C96.2744 55.5456 96.8033 55.277 97.4902 55.277C98.0631 55.277 98.4895 55.4447 98.7695 55.78C99.0494 56.112 99.1894 56.6133 99.1894 57.2839V60.6579H97.7734V57.2888C97.7734 56.9893 97.7148 56.7712 97.5976 56.6345C97.4804 56.4945 97.2737 56.4245 96.9775 56.4245C96.5543 56.4245 96.2613 56.6263 96.0986 57.03L96.1035 60.6579H94.6923V57.2936C94.6923 56.9877 94.6321 56.7663 94.5117 56.6296C94.3912 56.4929 94.1861 56.4245 93.8964 56.4245C93.496 56.4245 93.2063 56.5905 93.0273 56.9225V60.6579H91.6161V55.3747H92.9394ZM102.71 60.7556C101.935 60.7556 101.304 60.5179 100.815 60.0427C100.33 59.5674 100.088 58.9343 100.088 58.1432V58.0065C100.088 57.4759 100.19 57.0023 100.395 56.5856C100.601 56.1657 100.89 55.8434 101.265 55.6188C101.642 55.391 102.072 55.277 102.554 55.277C103.276 55.277 103.844 55.5049 104.258 55.9606C104.674 56.4164 104.883 57.0625 104.883 57.8991V58.4753H101.518C101.564 58.8203 101.701 59.097 101.929 59.3054C102.16 59.5137 102.451 59.6179 102.803 59.6179C103.346 59.6179 103.771 59.4209 104.077 59.027L104.77 59.8034C104.559 60.1029 104.272 60.3373 103.911 60.5065C103.55 60.6725 103.149 60.7556 102.71 60.7556ZM102.549 56.4196C102.269 56.4196 102.041 56.514 101.865 56.7028C101.693 56.8916 101.582 57.1618 101.533 57.5134H103.496V57.4011C103.49 57.0886 103.405 56.8477 103.242 56.6784C103.079 56.5059 102.848 56.4196 102.549 56.4196ZM106.987 55.3747L107.031 55.985C107.409 55.513 107.915 55.277 108.55 55.277C109.11 55.277 109.526 55.4414 109.8 55.7702C110.073 56.099 110.213 56.5905 110.22 57.2448V60.6579H108.809V57.279C108.809 56.9795 108.743 56.763 108.613 56.6296C108.483 56.4929 108.267 56.4245 107.964 56.4245C107.567 56.4245 107.269 56.5938 107.07 56.9323V60.6579H105.659V55.3747H106.987ZM112.983 54.0759V55.3747H113.887V56.4099H112.983V59.0466C112.983 59.2419 113.021 59.3819 113.096 59.4665C113.171 59.5511 113.314 59.5934 113.525 59.5934C113.682 59.5934 113.82 59.5821 113.94 59.5593V60.6286C113.664 60.7132 113.379 60.7556 113.086 60.7556C112.096 60.7556 111.592 60.2559 111.572 59.2565V56.4099H110.801V55.3747H111.572V54.0759H112.983Z" fill="white"/>
<ellipse cx="59.4217" cy="72.5197" rx="1.00301" ry="0.99342" fill="white"/>
<path d="M66.8419 71.827H65.8399V73.5526H65.2745V69.287H66.6866C67.1671 69.287 67.5362 69.3964 67.794 69.6151C68.0538 69.8339 68.1837 70.1522 68.1837 70.5702C68.1837 70.8358 68.1114 71.0673 67.9669 71.2645C67.8243 71.4618 67.6251 71.6093 67.3692 71.7069L68.3712 73.5175V73.5526H67.7677L66.8419 71.827ZM65.8399 71.3671H66.7042C66.9835 71.3671 67.2052 71.2948 67.3692 71.1503C67.5353 71.0057 67.6183 70.8124 67.6183 70.5702C67.6183 70.3065 67.5392 70.1044 67.381 69.9637C67.2247 69.8231 66.9981 69.7518 66.7013 69.7499H65.8399V71.3671ZM70.2052 73.6112C69.7755 73.6112 69.4259 73.4706 69.1564 73.1893C68.8868 72.9061 68.7521 72.5282 68.7521 72.0555V71.9559C68.7521 71.6415 68.8116 71.3612 68.9308 71.1151C69.0519 70.8671 69.2198 70.6737 69.4347 70.535C69.6515 70.3944 69.8858 70.3241 70.1378 70.3241C70.5499 70.3241 70.8702 70.4598 71.0987 70.7313C71.3273 71.0028 71.4415 71.3915 71.4415 71.8973V72.1229H69.294C69.3019 72.4354 69.3927 72.6884 69.5665 72.8817C69.7423 73.0731 69.9649 73.1688 70.2345 73.1688C70.4259 73.1688 70.588 73.1298 70.7208 73.0516C70.8536 72.9735 70.9698 72.87 71.0694 72.7411L71.4005 72.9989C71.1349 73.4071 70.7364 73.6112 70.2052 73.6112ZM70.1378 70.7694C69.919 70.7694 69.7355 70.8495 69.587 71.0096C69.4386 71.1678 69.3468 71.3905 69.3116 71.6776H70.8995V71.6366C70.8839 71.3612 70.8097 71.1483 70.6769 70.9979C70.544 70.8456 70.3644 70.7694 70.1378 70.7694ZM73.0763 72.8173L73.8614 70.3827H74.4151L73.2784 73.5526H72.8653L71.7169 70.3827H72.2706L73.0763 72.8173ZM76.211 73.6112C75.7814 73.6112 75.4317 73.4706 75.1622 73.1893C74.8927 72.9061 74.7579 72.5282 74.7579 72.0555V71.9559C74.7579 71.6415 74.8175 71.3612 74.9366 71.1151C75.0577 70.8671 75.2257 70.6737 75.4405 70.535C75.6573 70.3944 75.8917 70.3241 76.1437 70.3241C76.5558 70.3241 76.8761 70.4598 77.1046 70.7313C77.3331 71.0028 77.4474 71.3915 77.4474 71.8973V72.1229H75.2999C75.3077 72.4354 75.3985 72.6884 75.5724 72.8817C75.7481 73.0731 75.9708 73.1688 76.2403 73.1688C76.4317 73.1688 76.5939 73.1298 76.7267 73.0516C76.8595 72.9735 76.9757 72.87 77.0753 72.7411L77.4064 72.9989C77.1407 73.4071 76.7423 73.6112 76.211 73.6112ZM76.1437 70.7694C75.9249 70.7694 75.7413 70.8495 75.5929 71.0096C75.4444 71.1678 75.3526 71.3905 75.3175 71.6776H76.9054V71.6366C76.8898 71.3612 76.8155 71.1483 76.6827 70.9979C76.5499 70.8456 76.3702 70.7694 76.1437 70.7694ZM78.5899 70.3827L78.6075 70.7811C78.8497 70.4764 79.1661 70.3241 79.5567 70.3241C80.2267 70.3241 80.5646 70.702 80.5704 71.4579V73.5526H80.0284V71.455C80.0265 71.2264 79.9737 71.0575 79.8702 70.9481C79.7687 70.8387 79.6095 70.7841 79.3927 70.7841C79.2169 70.7841 79.0626 70.8309 78.9298 70.9247C78.797 71.0184 78.6935 71.1415 78.6192 71.2938V73.5526H78.0773V70.3827H78.5899ZM83.3448 73.2391C83.1339 73.4872 82.8243 73.6112 82.4161 73.6112C82.0782 73.6112 81.8204 73.5135 81.6427 73.3182C81.4669 73.121 81.378 72.83 81.3761 72.4452V70.3827H81.9181V72.4305C81.9181 72.911 82.1134 73.1512 82.504 73.1512C82.9181 73.1512 83.1935 72.9969 83.3302 72.6884V70.3827H83.8722V73.5526H83.3565L83.3448 73.2391ZM86.0138 73.6112C85.5841 73.6112 85.2345 73.4706 84.9649 73.1893C84.6954 72.9061 84.5606 72.5282 84.5606 72.0555V71.9559C84.5606 71.6415 84.6202 71.3612 84.7394 71.1151C84.8605 70.8671 85.0284 70.6737 85.2433 70.535C85.4601 70.3944 85.6944 70.3241 85.9464 70.3241C86.3585 70.3241 86.6788 70.4598 86.9073 70.7313C87.1358 71.0028 87.2501 71.3915 87.2501 71.8973V72.1229H85.1026C85.1105 72.4354 85.2013 72.6884 85.3751 72.8817C85.5509 73.0731 85.7735 73.1688 86.0431 73.1688C86.2345 73.1688 86.3966 73.1298 86.5294 73.0516C86.6622 72.9735 86.7784 72.87 86.878 72.7411L87.2091 72.9989C86.9435 73.4071 86.545 73.6112 86.0138 73.6112ZM85.9464 70.7694C85.7276 70.7694 85.544 70.8495 85.3956 71.0096C85.2472 71.1678 85.1554 71.3905 85.1202 71.6776H86.7081V71.6366C86.6925 71.3612 86.6183 71.1483 86.4855 70.9979C86.3526 70.8456 86.173 70.7694 85.9464 70.7694ZM92.6026 72.993C92.4581 73.2001 92.256 73.3553 91.9962 73.4589C91.7384 73.5604 91.4376 73.6112 91.0939 73.6112C90.7462 73.6112 90.4376 73.5302 90.1681 73.368C89.8985 73.204 89.6896 72.9716 89.5411 72.6708C89.3946 72.37 89.3194 72.0214 89.3155 71.6249V71.2528C89.3155 70.6102 89.4649 70.1122 89.7638 69.7587C90.0646 69.4052 90.4864 69.2284 91.0294 69.2284C91.4747 69.2284 91.8331 69.3427 92.1046 69.5712C92.3761 69.7977 92.5421 70.12 92.6026 70.538H92.0401C91.9347 69.9735 91.5987 69.6913 91.0323 69.6913C90.6554 69.6913 90.3692 69.8241 90.1739 70.0897C89.9806 70.3534 89.8829 70.7362 89.881 71.2382V71.5868C89.881 72.0653 89.9903 72.4462 90.2091 72.7294C90.4278 73.0106 90.7237 73.1512 91.0968 73.1512C91.3077 73.1512 91.4923 73.1278 91.6505 73.0809C91.8087 73.0341 91.9396 72.955 92.0431 72.8436V71.8856H91.0558V71.4286H92.6026V72.993ZM94.9903 70.869C94.9083 70.8553 94.8194 70.8485 94.7237 70.8485C94.3683 70.8485 94.1271 70.9999 94.0001 71.3026V73.5526H93.4581V70.3827H93.9855L93.9942 70.7489C94.172 70.4657 94.4239 70.3241 94.7501 70.3241C94.8556 70.3241 94.9356 70.3378 94.9903 70.3651V70.869ZM95.2892 71.9384C95.2892 71.6278 95.3497 71.3485 95.4708 71.1005C95.5939 70.8524 95.7638 70.661 95.9806 70.5262C96.1993 70.3915 96.4483 70.3241 96.7276 70.3241C97.1593 70.3241 97.5079 70.4735 97.7735 70.7723C98.0411 71.0712 98.1749 71.4686 98.1749 71.9647V72.0028C98.1749 72.3114 98.1153 72.5887 97.9962 72.8348C97.879 73.079 97.7101 73.2694 97.4894 73.4061C97.2706 73.5428 97.0187 73.6112 96.7335 73.6112C96.3038 73.6112 95.9552 73.4618 95.6876 73.163C95.422 72.8641 95.2892 72.4686 95.2892 71.9764V71.9384ZM95.8341 72.0028C95.8341 72.3544 95.9151 72.6366 96.0773 72.8495C96.2413 73.0624 96.4601 73.1688 96.7335 73.1688C97.0089 73.1688 97.2276 73.0614 97.3898 72.8466C97.5519 72.6298 97.6329 72.327 97.6329 71.9384C97.6329 71.5907 97.5499 71.3094 97.3839 71.0946C97.2198 70.8778 97.0011 70.7694 96.7276 70.7694C96.4601 70.7694 96.2442 70.8759 96.0802 71.0887C95.9161 71.3016 95.8341 71.6063 95.8341 72.0028ZM101.661 72.8055L102.271 70.3827H102.813L101.89 73.5526H101.45L100.68 71.1503L99.9298 73.5526H99.4903L98.5704 70.3827H99.1095L99.7335 72.7557L100.472 70.3827H100.908L101.661 72.8055ZM104.102 69.6151V70.3827H104.693V70.8016H104.102V72.7675C104.102 72.8944 104.128 72.9901 104.181 73.0546C104.234 73.1171 104.323 73.1483 104.45 73.1483C104.513 73.1483 104.599 73.1366 104.708 73.1132V73.5526C104.566 73.5917 104.427 73.6112 104.292 73.6112C104.05 73.6112 103.867 73.538 103.744 73.3915C103.621 73.245 103.56 73.037 103.56 72.7675V70.8016H102.983V70.3827H103.56V69.6151H104.102ZM105.871 70.7665C106.111 70.4716 106.424 70.3241 106.809 70.3241C107.479 70.3241 107.817 70.702 107.822 71.4579V73.5526H107.28V71.455C107.278 71.2264 107.226 71.0575 107.122 70.9481C107.021 70.8387 106.861 70.7841 106.645 70.7841C106.469 70.7841 106.315 70.8309 106.182 70.9247C106.049 71.0184 105.945 71.1415 105.871 71.2938V73.5526H105.329V69.0526H105.871V70.7665Z" fill="white"/>
<path d="M60.4247 80.4671C60.4247 81.0158 59.9757 81.4605 59.4217 81.4605C58.8678 81.4605 58.4187 81.0158 58.4187 80.4671C58.4187 79.9185 58.8678 79.4737 59.4217 79.4737C59.9757 79.4737 60.4247 79.9185 60.4247 80.4671Z" fill="white"/>
<path d="M66.0005 77.2344L67.395 80.7148L68.7896 77.2344H69.5191V81.5H68.9566V79.8389L69.0093 78.0459L67.6089 81.5H67.1782L65.7808 78.0547L65.8365 79.8389V81.5H65.274V77.2344H66.0005ZM72.3843 81.5C72.3531 81.4375 72.3277 81.3262 72.3081 81.166C72.0562 81.4277 71.7554 81.5586 71.4058 81.5586C71.0933 81.5586 70.8365 81.4707 70.6353 81.2949C70.4361 81.1172 70.3365 80.8926 70.3365 80.6211C70.3365 80.291 70.4615 80.0352 70.7115 79.8535C70.9634 79.6699 71.3169 79.5781 71.772 79.5781H72.2993V79.3291C72.2993 79.1396 72.2427 78.9893 72.1294 78.8779C72.0161 78.7646 71.8491 78.708 71.6284 78.708C71.4351 78.708 71.273 78.7568 71.1421 78.8545C71.0113 78.9521 70.9458 79.0703 70.9458 79.209H70.4009C70.4009 79.0508 70.4566 78.8984 70.5679 78.752C70.6812 78.6035 70.8335 78.4863 71.0249 78.4004C71.2183 78.3145 71.4302 78.2715 71.6607 78.2715C72.0259 78.2715 72.312 78.3633 72.5191 78.5469C72.7261 78.7285 72.8335 78.9795 72.8413 79.2998V80.7588C72.8413 81.0498 72.8784 81.2812 72.9527 81.4531V81.5H72.3843ZM71.4849 81.0869C71.6548 81.0869 71.8159 81.043 71.9683 80.9551C72.1206 80.8672 72.231 80.7529 72.2993 80.6123V79.9619H71.8745C71.2105 79.9619 70.8784 80.1562 70.8784 80.5449C70.8784 80.7148 70.9351 80.8477 71.0484 80.9434C71.1616 81.0391 71.3072 81.0869 71.4849 81.0869ZM75.2232 78.8164C75.1411 78.8027 75.0523 78.7959 74.9566 78.7959C74.6011 78.7959 74.3599 78.9473 74.2329 79.25V81.5H73.6909V78.3301H74.2183L74.2271 78.6963C74.4048 78.4131 74.6568 78.2715 74.9829 78.2715C75.0884 78.2715 75.1685 78.2852 75.2232 78.3125V78.8164ZM75.5366 79.8887C75.5366 79.3945 75.6509 79.002 75.8794 78.7109C76.1079 78.418 76.4107 78.2715 76.7876 78.2715C77.1743 78.2715 77.4761 78.4082 77.6929 78.6816L77.7193 78.3301H78.2144V81.4238C78.2144 81.834 78.0923 82.1572 77.8482 82.3936C77.606 82.6299 77.2798 82.748 76.8697 82.748C76.6411 82.748 76.4175 82.6992 76.1988 82.6016C75.98 82.5039 75.813 82.3701 75.6978 82.2002L75.979 81.875C76.2115 82.1621 76.4956 82.3057 76.8316 82.3057C77.0952 82.3057 77.3003 82.2314 77.4468 82.083C77.5952 81.9346 77.6695 81.7256 77.6695 81.4561V81.1836C77.4527 81.4336 77.1568 81.5586 76.7818 81.5586C76.4107 81.5586 76.1099 81.4092 75.8794 81.1104C75.6509 80.8115 75.5366 80.4043 75.5366 79.8887ZM76.0816 79.9502C76.0816 80.3076 76.1548 80.5889 76.3013 80.7939C76.4478 80.9971 76.6529 81.0986 76.9165 81.0986C77.2583 81.0986 77.5093 80.9434 77.6695 80.6328V79.1855C77.5034 78.8828 77.2544 78.7314 76.9224 78.7314C76.6587 78.7314 76.4527 78.834 76.3042 79.0391C76.1558 79.2441 76.0816 79.5479 76.0816 79.9502ZM79.6236 81.5H79.0816V78.3301H79.6236V81.5ZM79.0376 77.4893C79.0376 77.4014 79.064 77.3271 79.1167 77.2666C79.1714 77.2061 79.2515 77.1758 79.357 77.1758C79.4624 77.1758 79.5425 77.2061 79.5972 77.2666C79.6519 77.3271 79.6792 77.4014 79.6792 77.4893C79.6792 77.5771 79.6519 77.6504 79.5972 77.709C79.5425 77.7676 79.4624 77.7969 79.357 77.7969C79.2515 77.7969 79.1714 77.7676 79.1167 77.709C79.064 77.6504 79.0376 77.5771 79.0376 77.4893ZM81.0064 78.3301L81.024 78.7285C81.2661 78.4238 81.5825 78.2715 81.9732 78.2715C82.6431 78.2715 82.981 78.6494 82.9868 79.4053V81.5H82.4449V79.4023C82.4429 79.1738 82.3902 79.0049 82.2866 78.8955C82.1851 78.7861 82.0259 78.7314 81.8091 78.7314C81.6333 78.7314 81.479 78.7783 81.3462 78.8721C81.2134 78.9658 81.1099 79.0889 81.0357 79.2412V81.5H80.4937V78.3301H81.0064ZM85.6499 80.6592C85.6499 80.5127 85.5943 80.3994 85.4829 80.3193C85.3736 80.2373 85.1812 80.167 84.9058 80.1084C84.6324 80.0498 84.4146 79.9795 84.2525 79.8975C84.0923 79.8154 83.9732 79.7178 83.895 79.6045C83.8189 79.4912 83.7808 79.3564 83.7808 79.2002C83.7808 78.9404 83.8902 78.7207 84.1089 78.541C84.3296 78.3613 84.6109 78.2715 84.9527 78.2715C85.312 78.2715 85.6031 78.3643 85.8257 78.5498C86.0503 78.7354 86.1626 78.9727 86.1626 79.2617H85.6177C85.6177 79.1133 85.5542 78.9854 85.4273 78.8779C85.3023 78.7705 85.1441 78.7168 84.9527 78.7168C84.7554 78.7168 84.6011 78.7598 84.4898 78.8457C84.3784 78.9316 84.3228 79.0439 84.3228 79.1826C84.3228 79.3135 84.3745 79.4121 84.4781 79.4785C84.5816 79.5449 84.7681 79.6084 85.0376 79.6689C85.3091 79.7295 85.5288 79.8018 85.6968 79.8857C85.8648 79.9697 85.9888 80.0713 86.0689 80.1904C86.1509 80.3076 86.1919 80.4512 86.1919 80.6211C86.1919 80.9043 86.0786 81.1318 85.8521 81.3037C85.6255 81.4736 85.3316 81.5586 84.9702 81.5586C84.7163 81.5586 84.4917 81.5137 84.2964 81.4238C84.1011 81.334 83.9478 81.209 83.8365 81.0488C83.7271 80.8867 83.6724 80.7119 83.6724 80.5244H84.2144C84.2241 80.7061 84.2964 80.8506 84.4312 80.958C84.5679 81.0635 84.7476 81.1162 84.9702 81.1162C85.1753 81.1162 85.3394 81.0752 85.4624 80.9932C85.5874 80.9092 85.6499 80.7979 85.6499 80.6592ZM89.0337 79.8301V81.5H88.4712V77.2344H90.0445C90.5113 77.2344 90.8765 77.3535 91.1402 77.5918C91.4058 77.8301 91.5386 78.1455 91.5386 78.5381C91.5386 78.9521 91.4087 79.2715 91.149 79.4961C90.8911 79.7188 90.521 79.8301 90.0386 79.8301H89.0337ZM89.0337 79.3701H90.0445C90.3452 79.3701 90.5757 79.2998 90.7359 79.1592C90.896 79.0166 90.9761 78.8115 90.9761 78.5439C90.9761 78.29 90.896 78.0869 90.7359 77.9346C90.5757 77.7822 90.356 77.7031 90.0767 77.6973H89.0337V79.3701ZM93.7036 78.8164C93.6216 78.8027 93.5327 78.7959 93.437 78.7959C93.0816 78.7959 92.8404 78.9473 92.7134 79.25V81.5H92.1714V78.3301H92.6988L92.7075 78.6963C92.8853 78.4131 93.1372 78.2715 93.4634 78.2715C93.5689 78.2715 93.649 78.2852 93.7036 78.3125V78.8164ZM94.0025 79.8857C94.0025 79.5752 94.063 79.2959 94.1841 79.0479C94.3072 78.7998 94.4771 78.6084 94.6939 78.4736C94.9126 78.3389 95.1616 78.2715 95.4409 78.2715C95.8726 78.2715 96.2212 78.4209 96.4868 78.7197C96.7544 79.0186 96.8882 79.416 96.8882 79.9121V79.9502C96.8882 80.2588 96.8286 80.5361 96.7095 80.7822C96.5923 81.0264 96.4234 81.2168 96.2027 81.3535C95.9839 81.4902 95.732 81.5586 95.4468 81.5586C95.0171 81.5586 94.6685 81.4092 94.4009 81.1104C94.1353 80.8115 94.0025 80.416 94.0025 79.9238V79.8857ZM94.5474 79.9502C94.5474 80.3018 94.6284 80.584 94.7906 80.7969C94.9546 81.0098 95.1734 81.1162 95.4468 81.1162C95.7222 81.1162 95.9409 81.0088 96.1031 80.7939C96.2652 80.5771 96.3462 80.2744 96.3462 79.8857C96.3462 79.5381 96.2632 79.2568 96.0972 79.042C95.9331 78.8252 95.7144 78.7168 95.4409 78.7168C95.1734 78.7168 94.9575 78.8232 94.7935 79.0361C94.6294 79.249 94.5474 79.5537 94.5474 79.9502ZM97.7495 81.5V78.749H97.2486V78.3301H97.7495V78.0605C97.7495 77.707 97.8501 77.4316 98.0513 77.2344C98.2544 77.0371 98.5406 76.9385 98.9097 76.9385C99.1284 76.9385 99.4048 76.998 99.7388 77.1172L99.648 77.5742C99.4038 77.4766 99.1714 77.4277 98.9507 77.4277C98.7183 77.4277 98.5503 77.4805 98.4468 77.5859C98.3452 77.6895 98.2945 77.8457 98.2945 78.0547V78.3301H98.9419V78.749H98.2945V81.5H97.7495ZM100.008 81.5H99.4634V78.3301H100.008V81.5ZM101.626 77.5625V78.3301H102.217V78.749H101.626V80.7148C101.626 80.8418 101.652 80.9375 101.705 81.002C101.757 81.0645 101.847 81.0957 101.974 81.0957C102.037 81.0957 102.123 81.084 102.232 81.0605V81.5C102.089 81.5391 101.951 81.5586 101.816 81.5586C101.574 81.5586 101.391 81.4854 101.268 81.3389C101.145 81.1924 101.084 80.9844 101.084 80.7148V78.749H100.506V78.3301H101.084V77.5625H101.626ZM104.81 81.5C104.779 81.4375 104.753 81.3262 104.734 81.166C104.482 81.4277 104.181 81.5586 103.832 81.5586C103.519 81.5586 103.262 81.4707 103.061 81.2949C102.862 81.1172 102.762 80.8926 102.762 80.6211C102.762 80.291 102.887 80.0352 103.137 79.8535C103.389 79.6699 103.743 79.5781 104.198 79.5781H104.725V79.3291C104.725 79.1396 104.668 78.9893 104.555 78.8779C104.442 78.7646 104.275 78.708 104.054 78.708C103.861 78.708 103.699 78.7568 103.568 78.8545C103.437 78.9521 103.372 79.0703 103.372 79.209H102.827C102.827 79.0508 102.882 78.8984 102.994 78.752C103.107 78.6035 103.259 78.4863 103.451 78.4004C103.644 78.3145 103.856 78.2715 104.086 78.2715C104.452 78.2715 104.738 78.3633 104.945 78.5469C105.152 78.7285 105.259 78.9795 105.267 79.2998V80.7588C105.267 81.0498 105.304 81.2812 105.378 81.4531V81.5H104.81ZM103.911 81.0869C104.081 81.0869 104.242 81.043 104.394 80.9551C104.546 80.8672 104.657 80.7529 104.725 80.6123V79.9619H104.3C103.636 79.9619 103.304 80.1562 103.304 80.5449C103.304 80.7148 103.361 80.8477 103.474 80.9434C103.587 81.0391 103.733 81.0869 103.911 81.0869ZM108.8 79.9502C108.8 80.4346 108.689 80.8242 108.466 81.1191C108.244 81.4121 107.945 81.5586 107.57 81.5586C107.169 81.5586 106.86 81.417 106.641 81.1338L106.615 81.5H106.117V77H106.659V78.6787C106.877 78.4072 107.179 78.2715 107.564 78.2715C107.949 78.2715 108.251 78.417 108.469 78.708C108.69 78.999 108.8 79.3975 108.8 79.9033V79.9502ZM108.258 79.8887C108.258 79.5195 108.187 79.2344 108.044 79.0332C107.902 78.832 107.697 78.7314 107.429 78.7314C107.072 78.7314 106.815 78.8975 106.659 79.2295V80.6006C106.825 80.9326 107.084 81.0986 107.435 81.0986C107.695 81.0986 107.897 80.998 108.042 80.7969C108.186 80.5957 108.258 80.293 108.258 79.8887ZM110.075 81.5H109.533V78.3301H110.075V81.5ZM109.489 77.4893C109.489 77.4014 109.515 77.3271 109.568 77.2666C109.623 77.2061 109.703 77.1758 109.808 77.1758C109.914 77.1758 109.994 77.2061 110.048 77.2666C110.103 77.3271 110.13 77.4014 110.13 77.4893C110.13 77.5771 110.103 77.6504 110.048 77.709C109.994 77.7676 109.914 77.7969 109.808 77.7969C109.703 77.7969 109.623 77.7676 109.568 77.709C109.515 77.6504 109.489 77.5771 109.489 77.4893ZM111.534 81.5H110.992V77H111.534V81.5ZM112.993 81.5H112.451V78.3301H112.993V81.5ZM112.407 77.4893C112.407 77.4014 112.433 77.3271 112.486 77.2666C112.541 77.2061 112.621 77.1758 112.726 77.1758C112.832 77.1758 112.912 77.2061 112.966 77.2666C113.021 77.3271 113.048 77.4014 113.048 77.4893C113.048 77.5771 113.021 77.6504 112.966 77.709C112.912 77.7676 112.832 77.7969 112.726 77.7969C112.621 77.7969 112.541 77.7676 112.486 77.709C112.433 77.6504 112.407 77.5771 112.407 77.4893ZM114.598 77.5625V78.3301H115.19V78.749H114.598V80.7148C114.598 80.8418 114.625 80.9375 114.677 81.002C114.73 81.0645 114.82 81.0957 114.947 81.0957C115.009 81.0957 115.095 81.084 115.205 81.0605V81.5C115.062 81.5391 114.923 81.5586 114.789 81.5586C114.546 81.5586 114.364 81.4854 114.241 81.3389C114.118 81.1924 114.056 80.9844 114.056 80.7148V78.749H113.479V78.3301H114.056V77.5625H114.598ZM116.863 80.7061L117.601 78.3301H118.181L116.907 81.9893C116.709 82.5166 116.396 82.7803 115.966 82.7803L115.864 82.7715L115.662 82.7334V82.2939L115.808 82.3057C115.992 82.3057 116.134 82.2686 116.236 82.1943C116.339 82.1201 116.424 81.9844 116.491 81.7871L116.611 81.4648L115.48 78.3301H116.072L116.863 80.7061Z" fill="white"/>
<path d="M69.0306 88.0939C68.9779 88.545 68.8109 88.8937 68.5296 89.1398C68.2504 89.3839 67.8783 89.506 67.4134 89.506C66.9095 89.506 66.5052 89.3253 66.2005 88.964C65.8978 88.6027 65.7464 88.1193 65.7464 87.5138V87.1036C65.7464 86.7072 65.8168 86.3585 65.9574 86.0577C66.1 85.757 66.3011 85.5265 66.5609 85.3663C66.8207 85.2042 67.1214 85.1232 67.4632 85.1232C67.9164 85.1232 68.2796 85.2501 68.5531 85.504C68.8265 85.756 68.9857 86.1056 69.0306 86.5529H68.4652C68.4164 86.213 68.3099 85.9669 68.1459 85.8146C67.9837 85.6622 67.7562 85.5861 67.4632 85.5861C67.1039 85.5861 66.8216 85.7189 66.6166 85.9845C66.4134 86.2501 66.3119 86.6281 66.3119 87.1183V87.5314C66.3119 87.9943 66.4086 88.3624 66.6019 88.6359C66.7953 88.9093 67.0658 89.046 67.4134 89.046C67.7259 89.046 67.9652 88.9757 68.1312 88.8351C68.2992 88.6925 68.4105 88.4454 68.4652 88.0939H69.0306ZM69.5726 87.8331C69.5726 87.5226 69.6332 87.2433 69.7543 86.9952C69.8773 86.7472 70.0472 86.5558 70.264 86.421C70.4828 86.2863 70.7318 86.2189 71.0111 86.2189C71.4427 86.2189 71.7914 86.3683 72.057 86.6671C72.3246 86.9659 72.4584 87.3634 72.4584 87.8595V87.8976C72.4584 88.2062 72.3988 88.4835 72.2796 88.7296C72.1625 88.9738 71.9935 89.1642 71.7728 89.3009C71.5541 89.4376 71.3021 89.506 71.017 89.506C70.5873 89.506 70.2386 89.3566 69.9711 89.0577C69.7054 88.7589 69.5726 88.3634 69.5726 87.8712V87.8331ZM70.1175 87.8976C70.1175 88.2491 70.1986 88.5314 70.3607 88.7443C70.5248 88.9572 70.7435 89.0636 71.017 89.0636C71.2923 89.0636 71.5111 88.9562 71.6732 88.7413C71.8353 88.5245 71.9164 88.2218 71.9164 87.8331C71.9164 87.4855 71.8334 87.2042 71.6673 86.9894C71.5033 86.7726 71.2845 86.6642 71.0111 86.6642C70.7435 86.6642 70.5277 86.7706 70.3636 86.9835C70.1996 87.1964 70.1175 87.5011 70.1175 87.8976ZM74.9837 88.6066C74.9837 88.4601 74.9281 88.3468 74.8168 88.2667C74.7074 88.1847 74.515 88.1144 74.2396 88.0558C73.9662 87.9972 73.7484 87.9269 73.5863 87.8448C73.4261 87.7628 73.307 87.6652 73.2289 87.5519C73.1527 87.4386 73.1146 87.3038 73.1146 87.1476C73.1146 86.8878 73.224 86.6681 73.4427 86.4884C73.6634 86.3087 73.9447 86.2189 74.2865 86.2189C74.6459 86.2189 74.9369 86.3116 75.1595 86.4972C75.3841 86.6827 75.4964 86.92 75.4964 87.2091H74.9515C74.9515 87.0607 74.888 86.9327 74.7611 86.8253C74.6361 86.7179 74.4779 86.6642 74.2865 86.6642C74.0892 86.6642 73.9349 86.7072 73.8236 86.7931C73.7123 86.879 73.6566 86.9913 73.6566 87.13C73.6566 87.2609 73.7084 87.3595 73.8119 87.4259C73.9154 87.4923 74.1019 87.5558 74.3714 87.6163C74.6429 87.6769 74.8627 87.7491 75.0306 87.8331C75.1986 87.9171 75.3226 88.0187 75.4027 88.1378C75.4847 88.255 75.5257 88.3986 75.5257 88.5685C75.5257 88.8517 75.4125 89.0792 75.1859 89.2511C74.9593 89.421 74.6654 89.506 74.3041 89.506C74.0502 89.506 73.8255 89.4611 73.6302 89.3712C73.4349 89.2814 73.2816 89.1564 73.1703 88.9962C73.0609 88.8341 73.0062 88.6593 73.0062 88.4718H73.5482C73.558 88.6534 73.6302 88.798 73.765 88.9054C73.9017 89.0109 74.0814 89.0636 74.3041 89.0636C74.5091 89.0636 74.6732 89.0226 74.7962 88.9406C74.9212 88.8566 74.9837 88.7452 74.9837 88.6066ZM76.9671 85.5099V86.2775H77.5589V86.6964H76.9671V88.6622C76.9671 88.7892 76.9935 88.8849 77.0462 88.9493C77.099 89.0118 77.1888 89.0431 77.3158 89.0431C77.3783 89.0431 77.4642 89.0314 77.5736 89.0079V89.4474C77.431 89.4865 77.2923 89.506 77.1576 89.506C76.9154 89.506 76.7328 89.4327 76.6097 89.2863C76.4867 89.1398 76.4252 88.9318 76.4252 88.6622V86.6964H75.848V86.2775H76.4252V85.5099H76.9671ZM82.9056 88.0939C82.8529 88.545 82.6859 88.8937 82.4046 89.1398C82.1254 89.3839 81.7533 89.506 81.2884 89.506C80.7845 89.506 80.3802 89.3253 80.0755 88.964C79.7728 88.6027 79.6214 88.1193 79.6214 87.5138V87.1036C79.6214 86.7072 79.6918 86.3585 79.8324 86.0577C79.975 85.757 80.1761 85.5265 80.4359 85.3663C80.6957 85.2042 80.9964 85.1232 81.3382 85.1232C81.7914 85.1232 82.1546 85.2501 82.4281 85.504C82.7015 85.756 82.8607 86.1056 82.9056 86.5529H82.3402C82.2914 86.213 82.1849 85.9669 82.0209 85.8146C81.8587 85.6622 81.6312 85.5861 81.3382 85.5861C80.9789 85.5861 80.6966 85.7189 80.4916 85.9845C80.2884 86.2501 80.1869 86.6281 80.1869 87.1183V87.5314C80.1869 87.9943 80.2836 88.3624 80.4769 88.6359C80.6703 88.9093 80.9408 89.046 81.2884 89.046C81.6009 89.046 81.8402 88.9757 82.0062 88.8351C82.1742 88.6925 82.2855 88.4454 82.3402 88.0939H82.9056ZM83.4476 87.8331C83.4476 87.5226 83.5082 87.2433 83.6293 86.9952C83.7523 86.7472 83.9222 86.5558 84.139 86.421C84.3578 86.2863 84.6068 86.2189 84.8861 86.2189C85.3177 86.2189 85.6664 86.3683 85.932 86.6671C86.1996 86.9659 86.3334 87.3634 86.3334 87.8595V87.8976C86.3334 88.2062 86.2738 88.4835 86.1546 88.7296C86.0375 88.9738 85.8685 89.1642 85.6478 89.3009C85.4291 89.4376 85.1771 89.506 84.892 89.506C84.4623 89.506 84.1136 89.3566 83.8461 89.0577C83.5804 88.7589 83.4476 88.3634 83.4476 87.8712V87.8331ZM83.9925 87.8976C83.9925 88.2491 84.0736 88.5314 84.2357 88.7443C84.3998 88.9572 84.6185 89.0636 84.892 89.0636C85.1673 89.0636 85.3861 88.9562 85.5482 88.7413C85.7103 88.5245 85.7914 88.2218 85.7914 87.8331C85.7914 87.4855 85.7084 87.2042 85.5423 86.9894C85.3783 86.7726 85.1595 86.6642 84.8861 86.6642C84.6185 86.6642 84.4027 86.7706 84.2386 86.9835C84.0746 87.1964 83.9925 87.5011 83.9925 87.8976ZM87.5257 86.2775L87.5433 86.6759C87.7855 86.3712 88.1019 86.2189 88.4925 86.2189C89.1625 86.2189 89.5004 86.5968 89.5062 87.3527V89.4474H88.9642V87.3497C88.9623 87.1212 88.9095 86.9523 88.806 86.8429C88.7045 86.7335 88.5453 86.6788 88.3285 86.6788C88.1527 86.6788 87.9984 86.7257 87.8656 86.8195C87.7328 86.9132 87.6293 87.0363 87.555 87.1886V89.4474H87.013V86.2775H87.5257ZM91.0589 85.5099V86.2775H91.6507V86.6964H91.0589V88.6622C91.0589 88.7892 91.0853 88.8849 91.138 88.9493C91.1908 89.0118 91.2806 89.0431 91.4076 89.0431C91.4701 89.0431 91.556 89.0314 91.6654 89.0079V89.4474C91.5228 89.4865 91.3841 89.506 91.2494 89.506C91.0072 89.506 90.8246 89.4327 90.7015 89.2863C90.5785 89.1398 90.517 88.9318 90.517 88.6622V86.6964H89.9398V86.2775H90.517V85.5099H91.0589ZM94.2435 89.4474C94.2123 89.3849 94.1869 89.2736 94.1673 89.1134C93.9154 89.3751 93.6146 89.506 93.265 89.506C92.9525 89.506 92.6957 89.4181 92.4945 89.2423C92.2953 89.0646 92.1957 88.84 92.1957 88.5685C92.1957 88.2384 92.3207 87.9825 92.5707 87.8009C92.8226 87.6173 93.1761 87.5255 93.6312 87.5255H94.1586V87.2765C94.1586 87.087 94.1019 86.9366 93.9886 86.8253C93.8754 86.712 93.7084 86.6554 93.4877 86.6554C93.2943 86.6554 93.1322 86.7042 93.0013 86.8019C92.8705 86.8995 92.805 87.0177 92.805 87.1564H92.2601C92.2601 86.9982 92.3158 86.8458 92.4271 86.6993C92.5404 86.5509 92.6927 86.4337 92.8841 86.3478C93.0775 86.2618 93.2894 86.2189 93.5199 86.2189C93.8851 86.2189 94.1712 86.3107 94.3783 86.4943C94.5853 86.6759 94.6927 86.9269 94.7005 87.2472V88.7062C94.7005 88.9972 94.7377 89.2286 94.8119 89.4005V89.4474H94.2435ZM93.3441 89.0343C93.514 89.0343 93.6752 88.9904 93.8275 88.9025C93.9798 88.8146 94.0902 88.7003 94.1586 88.5597V87.9093H93.7337C93.0697 87.9093 92.7377 88.1036 92.7377 88.4923C92.7377 88.6622 92.7943 88.795 92.9076 88.8907C93.0209 88.9865 93.1664 89.0343 93.3441 89.0343ZM96.139 89.4474H95.597V86.2775H96.139V89.4474ZM95.5531 85.4366C95.5531 85.3488 95.5795 85.2745 95.6322 85.214C95.6869 85.1534 95.767 85.1232 95.8724 85.1232C95.9779 85.1232 96.058 85.1534 96.1127 85.214C96.1673 85.2745 96.1947 85.3488 96.1947 85.4366C96.1947 85.5245 96.1673 85.5978 96.1127 85.6564C96.058 85.715 95.9779 85.7443 95.8724 85.7443C95.767 85.7443 95.6869 85.715 95.6322 85.6564C95.5795 85.5978 95.5531 85.5245 95.5531 85.4366ZM97.5218 86.2775L97.5394 86.6759C97.7816 86.3712 98.098 86.2189 98.4886 86.2189C99.1586 86.2189 99.4964 86.5968 99.5023 87.3527V89.4474H98.9603V87.3497C98.9584 87.1212 98.9056 86.9523 98.8021 86.8429C98.7005 86.7335 98.5414 86.6788 98.3246 86.6788C98.1488 86.6788 97.9945 86.7257 97.8617 86.8195C97.7289 86.9132 97.6254 87.0363 97.5511 87.1886V89.4474H97.0091V86.2775H97.5218ZM100.829 86.2775L100.844 86.629C101.077 86.3556 101.39 86.2189 101.785 86.2189C102.228 86.2189 102.53 86.3888 102.69 86.7286C102.795 86.5763 102.932 86.4532 103.1 86.3595C103.27 86.2657 103.47 86.2189 103.701 86.2189C104.396 86.2189 104.749 86.587 104.761 87.3234V89.4474H104.219V87.3556C104.219 87.129 104.167 86.9601 104.064 86.8488C103.96 86.7355 103.786 86.6788 103.542 86.6788C103.341 86.6788 103.174 86.7394 103.041 86.8605C102.909 86.9796 102.831 87.1407 102.81 87.3439V89.4474H102.265V87.3702C102.265 86.9093 102.039 86.6788 101.588 86.6788C101.233 86.6788 100.99 86.8302 100.859 87.1329V89.4474H100.317V86.2775H100.829ZM106.897 89.506C106.467 89.506 106.118 89.3654 105.848 89.0841C105.578 88.8009 105.444 88.423 105.444 87.9503V87.8507C105.444 87.5363 105.503 87.256 105.622 87.0099C105.744 86.7618 105.911 86.5685 106.126 86.4298C106.343 86.2892 106.577 86.2189 106.829 86.2189C107.242 86.2189 107.562 86.3546 107.79 86.6261C108.019 86.8976 108.133 87.2863 108.133 87.7921V88.0177H105.986C105.994 88.3302 106.084 88.5831 106.258 88.7765C106.434 88.9679 106.657 89.0636 106.926 89.0636C107.118 89.0636 107.28 89.0245 107.412 88.9464C107.545 88.8683 107.661 88.7648 107.761 88.6359L108.092 88.8937C107.827 89.3019 107.428 89.506 106.897 89.506ZM106.829 86.6642C106.611 86.6642 106.427 86.7443 106.279 86.9044C106.13 87.0626 106.038 87.2853 106.003 87.5724H107.591V87.5314C107.576 87.256 107.501 87.0431 107.369 86.8927C107.236 86.7404 107.056 86.6642 106.829 86.6642ZM109.276 86.2775L109.293 86.6759C109.536 86.3712 109.852 86.2189 110.243 86.2189C110.912 86.2189 111.25 86.5968 111.256 87.3527V89.4474H110.714V87.3497C110.712 87.1212 110.66 86.9523 110.556 86.8429C110.454 86.7335 110.295 86.6788 110.078 86.6788C109.903 86.6788 109.748 86.7257 109.616 86.8195C109.483 86.9132 109.379 87.0363 109.305 87.1886V89.4474H108.763V86.2775H109.276ZM112.809 85.5099V86.2775H113.401V86.6964H112.809V88.6622C112.809 88.7892 112.835 88.8849 112.888 88.9493C112.941 89.0118 113.031 89.0431 113.158 89.0431C113.22 89.0431 113.306 89.0314 113.415 89.0079V89.4474C113.273 89.4865 113.134 89.506 112.999 89.506C112.757 89.506 112.575 89.4327 112.452 89.2863C112.328 89.1398 112.267 88.9318 112.267 88.6622V86.6964H111.69V86.2775H112.267V85.5099H112.809Z" fill="white"/>
<path d="M60.4247 88.4145C60.4247 88.9632 59.9757 89.4079 59.4217 89.4079C58.8678 89.4079 58.4187 88.9632 58.4187 88.4145C58.4187 87.8659 58.8678 87.4211 59.4217 87.4211C59.9757 87.4211 60.4247 87.8659 60.4247 88.4145Z" fill="white"/>
<defs>
<filter id="filter0_d" x="7.53174" y="0" width="153.93" height="121.25" filterUnits="userSpaceOnUse" color-interpolation-filters="sRGB">
<feFlood flood-opacity="0" result="BackgroundImageFix"/>
<feColorMatrix in="SourceAlpha" type="matrix" values="0 0 0 0 0 0 0 0 0 0 0 0 0 0 0 0 0 0 127 0"/>
<feOffset dy="4"/>
<feGaussianBlur stdDeviation="2"/>
<feColorMatrix type="matrix" values="0 0 0 0 0 0 0 0 0 0 0 0 0 0 0 0 0 0 0.25 0"/>
<feBlend mode="normal" in2="BackgroundImageFix" result="effect1_dropShadow"/>
<feBlend mode="normal" in="SourceGraphic" in2="effect1_dropShadow" result="shape"/>
</filter>
</defs>
</svg>
