<svg width="96" height="129" viewBox="0 0 96 129" fill="none" xmlns="http://www.w3.org/2000/svg">
<path d="M1 99.471L47.0784 80.1449L1 61.7391L36 80L1 99.471Z" fill="#074B65" style="mix-blend-mode:darken"/>
<path d="M1 99.471L47.0784 80.1449L1 61.7391L36 80L1 99.471Z" fill="url(#paint0_linear)"/>
<path d="M95 28.6087L47.0784 47.0145L93.748 65.8357L57.5 47L95 28.6087Z" fill="#074B65" style="mix-blend-mode:darken"/>
<path d="M95 28.6087L47.0784 47.0145L93.748 65.8357L57.5 47L95 28.6087Z" fill="url(#paint1_linear)"/>
<path d="M95 22.1667L70.1176 10.2029L2.30134 35.4859C1.51886 35.7776 1 36.5248 1 37.3598V61.7391L47.0784 80.1449L1 99.471V128L93.7134 92.5999C94.4882 92.3041 95 91.5608 95 90.7315V67.6905C95 66.8748 94.5046 66.1408 93.748 65.8357L47.0784 47.0145L95 28.6087V22.1667Z" fill="#074B65" style="mix-blend-mode:darken"/>
<path d="M95 22.1667L70.1176 10.2029L2.30134 35.4859C1.51886 35.7776 1 36.5248 1 37.3598V61.7391L47.0784 80.1449L1 99.471V128L93.7134 92.5999C94.4882 92.3041 95 91.5608 95 90.7315V67.6905C95 66.8748 94.5046 66.1408 93.748 65.8357L47.0784 47.0145L95 28.6087V22.1667Z" fill="url(#paint2_linear)"/>
<path d="M95 28.6087V22.1667L70.1176 10.2029L2.30134 35.4859M95 28.6087L47.0784 47.0145L93.748 65.8357M95 28.6087L57.5 47L93.748 65.8357M1 99.471V128L93.7134 92.5999M1 99.471L47.0784 80.1449L1 61.7391M1 99.471L36 80L1 61.7391M1 61.7391V37.3598M93.748 65.8357C94.5046 66.1408 95 66.8748 95 67.6905M93.748 65.8357V65.8357C94.5046 66.1408 95 66.8748 95 67.6905V67.6905M95 67.6905V90.7315M95 90.7315C95 91.5608 94.4882 92.3041 93.7134 92.5999M95 90.7315V90.7315C95 91.5608 94.4882 92.3041 93.7134 92.5999V92.5999M1 37.3598C1 36.5248 1.51886 35.7776 2.30134 35.4859M1 37.3598V37.3598C1 36.5248 1.51886 35.7776 2.30134 35.4859V35.4859" stroke="black"/>
<path d="M95 1L73.8039 9.28261L95 19.4058V1Z" fill="#8DC63F" stroke="black"/>
<defs>
<linearGradient id="paint0_linear" x1="48" y1="10.2029" x2="48" y2="128" gradientUnits="userSpaceOnUse">
<stop stop-color="#009DDB"/>
<stop offset="1" stop-color="white" stop-opacity="0"/>
</linearGradient>
<linearGradient id="paint1_linear" x1="48" y1="10.2029" x2="48" y2="128" gradientUnits="userSpaceOnUse">
<stop stop-color="#009DDB"/>
<stop offset="1" stop-color="white" stop-opacity="0"/>
</linearGradient>
<linearGradient id="paint2_linear" x1="48" y1="10.2029" x2="48" y2="128" gradientUnits="userSpaceOnUse">
<stop stop-color="#009DDB"/>
<stop offset="1" stop-color="white" stop-opacity="0"/>
</linearGradient>
</defs>
</svg>
